<mxfile host="65bd71144e">
    <diagram id="iyewheDsq__tvSF9sRS0" name="Page-1">
        <mxGraphModel dx="1640" dy="725" grid="1" gridSize="10" guides="1" tooltips="1" connect="1" arrows="1" fold="1" page="1" pageScale="1" pageWidth="850" pageHeight="1100" math="0" shadow="0">
            <root>
                <mxCell id="0"/>
                <mxCell id="1" parent="0"/>
                <mxCell id="4" value="" style="edgeStyle=none;html=1;" parent="1" source="2" target="3" edge="1">
                    <mxGeometry relative="1" as="geometry"/>
                </mxCell>
                <mxCell id="2" value="css&lt;br&gt;" style="whiteSpace=wrap;html=1;" parent="1" vertex="1">
                    <mxGeometry x="260" y="320" width="120" height="60" as="geometry"/>
                </mxCell>
                <mxCell id="6" value="" style="edgeStyle=none;html=1;" parent="1" source="3" target="5" edge="1">
                    <mxGeometry relative="1" as="geometry"/>
                </mxCell>
                <mxCell id="10" value="" style="edgeStyle=none;html=1;" parent="1" source="3" target="9" edge="1">
                    <mxGeometry relative="1" as="geometry"/>
                </mxCell>
                <mxCell id="3" value="&lt;font style=&quot;border: 0px solid rgb(229, 231, 235); box-sizing: border-box; --tw-border-spacing-x: 0; --tw-border-spacing-y: 0; --tw-translate-x: 0; --tw-translate-y: 0; --tw-rotate: 0; --tw-skew-x: 0; --tw-skew-y: 0; --tw-scale-x: 1; --tw-scale-y: 1; --tw-pan-x: ; --tw-pan-y: ; --tw-pinch-zoom: ; --tw-scroll-snap-strictness: proximity; --tw-gradient-from-position: ; --tw-gradient-via-position: ; --tw-gradient-to-position: ; --tw-ordinal: ; --tw-slashed-zero: ; --tw-numeric-figure: ; --tw-numeric-spacing: ; --tw-numeric-fraction: ; --tw-ring-inset: ; --tw-ring-offset-width: 0px; --tw-ring-offset-color: #fff; --tw-ring-color: rgba(59,130,246,.5); --tw-ring-offset-shadow: 0 0 #0000; --tw-ring-shadow: 0 0 #0000; --tw-shadow: 0 0 #0000; --tw-shadow-colored: 0 0 #0000; --tw-blur: ; --tw-brightness: ; --tw-contrast: ; --tw-grayscale: ; --tw-hue-rotate: ; --tw-invert: ; --tw-saturate: ; --tw-sepia: ; --tw-drop-shadow: ; --tw-backdrop-blur: ; --tw-backdrop-brightness: ; --tw-backdrop-contrast: ; --tw-backdrop-grayscale: ; --tw-backdrop-hue-rotate: ; --tw-backdrop-invert: ; --tw-backdrop-opacity: ; --tw-backdrop-saturate: ; --tw-backdrop-sepia: ; color: rgb(209, 213, 219); font-family: Inter, &amp;quot;Helvetica Neue&amp;quot;, Helvetica, Arial, sans-serif; font-size: 16px; text-align: start; background-color: rgb(17, 24, 39); vertical-align: inherit;&quot;&gt;&lt;font style=&quot;border: 0px solid rgb(229, 231, 235); box-sizing: border-box; --tw-border-spacing-x: 0; --tw-border-spacing-y: 0; --tw-translate-x: 0; --tw-translate-y: 0; --tw-rotate: 0; --tw-skew-x: 0; --tw-skew-y: 0; --tw-scale-x: 1; --tw-scale-y: 1; --tw-pan-x: ; --tw-pan-y: ; --tw-pinch-zoom: ; --tw-scroll-snap-strictness: proximity; --tw-gradient-from-position: ; --tw-gradient-via-position: ; --tw-gradient-to-position: ; --tw-ordinal: ; --tw-slashed-zero: ; --tw-numeric-figure: ; --tw-numeric-spacing: ; --tw-numeric-fraction: ; --tw-ring-inset: ; --tw-ring-offset-width: 0px; --tw-ring-offset-color: #fff; --tw-ring-color: rgba(59,130,246,.5); --tw-ring-offset-shadow: 0 0 #0000; --tw-ring-shadow: 0 0 #0000; --tw-shadow: 0 0 #0000; --tw-shadow-colored: 0 0 #0000; --tw-blur: ; --tw-brightness: ; --tw-contrast: ; --tw-grayscale: ; --tw-hue-rotate: ; --tw-invert: ; --tw-saturate: ; --tw-sepia: ; --tw-drop-shadow: ; --tw-backdrop-blur: ; --tw-backdrop-brightness: ; --tw-backdrop-contrast: ; --tw-backdrop-grayscale: ; --tw-backdrop-hue-rotate: ; --tw-backdrop-invert: ; --tw-backdrop-opacity: ; --tw-backdrop-saturate: ; --tw-backdrop-sepia: ; vertical-align: inherit;&quot; class=&quot;&quot;&gt;estructura&amp;nbsp; para que se vea bien el HTML con algo de&amp;nbsp;&lt;/font&gt;&lt;/font&gt;&lt;em style=&quot;border: 0px solid rgb(229, 231, 235); box-sizing: border-box; --tw-border-spacing-x: 0; --tw-border-spacing-y: 0; --tw-translate-x: 0; --tw-translate-y: 0; --tw-rotate: 0; --tw-skew-x: 0; --tw-skew-y: 0; --tw-scale-x: 1; --tw-scale-y: 1; --tw-pan-x: ; --tw-pan-y: ; --tw-pinch-zoom: ; --tw-scroll-snap-strictness: proximity; --tw-gradient-from-position: ; --tw-gradient-via-position: ; --tw-gradient-to-position: ; --tw-ordinal: ; --tw-slashed-zero: ; --tw-numeric-figure: ; --tw-numeric-spacing: ; --tw-numeric-fraction: ; --tw-ring-inset: ; --tw-ring-offset-width: 0px; --tw-ring-offset-color: #fff; --tw-ring-color: rgba(59,130,246,.5); --tw-ring-offset-shadow: 0 0 #0000; --tw-ring-shadow: 0 0 #0000; --tw-shadow: 0 0 #0000; --tw-shadow-colored: 0 0 #0000; --tw-blur: ; --tw-brightness: ; --tw-contrast: ; --tw-grayscale: ; --tw-hue-rotate: ; --tw-invert: ; --tw-saturate: ; --tw-sepia: ; --tw-drop-shadow: ; --tw-backdrop-blur: ; --tw-backdrop-brightness: ; --tw-backdrop-contrast: ; --tw-backdrop-grayscale: ; --tw-backdrop-hue-rotate: ; --tw-backdrop-invert: ; --tw-backdrop-opacity: ; --tw-backdrop-saturate: ; --tw-backdrop-sepia: ; color: rgb(209, 213, 219); font-family: Inter, &amp;quot;Helvetica Neue&amp;quot;, Helvetica, Arial, sans-serif; font-size: 16px; text-align: start; background-color: rgb(17, 24, 39);&quot;&gt;&lt;font style=&quot;border: 0px solid rgb(229, 231, 235); box-sizing: border-box; --tw-border-spacing-x: 0; --tw-border-spacing-y: 0; --tw-translate-x: 0; --tw-translate-y: 0; --tw-rotate: 0; --tw-skew-x: 0; --tw-skew-y: 0; --tw-scale-x: 1; --tw-scale-y: 1; --tw-pan-x: ; --tw-pan-y: ; --tw-pinch-zoom: ; --tw-scroll-snap-strictness: proximity; --tw-gradient-from-position: ; --tw-gradient-via-position: ; --tw-gradient-to-position: ; --tw-ordinal: ; --tw-slashed-zero: ; --tw-numeric-figure: ; --tw-numeric-spacing: ; --tw-numeric-fraction: ; --tw-ring-inset: ; --tw-ring-offset-width: 0px; --tw-ring-offset-color: #fff; --tw-ring-color: rgba(59,130,246,.5); --tw-ring-offset-shadow: 0 0 #0000; --tw-ring-shadow: 0 0 #0000; --tw-shadow: 0 0 #0000; --tw-shadow-colored: 0 0 #0000; --tw-blur: ; --tw-brightness: ; --tw-contrast: ; --tw-grayscale: ; --tw-hue-rotate: ; --tw-invert: ; --tw-saturate: ; --tw-sepia: ; --tw-drop-shadow: ; --tw-backdrop-blur: ; --tw-backdrop-brightness: ; --tw-backdrop-contrast: ; --tw-backdrop-grayscale: ; --tw-backdrop-hue-rotate: ; --tw-backdrop-invert: ; --tw-backdrop-opacity: ; --tw-backdrop-saturate: ; --tw-backdrop-sepia: ; vertical-align: inherit;&quot;&gt;estilo&lt;/font&gt;&lt;/em&gt;&lt;font style=&quot;border: 0px solid rgb(229, 231, 235); box-sizing: border-box; --tw-border-spacing-x: 0; --tw-border-spacing-y: 0; --tw-translate-x: 0; --tw-translate-y: 0; --tw-rotate: 0; --tw-skew-x: 0; --tw-skew-y: 0; --tw-scale-x: 1; --tw-scale-y: 1; --tw-pan-x: ; --tw-pan-y: ; --tw-pinch-zoom: ; --tw-scroll-snap-strictness: proximity; --tw-gradient-from-position: ; --tw-gradient-via-position: ; --tw-gradient-to-position: ; --tw-ordinal: ; --tw-slashed-zero: ; --tw-numeric-figure: ; --tw-numeric-spacing: ; --tw-numeric-fraction: ; --tw-ring-inset: ; --tw-ring-offset-width: 0px; --tw-ring-offset-color: #fff; --tw-ring-color: rgba(59,130,246,.5); --tw-ring-offset-shadow: 0 0 #0000; --tw-ring-shadow: 0 0 #0000; --tw-shadow: 0 0 #0000; --tw-shadow-colored: 0 0 #0000; --tw-blur: ; --tw-brightness: ; --tw-contrast: ; --tw-grayscale: ; --tw-hue-rotate: ; --tw-invert: ; --tw-saturate: ; --tw-sepia: ; --tw-drop-shadow: ; --tw-backdrop-blur: ; --tw-backdrop-brightness: ; --tw-backdrop-contrast: ; --tw-backdrop-grayscale: ; --tw-backdrop-hue-rotate: ; --tw-backdrop-invert: ; --tw-backdrop-opacity: ; --tw-backdrop-saturate: ; --tw-backdrop-sepia: ; color: rgb(209, 213, 219); font-family: Inter, &amp;quot;Helvetica Neue&amp;quot;, Helvetica, Arial, sans-serif; font-size: 16px; text-align: start; background-color: rgb(17, 24, 39); vertical-align: inherit;&quot;&gt;&lt;font style=&quot;border: 0px solid rgb(229, 231, 235); box-sizing: border-box; --tw-border-spacing-x: 0; --tw-border-spacing-y: 0; --tw-translate-x: 0; --tw-translate-y: 0; --tw-rotate: 0; --tw-skew-x: 0; --tw-skew-y: 0; --tw-scale-x: 1; --tw-scale-y: 1; --tw-pan-x: ; --tw-pan-y: ; --tw-pinch-zoom: ; --tw-scroll-snap-strictness: proximity; --tw-gradient-from-position: ; --tw-gradient-via-position: ; --tw-gradient-to-position: ; --tw-ordinal: ; --tw-slashed-zero: ; --tw-numeric-figure: ; --tw-numeric-spacing: ; --tw-numeric-fraction: ; --tw-ring-inset: ; --tw-ring-offset-width: 0px; --tw-ring-offset-color: #fff; --tw-ring-color: rgba(59,130,246,.5); --tw-ring-offset-shadow: 0 0 #0000; --tw-ring-shadow: 0 0 #0000; --tw-shadow: 0 0 #0000; --tw-shadow-colored: 0 0 #0000; --tw-blur: ; --tw-brightness: ; --tw-contrast: ; --tw-grayscale: ; --tw-hue-rotate: ; --tw-invert: ; --tw-saturate: ; --tw-sepia: ; --tw-drop-shadow: ; --tw-backdrop-blur: ; --tw-backdrop-brightness: ; --tw-backdrop-contrast: ; --tw-backdrop-grayscale: ; --tw-backdrop-hue-rotate: ; --tw-backdrop-invert: ; --tw-backdrop-opacity: ; --tw-backdrop-saturate: ; --tw-backdrop-sepia: ; vertical-align: inherit;&quot; class=&quot;&quot;&gt;&amp;nbsp;, que es exactamente para lo que sirve CSS&lt;/font&gt;&lt;/font&gt;" style="whiteSpace=wrap;html=1;" parent="1" vertex="1">
                    <mxGeometry x="90" y="430" width="460" height="70" as="geometry"/>
                </mxCell>
                <mxCell id="8" value="" style="edgeStyle=none;html=1;" parent="1" source="5" target="7" edge="1">
                    <mxGeometry relative="1" as="geometry"/>
                </mxCell>
                <mxCell id="5" value="sintaxis basica" style="whiteSpace=wrap;html=1;" parent="1" vertex="1">
                    <mxGeometry x="260" y="585" width="120" height="60" as="geometry"/>
                </mxCell>
                <mxCell id="7" value="&lt;img src=&quot;https://cdn.statically.io/gh/TheOdinProject/curriculum/05ce472eabf8e04eeb2cc9139e66db884074fd7d/foundations/html_css/css-foundations/imgs/00.jpg&quot;&gt;" style="whiteSpace=wrap;html=1;" parent="1" vertex="1">
                    <mxGeometry x="155" y="730" width="330" height="210" as="geometry"/>
                </mxCell>
                <mxCell id="12" value="" style="edgeStyle=none;html=1;" parent="1" source="9" target="11" edge="1">
                    <mxGeometry relative="1" as="geometry"/>
                </mxCell>
                <mxCell id="14" value="" style="edgeStyle=none;html=1;" parent="1" source="9" target="13" edge="1">
                    <mxGeometry relative="1" as="geometry">
                        <Array as="points">
                            <mxPoint x="860" y="700"/>
                        </Array>
                    </mxGeometry>
                </mxCell>
                <mxCell id="18" value="" style="edgeStyle=none;html=1;" parent="1" source="9" target="17" edge="1">
                    <mxGeometry relative="1" as="geometry">
                        <Array as="points">
                            <mxPoint x="860" y="890"/>
                        </Array>
                    </mxGeometry>
                </mxCell>
                <mxCell id="30" style="edgeStyle=none;html=1;entryX=0;entryY=0.5;entryDx=0;entryDy=0;" parent="1" source="9" target="26" edge="1">
                    <mxGeometry relative="1" as="geometry">
                        <Array as="points">
                            <mxPoint x="860" y="1135"/>
                        </Array>
                    </mxGeometry>
                </mxCell>
                <mxCell id="34" style="edgeStyle=none;html=1;entryX=0;entryY=0.5;entryDx=0;entryDy=0;" parent="1" source="9" target="31" edge="1">
                    <mxGeometry relative="1" as="geometry">
                        <Array as="points">
                            <mxPoint x="860" y="1340"/>
                        </Array>
                    </mxGeometry>
                </mxCell>
                <mxCell id="42" style="edgeStyle=none;html=1;entryX=0;entryY=0.5;entryDx=0;entryDy=0;" edge="1" parent="1" source="9" target="39">
                    <mxGeometry relative="1" as="geometry">
                        <Array as="points">
                            <mxPoint x="860" y="1560"/>
                        </Array>
                    </mxGeometry>
                </mxCell>
                <mxCell id="9" value="selectores" style="whiteSpace=wrap;html=1;" parent="1" vertex="1">
                    <mxGeometry x="800" y="435" width="120" height="60" as="geometry"/>
                </mxCell>
                <mxCell id="11" value="&lt;font style=&quot;border: 0px solid rgb(229, 231, 235); box-sizing: border-box; --tw-border-spacing-x: 0; --tw-border-spacing-y: 0; --tw-translate-x: 0; --tw-translate-y: 0; --tw-rotate: 0; --tw-skew-x: 0; --tw-skew-y: 0; --tw-scale-x: 1; --tw-scale-y: 1; --tw-pan-x: ; --tw-pan-y: ; --tw-pinch-zoom: ; --tw-scroll-snap-strictness: proximity; --tw-gradient-from-position: ; --tw-gradient-via-position: ; --tw-gradient-to-position: ; --tw-ordinal: ; --tw-slashed-zero: ; --tw-numeric-figure: ; --tw-numeric-spacing: ; --tw-numeric-fraction: ; --tw-ring-inset: ; --tw-ring-offset-width: 0px; --tw-ring-offset-color: #fff; --tw-ring-color: rgba(59,130,246,.5); --tw-ring-offset-shadow: 0 0 #0000; --tw-ring-shadow: 0 0 #0000; --tw-shadow: 0 0 #0000; --tw-shadow-colored: 0 0 #0000; --tw-blur: ; --tw-brightness: ; --tw-contrast: ; --tw-grayscale: ; --tw-hue-rotate: ; --tw-invert: ; --tw-saturate: ; --tw-sepia: ; --tw-drop-shadow: ; --tw-backdrop-blur: ; --tw-backdrop-brightness: ; --tw-backdrop-contrast: ; --tw-backdrop-grayscale: ; --tw-backdrop-hue-rotate: ; --tw-backdrop-invert: ; --tw-backdrop-opacity: ; --tw-backdrop-saturate: ; --tw-backdrop-sepia: ; color: rgb(209, 213, 219); font-family: Inter, &amp;quot;Helvetica Neue&amp;quot;, Helvetica, Arial, sans-serif; font-size: 16px; text-align: start; background-color: rgb(17, 24, 39); vertical-align: inherit;&quot; class=&quot;&quot;&gt;simplemente se refieren a los elementos HTML a los que se aplican las reglas CSS;&amp;nbsp;&lt;/font&gt;&lt;font style=&quot;border: 0px solid rgb(229, 231, 235); box-sizing: border-box; --tw-border-spacing-x: 0; --tw-border-spacing-y: 0; --tw-translate-x: 0; --tw-translate-y: 0; --tw-rotate: 0; --tw-skew-x: 0; --tw-skew-y: 0; --tw-scale-x: 1; --tw-scale-y: 1; --tw-pan-x: ; --tw-pan-y: ; --tw-pinch-zoom: ; --tw-scroll-snap-strictness: proximity; --tw-gradient-from-position: ; --tw-gradient-via-position: ; --tw-gradient-to-position: ; --tw-ordinal: ; --tw-slashed-zero: ; --tw-numeric-figure: ; --tw-numeric-spacing: ; --tw-numeric-fraction: ; --tw-ring-inset: ; --tw-ring-offset-width: 0px; --tw-ring-offset-color: #fff; --tw-ring-color: rgba(59,130,246,.5); --tw-ring-offset-shadow: 0 0 #0000; --tw-ring-shadow: 0 0 #0000; --tw-shadow: 0 0 #0000; --tw-shadow-colored: 0 0 #0000; --tw-blur: ; --tw-brightness: ; --tw-contrast: ; --tw-grayscale: ; --tw-hue-rotate: ; --tw-invert: ; --tw-saturate: ; --tw-sepia: ; --tw-drop-shadow: ; --tw-backdrop-blur: ; --tw-backdrop-brightness: ; --tw-backdrop-contrast: ; --tw-backdrop-grayscale: ; --tw-backdrop-hue-rotate: ; --tw-backdrop-invert: ; --tw-backdrop-opacity: ; --tw-backdrop-saturate: ; --tw-backdrop-sepia: ; color: rgb(209, 213, 219); font-family: Inter, &amp;quot;Helvetica Neue&amp;quot;, Helvetica, Arial, sans-serif; font-size: 16px; text-align: start; background-color: rgb(17, 24, 39); vertical-align: inherit;&quot;&gt;son lo que realmente se “selecciona” para cada regla.&amp;nbsp;&lt;/font&gt;&lt;font style=&quot;border: 0px solid rgb(229, 231, 235); box-sizing: border-box; --tw-border-spacing-x: 0; --tw-border-spacing-y: 0; --tw-translate-x: 0; --tw-translate-y: 0; --tw-rotate: 0; --tw-skew-x: 0; --tw-skew-y: 0; --tw-scale-x: 1; --tw-scale-y: 1; --tw-pan-x: ; --tw-pan-y: ; --tw-pinch-zoom: ; --tw-scroll-snap-strictness: proximity; --tw-gradient-from-position: ; --tw-gradient-via-position: ; --tw-gradient-to-position: ; --tw-ordinal: ; --tw-slashed-zero: ; --tw-numeric-figure: ; --tw-numeric-spacing: ; --tw-numeric-fraction: ; --tw-ring-inset: ; --tw-ring-offset-width: 0px; --tw-ring-offset-color: #fff; --tw-ring-color: rgba(59,130,246,.5); --tw-ring-offset-shadow: 0 0 #0000; --tw-ring-shadow: 0 0 #0000; --tw-shadow: 0 0 #0000; --tw-shadow-colored: 0 0 #0000; --tw-blur: ; --tw-brightness: ; --tw-contrast: ; --tw-grayscale: ; --tw-hue-rotate: ; --tw-invert: ; --tw-saturate: ; --tw-sepia: ; --tw-drop-shadow: ; --tw-backdrop-blur: ; --tw-backdrop-brightness: ; --tw-backdrop-contrast: ; --tw-backdrop-grayscale: ; --tw-backdrop-hue-rotate: ; --tw-backdrop-invert: ; --tw-backdrop-opacity: ; --tw-backdrop-saturate: ; --tw-backdrop-sepia: ; color: rgb(209, 213, 219); font-family: Inter, &amp;quot;Helvetica Neue&amp;quot;, Helvetica, Arial, sans-serif; font-size: 16px; text-align: start; background-color: rgb(17, 24, 39); vertical-align: inherit;&quot; class=&quot;&quot;&gt;Las siguientes subsecciones no cubren todos los selectores disponibles, pero son, con diferencia, los más comunes y con los que debería sentirse cómodo usándolos primero.&lt;/font&gt;" style="whiteSpace=wrap;html=1;" parent="1" vertex="1">
                    <mxGeometry x="1010" y="397.5" width="380" height="135" as="geometry"/>
                </mxCell>
                <mxCell id="16" value="" style="edgeStyle=none;html=1;" parent="1" source="13" target="15" edge="1">
                    <mxGeometry relative="1" as="geometry"/>
                </mxCell>
                <mxCell id="13" value="Selector universal:&amp;nbsp;" style="whiteSpace=wrap;html=1;" parent="1" vertex="1">
                    <mxGeometry x="1100" y="670" width="120" height="60" as="geometry"/>
                </mxCell>
                <mxCell id="22" value="" style="edgeStyle=none;html=1;" parent="1" source="15" target="21" edge="1">
                    <mxGeometry relative="1" as="geometry"/>
                </mxCell>
                <mxCell id="15" value="&lt;span style=&quot;color: rgb(209, 213, 219); font-family: Inter, &amp;quot;Helvetica Neue&amp;quot;, Helvetica, Arial, sans-serif; font-size: 16px; text-align: start; background-color: rgb(17, 24, 39);&quot;&gt;El selector universal seleccionará elementos de cualquier tipo, de ahí el nombre &quot;universal&quot; y su sintaxis es un simple asterisco.&lt;/span&gt;" style="whiteSpace=wrap;html=1;" parent="1" vertex="1">
                    <mxGeometry x="1350" y="660" width="480" height="80" as="geometry"/>
                </mxCell>
                <mxCell id="20" style="edgeStyle=none;html=1;entryX=0;entryY=0.5;entryDx=0;entryDy=0;" parent="1" source="17" target="19" edge="1">
                    <mxGeometry relative="1" as="geometry"/>
                </mxCell>
                <mxCell id="17" value="selecetor de tipo" style="whiteSpace=wrap;html=1;" parent="1" vertex="1">
                    <mxGeometry x="1090" y="860" width="120" height="60" as="geometry"/>
                </mxCell>
                <mxCell id="24" value="" style="edgeStyle=none;html=1;" parent="1" source="19" target="23" edge="1">
                    <mxGeometry relative="1" as="geometry"/>
                </mxCell>
                <mxCell id="19" value="&lt;span style=&quot;color: rgb(209, 213, 219); font-family: Inter, &amp;quot;Helvetica Neue&amp;quot;, Helvetica, Arial, sans-serif; font-size: 16px; text-align: start; background-color: rgb(17, 24, 39);&quot;&gt;Un selector de tipo (o selector de elementos) seleccionará todos los elementos del tipo de elemento dado, y la sintaxis es solo el nombre del elemento:&lt;/span&gt;" style="whiteSpace=wrap;html=1;" parent="1" vertex="1">
                    <mxGeometry x="1330" y="855" width="640" height="70" as="geometry"/>
                </mxCell>
                <mxCell id="21" value="&lt;img alt=&quot;&quot; src=&quot;data:image/png;base64,iVBORw0KGgoAAAANSUhEUgAAAWAAAABcCAYAAABQrm8uAAAJwklEQVR4nO3dbVBU1x0G8EeUhbrMwoKCglCEscJgKVodrS+tQxSUgJWKUq2gdkJDY41jhpCI1aSmlZQ40dTE0TITRY0ExSED1JdonZg4TkxStVsMmqgQXhYRcQF3cdk12g87eytUZV8uHJZ9fp+8y93Dny/PHv977jlDgiMnPwQREfU7D9EFEBG5KwYwEZEgDGAiIkEYwEREgjCAiYgEYQATEQkiPIBfy80SXQIRkRDCA5iIyF0xgImIBGEAExEJwgAmIhKEAUxEJIjLB/Dri1/ErKgpDr9/1fJFKC/ZheL330ZcbLSMlRERPd0wZwdQ+6mwalkK7ho6sb/kKIzGLjnq6lX+0hx8df0/0Opaul0f+eKEzWPExUYjIX4GyipOYs+BI31VKhHRYzk1A54YOx6rlqXgu4Ymueqx2frirZgc+WMkT5qNlxc8h5vtrXaFLwCMCRmNLpMZFzVf91GVRERP5nAAq/1UiP7RWOx8vxR6faecNTmk4bZWdAlERHZxuAWha+vAwdLjctZiF2vLoaalEdUN15A08RcAYPcsmIhIFKd7wKKsL94KwPIlXHXDNenaHiMD1DCb7+OOrl3u8oiIeuWyAWz1+uG/2f2e5PnxWLksFfUNTchas6EPqiIi6p3LL0NzROWx00jLWAPN5aso3PEXhIUGiy6JiNyQWwawVUurDp6ew+Cv9hVdChG5IYdbEN7eXshIT0Jw0AjptVdezIS2+Xa/rgcmInJVDgew0diFwqIyOWshInIrbt2CaGi0PEAyJmS04EqIyB25dQBf0lTjzNkv8LuVS7gXBBH1O5dfhuasPQeOcB8IIhLCrWfAREQiMYCJiARhABMRCcIAJiIShAFMRCQIA5iISBAGMBGRIAxgIiJBGMBERIIwgImIBGEAExEJ4vZ7QTiqYnMwYsK9AAAn/2XA8+/cElzRwJGXk41pU+IAANdv1GHd+i2CKyIamJwK4IjwECxZOAdeCgUAoPz4p7iouSpLYQNdyiYtAEsQU3dbtu4CYAnikQH+gqshGricOhHj5z+biEMfncKN2kZMjB2PxPhpaO/Q40Zto5w1EhENSk6diLG3uFK6rq1rgsl0H74qH1kK6w+71wZi7k+V0nXh0Tbkf6gDAKxIUOHVJWp4KSxt8su1XdKsV46xf5/si50VbXjpV2qolENR32LGc28349tGs/SevJxsTPpJDPYeLEPlsdM2/+68nGwAwMgAf0RGhAEAyipOSttuWmem1tZA8vx4pP0yEdt37sUlTTVWLV+E6VMn4dQn57B44TwoFJ5SKyEsNBivrMvCVxeqkBA/A0rlcBgMnfjr9kJc0lTbVF9YaDA25q5GUGAAgMe3KawnV1/492VpRk002Ljtl3C71wZiapQ3MguaEJFZg4jMGikgZ07wxrpUP+w71YGIzBpkFjQhdOQw7F4baNPY63+t7jZ24dE2ZM5RYUWCSrrHd7gH1qf7Y1tZGzILmuA73ANps+T78Jo2JQ4trXewID0bZRUnkRA/w64N54MCA7Dw2Wfw57d24u97D2FU0Agkz48HACg8FXg2cTY+OFyJBenZuNl8GyuWpto89roXVkKvN2BBejb+kLMZPj5K6UODyJ3IFsDz50zHXUMnqr+plWvIPjNzgjemRnmj5MxdnK0y/t/PM55Rob3zAUo/0wMAzlYZUXLmLqLCFBgX4vnUsceFeGLeFCXOXzFKY+d/qMM1rRnTo7273bvvVAeKPu7A2Soj6lvuIzyo+9hbtu5CWsYau2a/Vtdv1Ekzx4uar9FlMtt19JLJZMYHhytxSVMNTdUV6A33MDJALf38Hyc+kerSXL4KHx8lwkJ774fHxUbDx0eJomLLeYJ19VqcO38BY38Y2u39lcdOIy1jDWe/NKjJsgoiMX4aRgUGYM/BCpc4DTky2PKlofbO90+8p8PwoFs7wF61zU9/b3vnA3xWdU+6tqe94QgvhWe3AO2Nrq0DmqorACwhmbVmAwA8MWR9lD+Av9oXdfVP/zvGhIyG2k+FzRvWdnu9+VarzbURDRZOB3Bi/DRMjB2PQx+dgq6tQ46a+tx1rQlG88On3qNSemBciKcUwj1np7159P5xIZ5QKT2gFZgxXSYzWlp1fTa+3nAPd3TtNt7bie1v7bW5Z0w0WDnVgng0fF1p5cPZKiNa2r7HbxNVj20pnKs2ItB3qNSTtbYsjn9p6HVW/G2jGVfqTJga5Y2ZEywth7RZPvAd7oH9/7TvAyovJxul+3dIvVdHrViaCrP5vjSjBSC1DOJio/GbxcnwUtj3AWMVFxuNhPgZqPmuvtfZLwBoqq7AbL7fa884eX48SvfvwLb8PIfqInIFDs+A1X4qxERFwkuhQMaSJOl1bfNt7C85OuBbESmbtKjYHIwT+WOk16wrFYo+tgTlq0vUyEryA2B52OLRL+neXR0IlXIoACAm3As39o2VHsh4/p1b2L02EPtyLT3XLtMDvHlI99h+c1+JjAhDeYmlf9p8qxVvFLwnBeSBknJszF2Nd7dugslkxrnzFxE7Ybxd46emzEVqylwAwOdfXpJ6tT1XOABAeckuaaVDXb0WbxS8h425q6X6eo4BAA2NTTCbzRgVNAJxsdGcLdOgNCQ4cvLT/y/ex17LzcKfCgpFljDo9FxmJidrwJ47f6FPT5O2/h693sAn6WjQ4qPINOBYH2XmY8w02DGAacDh0jNyFwzgQagvA+zRJWlE5By3fRKOiEg0BjARkSAMYCIiQRjARESCMICJiARhABMRCcIAJiIShAFMRCQIA5iISBAGMBGRIC77KLJ1w5aeWy0SEbkKpwJ4Wdo8jIsIla7Lj3+Ki5qrThdlC+t+B9vy87A8fQE3cCEil+NUAB8sPS79OyI8BAuTZqO9Q9+vp2NoLl9FbIx9m4kTEQ0EsvWAdW13YTI7foglEZG7kS2Aw8NGo8tkhvbmbbmGJCIa1JxqQXh7eyEjPQnBQSMAWHrA/X0WXEurDmq1L88NIyKX41QAG41dKCwqA/C/MA4cocaJ05/LUpwtKo+dBgD88eUXUN/QxCNsiMhlyLYMzWjsQl19EwL8/eQa0iarli/C9KmT8FJePpeiEZFLka0HbD2mvvqbGrmGtJleb2D4EpHLcXgG3LP/C/TvOmAiIlfncAA/2v8lIiL7ufxeELEx49HSekd0GUREdnP5vSAMhk4UFXMmTkSux2UDmHs/EJGrc/kWBBGRq2IAExEJwgAmIhKEAUxEJAgDmIhIkCHBkZMfii6CiMgdcQZMRCQIA5iISBAGMBGRIAxgIiJBGMBERIIwgImIBGEAExEJwgAmIhKEAUxEJAgDmIhIkP8CdzQxkCHSpm8AAAAASUVORK5CYII=&quot;&gt;" style="whiteSpace=wrap;html=1;" parent="1" vertex="1">
                    <mxGeometry x="2090" y="655" width="310" height="90" as="geometry"/>
                </mxCell>
                <mxCell id="23" value="&lt;img alt=&quot;&quot; src=&quot;data:image/png;base64,iVBORw0KGgoAAAANSUhEUgAAArUAAAF7CAYAAADMqnMYAAAgAElEQVR4nOzdf1jUdb7//8cAww9BZFBCJUgxRSRHMDPSNotK08zWo6snV0vP9bHl26/Nvhzd6GxdtZturp9st7avm+da3c2to6unMvNXZVlbuWZKlJpaqCAqIT9UBpgZZL5/4Lxj+CGgwPDO++26vC7n/fM5o388eM7z/cJi653kEQAAAGBiAf4uAAAAALhUhFoAAACYHqEWAAAApkeoBQAAgOkRagEAAGB6hFoAAACYXpC/C7hUQdYgBQdZFWi1KjDAooCAQFksFn+XBQAAcNE8Ho9qz53TOY9H59xuuWrcqnHX+LusLs20oTYgIEDh4eGyBATIXXNObnetXJIslnOEWgAAYGoej0cej0cWWWQJCFS3bsHy1NbK4XCotrbW3+V1SaYcP7BareoeGamaWo/cNbWSLLIEWBQQYCHQAgAA07NYLAoICJAlwCLJIndNrc7VetQ9MlJWq9Xf5XVJpgu1YaFh6hbWTU5XjSQCLAAAuDx4ZJHTVaNu3bopLDTU3+V0OaYKtdZgq6zBVjndNXRkAQDAZcdiscjpqjUyEX5gmlAbGBik8PBwuWrOyRJgmrIBAADalSVActXUKiI8XAGBgf4up8swTToMDQuV0+mWxWKakgEAADqExRKgalcNYwj1mCIhWiwWWa2BdT+aAAAAQLUeKdgazEjmeaZIicEhwXK5zvm7DAAAgC4jwGKR0+1WcEiwv0vpEkwRaoMCg1Tr8XcVAAAAXUutpy4nwSShNiAwUB4PqRYAAKA+j8fDw2LnmSLUBgYEMC8CAADQgMViUSCrQkkySaiVRKgFAABogHz0A9OEWgAAAKA5hFoAAACYHqG2nT01f66/SwAAALjsEGoBAABgeoRaAAAAmB6hFgAAAKZHqAUAAIDpEWoBAABgevyyYBMJDQ3RrOkTlF9wQlu27ej0+4/LSFf6iKFav/kj7ck9cNHXSewXpwm3j9bf/7FZZeVn2rHCxryf2a49+y6p5guZMfUODUyMlyTt2PWVX/5tAAC43BFqG7BFRWrOjLt01lGpV1dvVHW1098loRPMmHqHSkrLLyqQvrZ2s3ENAADgH4TaetLsSbrlxhE6euyEom09/FaHLSpSP//ZHdr47ifKO1Lotzoa2rJtB13ILiY0NET/Pvl2ffTZni71fwUAgM5GqD3PFhWp5EH99fJf1mrMqDS/hdrEfnGa9tPbtCf3QLMh5ftTZZ1ak7d73T2im5wul9a8+Z5PbWn2JCUP6q+S0nKljxgqqfHX8Gn2JE264ybj9dmKSp97eEcbvPtWvPa2ysrPGOMDkozOufdabRmDiIwI12MP/FzdI7r5XL/+fQcmxht/P5RXoNfWblaaPUnDUgbKGmxVT1ukPtv5lW4YOVQlZWe6RCe/utqpL/ce0qxpEy55LAQAADMj1J5XVn7G+BrZX1oKa9XVTjkcVZ1eV1n5GT3/8t+NDnJTvDOlTy9ebnS8d+7ep7LyM0rsF6dbbhyhV9dsVN6RQmOm1ivNnqSUwQP0x1dWG0Fz6t23GqFx7Vvva86MuzRmVJp27t6nW24c0eYAd8PIoVrz5ns6fvKUZk2foJHDhxid5y3bdlxw/OCq+D5av/kjJQ/qr2tTk7X6jfd059jR6tu7V5foju7JPaDTZyo07ae36YpeNrrpAIDLEqsfdBHjMtI1LiNdr67ZaMpu2/GiU/rfDR9Iko7kn5DL7ZYtqrskKX3EUO395rtmA2DyoP764J+7jIfGdu7ep5Bgq/r27iWpLlS/ufFDDRyQoIybRujk9yVt/oy2bNuhvCOFqq52Kr/ghHpGR7Xpve0/eESStPeb71R++myb7t0Z8o4U6s8r31DK4AHM9gIALkt0aruA0NAQJcT3uaRrNPx6/3jRKZ+vx1va7y+hoSEKDw/TpDtu8qnP6XL5HJd3pFCHvstXyuABWvHa251dZodq6d+m/uoKUssrLCRcGavEfnFdoosMAEBnIdR2AdXVTi3/6xtKsye1OBvZ3IjEntwDF+xetrTf31oaJ0izJykhvo++zSvwGU34MWjp36Y1YzH1Z7EZPwAAXI4YP+hC9uQe0KtrNhqjCA3ZoiL12AM/N93XyyWl5UqI76PQ0BDZoiL10wk3K9hqlSRjHOCWG0fIFhXZ5Pm2qEjdcuMI7dqzT1s//JckacyoNJ9jQkNDNPe+yfrVo/cpsV/cJdVoNt5Ay+oUAIDLGZ3a87xP2feN7WVsW/DIvZ3+Nb13NvLnP7tDh/IKusRXyA2/Hp81bUKTqyA0Z/unezRreh8teOReOV0ubdm2QyPShhj7vUHskfunG9u8n3tYaIjmzLjLZ4521559Rj3tFeLq1yj9sPpBS+qvDCH9sIJCZ/0ShtDQEN10Q1qr/y0AAPixsth6J3n8XURLoqKi5HSf83cZrfLU/Ll6evFyf5cBAAAuEyHWQJWXl/u7DL9j/AAAAACmR6gFAACA6RFqAQAAYHqEWgAAAJgeoRYAAACmR6gFAACA6RFqAQAAYHqEWgAAAJgeoRYAAACmR6gFAACA6RFqAQAAYHqEWgAAAJgeoRYAAACmR6gFAACA6RFqAQAAYHpB/i6gK0nsF6dpP71NIcHBkqT1mz/SntwDfq4KAAAALSHUnhcaGqKbbkjTmjffU96RQqXZkzQuI12nz1Qo70ihv8sDAADABRBqz6uudmrl6xuM10fyT8jlqlGPyAg/VgUAAIDWYKYWAAAApkeobcb420bprKNS+w8e8XcpAAAAaAGhtgnjMtLV+4qeWvvW+6qudvq7HAAAALSAUNvAuIx0pdmT9ObGD1VWfsbf5QAAAKAVCLX1eAOtdwUEAAAAmAOrH5xni4pUyuABCgkO1qxpE4ztx4tO6dXVGxlDAAAA6MIIteeVlZ/R8y//3d9lAAAA4CIwfgAAAADTI9QCAADA9Ai1AAAAMD1CLQAAAEyPUAsAAADTI9QCAADA9Ai1AAAAMD1CLQAAAEyPUAsAAADTI9QCAADA9Ai1AAAAMD1CLQAAAEyPUAsAAADTI9Sa1NLRwzVvWJLPtpGx0dp29y1aOnq4n6pqWqo9Wa//5XmtX71Ma199URPHZ7Rpv9ktXZSt9auXaf3qZcrOyrzgsQnxfbX8xWc1Z+YUn+3ez6jh9raaOD5DK5c9p1R7cpP7R8ZG6x/jRisuvJvvexg9XNvuvkUjY6Mv6f4AAHSUIH8X0JXMmHqHBibGG6/Xb/5Ie3IP+LGiriE7K1P9r4rXbxb/SfkFx5vd1pyc3P265z8eU6o9WY8+MLvN+zvS0kXZKi4p1cIlyxptz917QCtWrbvke8x7fKFxTX+79aZ0Hfz2sHJy9/u7FAAA2hWhtp7X1m42/p7YL04/nXCzTp+pUN6Rwk6twxvu1r61RRs2bWv1eTuLSpXx1gcXdU9vB7FhuLscxPT88XQfs7MyFdMz2gjS9aXakxUREa6/vv5Gm68775PdF1VPqj1ZD86dqT8tX0WQBgB0KEJtM8rKz8rldnf6fSeOz9DsGZO1+8u9PoG2u9Wql8Zcq6SoSGNb/iGH8felo4frhj69JEmrDx3V0i9/6DDPG5ak1BibHtr+hc6ef08Nt23cul0LHp2rpYuymwxELZkzc4om33W7JMnlcmvla2+0KZC3ZOmibA1ITGj36xeXlDYKtQnxfRUREW68TrUna8GjcxV+/iv5ou9LfDrU3m6vJKVflypJeuPtd1vd5W14/eY4XW4Vl5Q1u3/pomz1ju2l515Y3uT+CWPHqKLC0ShcTuoXp+wRKcbrU1VO4+8jY6P1u/Rh6ma16lSVU7/48HMVOiolSXHh3fTnm6/TK3u/1frzP/g13JaTu1+Hjxbov/7zgXb/PwEAQH3M1DajX0IfOV1uHT95qtPuOWfmFN0/e5re2fJho47pMyOHqrTKpfS1W5W+dqs+O+Fb17xPdje5XZI+OVmsXiEhSo7ubmxLiAhXTnGZEXJzcvdrwVNLFBERruUvPquE+L6trnvi+AyNzRitV1au0aTpmXpny4f6+c8mNju32VbZWZmKiAjXQ1nPaNL0TO3+cm+7Xt9r6aJsY2bV5XapuKRMCfF99eDcmfpq30FNmp6ph7KekSTNazAmkX5dqmJ6RmvS9Ezt+DxHo64f3qrPsKnrF31f0ui40rLTclRWNnuN5S8+q4iIcC14akmTHdFUe7IGXd1f73+0w2f7yNho/SLlaj3y8S6lr92qRz7epaqaGmO/t/vfcLskFToqdaj8rG6JizW2xUWEqqqmRl8U/xC+Fy5Zpne2fKj7Z0+75JlgAACaQ6itJzQ0RHPvm6yn5s/VpDtu0q49+1Rd7Wz5xHaQnZWpO8fdrFdWrmnU4RsZG60rI8K0JOebi7r2zqJSHSw/q9G9YyTVddOiw4K15tsCn+PyC45r7sNPqKLCoeeezvIJjbFX9NRLS540HnjydiQlyZ4ySF/tO2h04d7f/pkqHFVKsw+5qHrrS7Una+iQQfr0X7uNzuiq1evb7fonThYrIiJcN994vXrH9pI9xffhu1vH3KCI8DBt3LpdUt1n9NbG92Wz9fD5fIq+L9HSl1dKknL3HpTVGqRoW48W73/rmBuM93QxUu3Jeu7pLFVUODT34SeanW9Osw+R212j3K99/w/dc3U/vXfspHYWlV7U/V//9oiujAgzHiwb3TtGn548ZXRzvVasWqdXVq7RneNubvFhOQAALgbjB/VUVzu1/K9184ahoSGaNX2Cruhl05ZtO1o489IkxPdV/6viWz7wEnxQWKQpV8eru9Wqa2NsKq1yNQoe9YWHd9OEsWOMrl/Dr9y9D4pJdTOpAxITtH51x8zjtvS1e3uIje2lr/YdVEzPaA1NSVKwNVjHCk8opqdNFY4qlZadvuD5h48WGJ/Nhk3bOu1r9jT7kBbHFhLi+2rU9cN9fjBoL/tLz6ry3DldG2PTGZdbSVHd9Zdv8i54ztAhg5RqT2bGFgDQrgi1zaiudiq/4IR6Rkd1+L28HVLv+EFMT1u7PHVf3xfFZZqV1E/J0d11S1ysPigsanRMQnxf/Xr+g5Kkh7KeaVMA2vF5Toc9ZBYSbFVMT5vxOtrWQxHhYe1y7eKSMrncLg3oH6/cvQdlTxmkpKv7+xwTER6maFsP4/OI6WlTSLC1Xe7fWvkFx/XgY0832r5i1Tq9v/0z/Xr+g1r+4rNNrkZhv2awrNYg7cnd1+51nXW7lVNcplviYnWyqkpSXdBtyDtz3ZZZYwAA2oLxg2bYoiKVMniA9h883Gn3bO4r2sKKaoUFBenamLpgN29YkvFQWGsVOip1rKJK9vMh/YPC7332ewNtS19jNyV37wENH5bSIevL5uTu18miUz4zqhPGjlGFo0rvb//Mp/7lLz57UevcRkf1UP+r4nWs8IROnCxWctIAY583CE4YO8a4z6jrh+urfQfbpdNYXFKmiPAw2a8ZLKluVjf2ip6Njps4PkNrX32xya/uLzQ2Il14Ga/8CodSY2zqbrUqLrybnhwxVGFBbftZ95OTxQoLCtDtcb218egJY07ba87MKc2O1gAA0F7o1J7nHTfoG/tDWPTHOrUbNm3TscITevSB2Zo4PkMbNm1ToaNSr+z9VtkjUpQ9IkWfnTil1YeOGud4nzjvFRYiSbpBvTR94FWNVkF4/dsj+l36ML195Hij4DFz+iQdPlpwUd1Wb1C5f/Y03T97miTJ4ajUcy8sV07ufp+VEbzHzZ4x2XgavqX98x5fqKWLsvXSkid9rl0/eOcXHNfhowWKvSLVp6vbGlarVRUVp4zQNzZjtDFykF9wXM+9sFwLHp1rjFd8l5ff6s+p4coG3jENb2d7w6ZtsqcMMj67HZ/ntKn2+uY9vlDZWZm6757JxntJtSfLZuvR6AExr//el6eXxlyrd+++RZVut1748qCmXP3DKMy8YUmaPvAq4/W68Tc2WgVhZ1Gp7rm6n27oE6OVB440ev+jrh+u3/7+ZcYNAAAdymLrneTxdxEtiYqKktN9zt9ltMpT8+fq6cVNL6mEjuXtCLJ01A8utG4tAODHIcQaqPLycn+X4Xd0amF63m6o1Wol0DZwOf4yDQDA5YlQC9Pz/ppdAABw+eJBMQAAAJgeoRYAAACmR6gFAACA6RFqAQAAYHqEWgAAAJgeoRYAAACmR6gFAACA6RFqAQAAYHqEWgAAAJgeoRYAAACmR6gFAACA6RFqAQAAYHqEWpNaOnq45g1L8tk2MjZa2+6+RUtHD/dTVU1LtSfr9b88r/Wrl2ntqy9q4viMNu03A+97WP7is0qI73vR58+ZOeWS6pg4PkMrlz2nVHtyk/tHxkbrH+NGKy68m8/2ecOStGPqWE3qF3dJ9wcAwF8ItU1I7BenXz16n+beN1mhoSH+LsfvsrMyG4W1prY1Jyd3v+75j8f05LN/UIWjss370Xq33pSug98eVk7ufn+XAgBApyLUNhAaGqJbx4xU/rEiv9WQak/WymXPtbljubOoVBlvfaB5n+xu8z2zszKVnZXZ5vNQxxvM5z78hPILjnfYfS7UiU21JysiIlwbt25v83WXfnlA6Wu3av2Rwjadl2pP1vIXn222MwwAQGcJ8ncBXc2YUWmSpLyjhRo65OpOv//E8RmaPWOydn+5Vxs2bTO2d7da9dKYa5UUFWlsyz/kMP6+dPRw3dCnlyRp9aGjWvrlAWPfvGFJSo2x6aHtX+is293kto1bt2vBo3O1dFG25j2+sM11z5k5RZPvul2S5HK5tfK1N3zqv1RLF2VrQGLCRV8/OytT6delNnl+qj1ZCx6dq/B6X8nXPyYhvq9+Pf9BxV7RU5JU9H2JfrP4T0Z4rX/t7/LyfT6/VHuyHpw7U5/+a7fuHHezgoOtjc73crrcKi4pa/Y9eD/jN95+t8lO7ISxY1RR4Wi0b1K/OGWPSDFen6pyGn+PC++mP998nXqFhajS7davdnypnUWlPvte2futEXYbbsvJ3a/DRwv0X//5QLv/mwMA0BZ0autJ7BenlMED9P72nXI6XZ1+/zkzp+j+2dP0zpYPtXDJMp99z4wcqtIql9LXblX62q367MQpn/3zPtnd5HZJ+uRksXqFhCg5uruxLSEiXDnFZUbIzcndrwVPLVFERHib50Injs/Q2IzRemXlGk2anql3tnyon/9sYrt177KzMhUREa6Hsp7RpOmZ2v3l3jZdf+L4DFVXuzRpeqZx/t0TbjXe4333TNbJolOaND1Tr6xcI5fLrXe2fGgEtKl336G3Nr6vSdMz9VDWM5KkmdMnGddfuGSZJk3P1I7Pc5q8f0R4mMZmjNZvf/+ynnz2D4oID9OtY27wOaa07LQclc2PXmRnZerOcTfrlZVrtGLVukb7U+3JGnR1f73/0Q6f7SNjo/WLlKv1yMe7lL52qx75eJeqamqM/YWOSk18Z7umbPqnSqp9/88XOip1qPysbomLNbbFRYSqqqZGXxT/EL4XLlmmd7Z8qPtnT7vkmWAAAC4Wobae9BFDtfeb75TXxq9g28OFQsvI2GhdGRGmJTnfXNS1dxaV6mD5WY3uHSOprtsWHRasNd8W+ByXX3Bccx9+QhUVDj33dJZPaIy9oqdeWvKk1q9epvWrlxmdSUmypwzSV/sOGiHw/e2fqcJRpTT7kIuqt75Ue7KGDhmkT/+12+hsrlq9vk3X37Bpm55/6S/G69y9B2W1Bina1kOp9mT1ju2l3L11ne3cr79RWfkZ9Tn/WUnS8y/9xXhv+QXHdfhogWJ6Rrf6PThdbv39HxuUk7tfObn7dbLolM/1W7J0UbaGDhmk3/7+5WY7oWn2IXK7a5T7te//kXuu7qf3jp00uq9t9fq3R3RlRJjxYNno3jH69OQpFTaYfV6xap1eWblGd467mTEWAIBfMH5wXpo9SeHhYfrfDR90+r0T4vuq/1XxHXqPDwqLNOXqeHW3WnVtjE2lVa5GwaS+8PBumjB2jPFVdlNfuXtrjukZrQGJCVq/elmz17sULX0t35KG4wOS5Dj/3kvLTqvCUSV7St1KEvZrBisiPEy5ew8ax3pHQoKDrca27/LyL7qetvCG7gtJiO+rUdcP9wn+7WV/6VlVnjuna2NsOuNyKymqu/7yTd4Fzxk6ZJBS7ck8rAYA6FSE2vOSB/VX39heWvDIvT7bFzxyr9Zv/kh7cg80c+al83ZIveMHMT1tTX7FfCm+KC7TrKR+So7urlviYvVBYeMH4bzhT5IeynqmTQFpx+c5jUYm2ktIsFUxPW3G62hbD0WEh7X6/HkPzJb0w3uaOD5DU+8eJ6nus6+ocPiE8h2f5/jM2/78ZxO1+8u9xvvLzspsU6e2NfILjuvBx55utN37AFp2Vmazc6v2awbLag3Sntx97VqTJJ11u5VTXKZb4mJ1sqpKUl3Qbaj+vG97/98FAKA1CLXnvbZ2s8/rNHuSRqQN0aurN6q62tnMWe1rxap1Ki4p0+wZk9Wnd4wRogorqhUWFKRrY2wqdFRq3rAk3dCnl8+DYi0pdFTqWEWV7NFRkqQPCr/32e8NtBUVjjY/KJa794DuHHezJo7PaPcHhbxf14+6frje3/6Z8guO1z0Q5ajS+9s/a/V1Kiocyi84roT4vrp7wq0KOd91nTg+QzZbDz357B8u2Fk8cbLYOH74sBQVHDtxaW+sgfoPCDb1w8HCJcua/aHnQst45Vc4lBpjU3erVZHBVj05Ymiba/vkZLGSBnfX7XG9tfHoCWMO22vOzCnG6AwPigEA/IVQ28Vs2LRNxwpP6NEHZhshsdBRqVf2fqvsESnKHpGiz06c0upDR41z6j/BLkk3qJemD7yq0SoIr397RL9LH6a3jxxvFExmTp+kw0cLLqrb6g1Y98+epvtnT5NU9/X+cy8sV07ufp+VEbzHzZ4x2eg6trR/3uMLtXRRtl5a8qTPtVvbSX7/ox2aPWOy0Ynd8+V+XZVQ95DYhk3bdOtN6XrmiV/6nOPtPOfk7tdX+w5q8l23a/Jdt8vhqNS3eUcVEhwsqenRhvWrlzVaBaE9eH/omXr3OO3J3aec3P1KtSfLZuvR6AExr//el6eXxlyrd+++RZVut1748qCmXP3DqEvDlRH++JMRjVZB2FlUqnuu7qcb+sRo5YEjPtdPtSdr1PXD9dvfv8y4AQDAryy23kkefxfRkqioKDnd5/xdRqs8NX+unl683N9loJW8owgvvLzSCGUTx2fo5z+bqL//Y0OX7zx6RyHaO0ADAMwjxBqo8vJyf5fhd3RqcVmL6WkzRhG87CmDJEnHCtt3xKAjdNQcMwAAZkOoxWVtxap1sqck+Ywf1B+dAAAA5kCoxWWPr+4BADA/fvkCAAAATI9QCwAAANMj1AIAAMD0CLUAAAAwPUItAAAATI9QCwAAANMj1AIAAMD0CLUAAAAwPUItAAAATI9QCwAAANMj1MIwcXyG1r76opYuyvZ3KRc0Z+YULX/xWSXE9/V3KQAAoIsI8ncBXcm4jHSljxjqs2395o+0J/eAnypqH9lZmep/Vbx+s/hPyi843uw2M0iI76tR1w/Xp//abaq6AQBAxyLUNrBj11fasm2HX2tItSfr0Qdma+1bW7Rh07ZWnZOdlSlJWrhk2UXfd8Omba2+X0fKzspUTM9ozXt8YaN99msGy+V26f3tn7X6eqn2ZD04d6b+tHyVcnL3t2epAACgiyDUdjETx2do9ozJ2v3lXiNgdrda9ftRw7Tx6Andn3K1eoWF6FSVU7/48HMVOiolSRu3bteCR+dq6aLsJsNgS5YuytaAxARJ0o7Pcy4pHF+KpYuy1Tu2l557YXmT+2+9KV2Fx4t8urTzhiVJkhIiwnVDn16SpIW79mr9kUJJUk7ufh0+WqD/+s8HtPK1N7pEcAcAAO2LmdouZM7MKbp/9jS9s+XDRqEyzBqkR4cN0jO7vlL62q06VH5WWamDjf05ufu14KkliogIv6h503mPL9Sk6Zn6Li+/Xd5LWyXE99XyF59VRES4Fjy1pMmO6sTxGbLZemjj1u2N9k0feJXyKxxKX7tVC3ft1f0pVysuvJuxf+GSZXpny4e6f/Y0zZk5pUPfCwAA6Hx0ahtIHzHUmKs9lFeg19Zu7pT7ZmdlaviwFL2yck2zncQXvjyonUWlkqQPCos05ep4dbdaddbtliTlFxzX3Ief0NJF2Xru6Sw998JyIxzGXtFTLy150ud6Rd+XdOA7ar1Ue7IWPDpXJ4tOXbDLbE8ZpLKy000G3s9OnNLSL+tmn78oLlNVTY3iIkKNTrYkrVi1TsUlZZo9Y7L69I7xWzcaAAC0P0JtPVu27TDmaUNDQzRr+gTNmHpHhwfbhPi+6n9VfJvP6xkSosjgH0JtfeHh3TRh7BgjABZ9X9Lkg2JdQZp9iMLrdVWbkmpP1qCr+2vtW1tadc2woCD1Dgtrdv/QIYOUak9mxhYAgB8Jxg+aUV3tVH7BiU65l7fD2tavx0ucTp1x/RBo63+F/1DWM6bpRK5YtU4PZT1zwdGJNPsQud01yv36m1Zds6qmRierqny21R/vuOc/HiPQAgDwI0KobUZivzil2ZO0/+DhTrvnilXr9MrKNbpz3M3GagZNiQvvpvtTrlZOcZnRpU2I76tfz39QFRUOzX34iQ5Z7mrpomytX72s2dB9Kfu9wb6iwqHnns5Sqj3Z2NfWZbyyUger8tw57S89a2ybM3OK7hx3s15ZuUYrVq1r8RoAAMBcGD84zztu0De27ul5p8ulNW++p7zzT9B3lg2btulY4Qk9+sBsTRyf4TNfmz0iRdkjUiRJqw8dNWZIJWnm9Ek6fLTgorqz3plW7wjAgMQErV+9zC+rIMx7fKGyszJ13z2TjU6q/ZrBslqDtCd3X7Pn3dCnl3ZMHStJOlB+Rg9t/8II/Kn2ZI26frh++/uX6c4CAPAjZbH1TvL4u4iWREVFyek+5+8yWuWp+XP19OKml6O6WN2tVr005pgHe1QAACAASURBVFqt+7bAWKbqcrJ0UbaKS0qbDdjzhiUpISJc8z7Z3cmVAQDgfyHWQJWXl/u7DL+jU4su72LW3QUAAJcXZmoBAABgenRqTeCs26373vPvr+7tyurPFgMAgMsTnVoAAACYHqEWAAAApkeoBQAAgOkRagEAAGB6hFoAAACYHqEWAAAApkeoBQAAgOkRagEAAGB6hFoAAACYHqEWAAAApkeoBQAAgOkRak1q6ejhmjcsyWfbyNhobbv7Fi0dPbxTa5kzc4pe/8vzSrUnd+p9Wys7K1NLF2X7u4xWSYjvq+UvPqs5M6c0ub+71aq/3pauSf3ifLbPG5akHVPHNtoOAMDlIsjfBXQ1tqhIzZlxl7pHdJMkrd/8kfbkHvBzVf6Xak/WgkfnKjy87nP5Li9f8x5f6OeqfnxuHXODJOn97Z/5uRIAAMyFUFtPYr84TfvpbdqybYdfg2yqPVmPPjBba9/aog2btrX6vJ1Fpcp464OLumd2VqYkaeGSZU3Ws+DRudq67ROtWLXOeJ2dldnk8WjexPEZmnr3OL3w8krl5O5vtN+ekqRP/7Vb+QXH23TdpV8e0NIv2/5/NiG+rxbMm6tN737cpv9rAAB0NYTaetJHDPV7oJ04PkOzZ0zW7i/3+oSM7larXhpzrZKiIo1t+Yccxt+Xjh6uG/r0kiStPnTUJ+DMG5ak1BibHtr+hc663U1u27h1uxY8OldLF2U36sBOGDtGJ4tOacWqdZKknNz92rrtE426frgS4vs2eg/ZWZlKvy5VOz7PMULvnJlTNPmu241j3nj7Xa1YtU4J8X316/kP6vDRAuPYpra1h6WLsjUgMcHn/nNmTtHYjNF67oXlRshsuM1bT+wVPSVdfJfa+xm88fa7TQbaieMzZLP10J7cfT7b48K76c83X6deYSGNzqm/r9Lt1q92fKmdRaWSfvg/k1NcZvx/aLgtv+C4du3+WvfPnqaYnjbj3xgAALNhpvY8W1Skom2Riu8bq6fmz9VT8+fqsQd+Llu9ENnR5sycovtnT9M7Wz5sFOaeGTlUpVUupa/dqvS1W/XZiVM+++d9srvJ7ZL0ycli9QoJUXJ0d2NbQkS4corLjJCbk7tfC55aooiIcC1/8VmfsBrTM1rFJaU+1ywuKVNEeJjs1wz22Z6dlamhQwbpyWf/YLyHVHuy+l11pSZNz9Sk6Zl64+13NTZjtFLtycovOK7DRwvU/6p44572awYrIjxMuXsPtvUjbNaAxAQVl5Q2ur83QKbZhxjH2lOSdLLolBE85z0wWxUVDk2anqmHsp5RRES40dlureysTN057ma9snJNs8Hx1pvSdfDbwz6Bt7vVqoU32PX+sZNKX7tVt7/1gQ6UnzH2FzoqNfGd7Zqy6Z8qqXb5XO+s262c4jKlxtjU3WqVJEUGW9UtMFCfnCw2jluxap1eWblGd467uc3vCwCAroJQe54tqrsiwsMUEdFNTy9erqcXL9fJ70s09e5bFRrauEPW3i4UekbGRuvKiDAtyfnmoq69s6hUB8vPanTvGEl13b3osGCt+bbA57j8guOa+/ATqqhw6Lmns5RqT1ZCfF9FRITrRL0QJEnHCk/I6XL7bPv3KXdq6JBBPl1PqS4wP/XsH4zXe3L3yely68q4PpKkjVu3y2oNMgKyPWWQThadatevw7/LyzdCdv0gm5O7X1/tOyh7St1Dd6n2ZNlsPfT+RzuM1xER4frr628Yn9Gn/9rtE8JbsnRRtoYOGaTf/v7lZt+T974Ng/wtcVdIkv57X14b33GdNd8WqFtgoPEDzbUxNh2rqDK6uV4bNm3Tb3//soYOGWSah+oAAKiP8YN6KhxV2vTep8brHbu+0oTbRyssNETV1c4Ou29CfF/1vyq+w64vSR8UFmnK1fHqbrXq2hibSqtcKnRUNnt8eHg3TRg7RguXLFNFhUN9zgdiL28gPVZ4QjE9bQoP76Yhg6/Wd3n5TX61Xv+rf0ly1QvEObn7VVZ2WvaUQcr9+hvF9Y3Vpnc/vtS33KzSstOqcFQZr3P3HtTUu8cp1Z6sNPsQlZWdNsLnlXF9ZIuK1DNP/NLnGkXfl7TqXqn2ZPWO7dXicRPGjvG5b3spdFTqWEWVRveO0c6iUt0SF6sPCosueE78lX00cXwGM7YAAFMh1J5XVn5WUl3Htqze17udwdsh9Y4fdMRs4xfFZZqV1E/J0d2bDTbe2VFJeijrGeNhpeKSUsX0jPY5NqanTW53jUrLTkuSHI5KrVrztmZOu6vRA2TZWZnqHdtLTz77B+Xk7jcehKsvd+8Bjbp+uG4YmVb3+uuL60q3RrSth6zWIBWXlBn3unvCrUqzD5E9JUm5e31nqisclXrh900/2NWSnNz9uuc/HlN2Vqb+6z8f0MrX3mgUFr0/1Hz6r90X/6YuwPsDzeCoSEWHBeuL4rJGx9Sf5ebhPwCAGTF+cF5Z+RmVlp1R+oihxrb0EUNVWnam00Juc7ONhRXVCgsK0rUxNkl1D3l5HwprLW/Hzh4dJUn6oPB7n/3eQFtR4dDch5/wefo+d+9BxV/Zx1g7NdWerLEZoxs9pV94/KT+/o8NGj4spdE6qxWOKiMA33fPZEWcXxrMy7uE1fjbb9Ku3V83evrfu37r2ldf1MTxGW167w1NGDtGbneNEZy9IwVjM0YrOMTqs5xW7tffyO2u0X33TL7gNSeOz9DaV19sNI/stXDJMr2z5UPdP3tao8/mQst4nayq8pmHfmbkUJ+HBVvDG2Jv7NNLOcVljTr03kDb1Cw3AABmQae2nv/d8IFmTZ+gp+bPlSQdyivQa2s3d2oNGzZt07HCE3r0gdnGV8CFjkq9svdbZY9IUfaIFH124pRWHzpqnNPw6fgb1EvTB17VaBWE1789ot+lD9PbR44bD4h5zZw+qdnVBrydxdkzJhsrGHhXD2jq2JieNk2+63bZU5I07/GFxsoKLy15UpK075tvVdEgWHkfGBs6ZFCjp//r74+9IlUxPW2t+izrG5CYoPWr695b0fcl+s3iP/kE5z25+zQ2Y7QKjxf5bM8vOK7fLP6Tfj3/QeN8ST4rO7TWilXrVFxSpql3j9Oe3H1G59eekqTDRwuaXMZrZ1Gp3jt2Un/8yQhJdStb6MQP+yf1i1P2iBTj9R9/MqLRKgiFjkrlFJdpxqCr9KsdX/pcPyG+r8bf/pMmO8gAAJiJxdY7yePvIloSFRUlp/ucv8tolafmz9XTi5f7uwxTys7KVEzP6GaXy5ozc4ruHHdzhwSwi10b+FK1tG4tAAAtCbEGqry83N9l+B2dWnQJE8dnaOiQQfr7PzY02uf9ZQ9Wq7XDOor33TO5Qx7UasmGTdvokAIA0A4ItfAr7zxncLBVb7z9bpMBz/uwVUfwrsrgHUkAAADmRKiFX/m7U3kxvxkMAAB0Pax+AAAAANMj1AIAAMD0CLUAAAAwPUItAAAATI91agEAAEyMdWrr0KkFAACA6RFqAQAAYHqEWgAAAJieKUJtradWntouP/oLAADQqWpra1XrqfV3GV2CKUKtp9YjWQi1AAAA9VksdcEWJgm1brdbARaLv8sAAADoUgIsFtW4a/xdRpdgilDrcrkUGGiKUgEAADpNYGCAnC6Xv8voEkyRFGtra40/AAAA+CEfechHkkwSaiWp0uFQqDVIHg+ztQAA4PJW6/EoLCRQlQ6Hv0vpMkwTaj0ejyqrKxVsDaJjCwAALlu1tbUKDQqUo7KKZl89pgm1kuR2ueV2ORUWTMcWAABcfjwej0KtQXK6nHK73P4up0sxVaiVpKqqKjkqKxUSHCSLhzlbAADw41dbWyuLPAoJDlJlVaWqq6v9XVKXY7pQK9Ut8XXm9GlZ5FF4WIgCAyzyyFM3LE0HFwAAmJzHcz7XyKPAAIvCw0JkUa3OnD4tt5sObVMstt5Jpk+BISEhCg4JVqAlQAGBgbKwpi0AADAxj8ej2nPndK62Vi6XS06n098ldXlB/i6gPTidTv6xAQAALmOmHD8AAAAA6iPUAgAAwPQItQAAADA9Qi0AAABMj1ALAAAA0yPUAgAAwPQItQAAADA9Qi0AAABMj1ALAAAA0yPUAgAAwPQItQAAADA9Qi0AAABMj1ALAAAA0yPUAgAAwPQItQAAADA9Qi0AAABMj1ALAAAA0yPUAgAAwPQItQAAADA9Qi0AAABMj1ALAAAA0yPUAgAAwPSC/F3ApQqyBik4yKpAq1WBARYFBATKYrH4uywAAICL5vF4VHvunM55PDrndstV41aNu8bfZXVppg21AQEBCg8PlyUgQO6ac3K7a+WSZLGcI9QCAABT83g88ng8ssgiS0CgunULlqe2Vg6HQ7W1tf4ur0sy5fiB1WpV98hI1dR65K6plWSRJcCigAALgRYAAJiexWJRQECALAEWSRa5a2p1rtaj7pGRslqt/i6vSzJdqA0LDVO3sG5yumokEWABAMDlwSOLnK4adevWTWGhof4up8sxVai1BltlDbbK6a6hIwsAAC47FotFTletkYnwA9OE2sDAIIWHh8tVc06WANOUDQAA0K4sAZKrplYR4eEKCAz0dzldhmnSYWhYqJxOtywW05QMAADQISyWAFW7ahhDqMcUCdFischqDaz70QQAAACq9UjB1mBGMs8zRUoMDgmWy3XO32UAAAB0GQEWi5xut4JDgv1dSpdgilAbFBikWo+/qwAAAOhaaj11OQkmCbUBgYHyeEi1AAAA9Xk8Hh4WO88UoTYwIIB5EQAAgAYsFosCWRVKkklCrSRCLQAAQAPkox+YJtQCAAAAzSHUAgAAwPQItQAAADA9Qm07e2r+XH+XAAAAcNkh1AIAAMD0CLUAAAAwPUItAAAATI9QCwAAANMj1AIAAMD0CLVd1Iypd2hcRnqj7VMmZSixX5wfKmqeLSpSjz3wcz01f65+9eh9Xa6+zhAaGqIZU++QLSqyxePm3jdZafakTqoMAIDLA6G2AW9Am3vfZIWGhvilhsR+cYq2RWrn7n3GthlT71CaPUmnTpX7vG4vlxK2ysrP6PmX/64/vrJaFY6qdqvJDEJDQzT7nonq27uXzp51KDQkWLPvmdhssE8e1E+StP/gkc4sEwCAH70gfxfQlaTZk3TLjSN09NgJRdt6+K2OgYnxOvRdvsrKzxjbXlu7WTOm3qGBifGSpB27vtKe3AP+KhHnVVc79T9vvKtZ0yeob2wvDR82WOs3f6S8I4VNHp88qL927dmn6mpnJ1cKAMCPG6H2PFtUpJIH9dfLf1mrMaPS/BZqbVGRGjggQRvf/eSCx31/qqzN150z4y51j+gmSTpedEqvrt6o6mqnT1iedMdNmnTHTZLqgvP2T/do1vQJyi84oS3bdkiq60423NaSNHuScV2ny6U1b77nE/zGZaQrfcRQ4/X6zR+1KbRf6P156+0b20uSdLaiUitee9v4oaGl/W3hdLl0+kxFk/u8Hfgj+SfafF0AAHBhhNrzysrP6LW1m/1dhkYOH6LSsjONOn0zpt6h/QcPq/D49yo4XmQEwNYGv/G3jdLeb75rMoS+tnazEex27dnX6Jr5BSeUEN9HoaEhqq52qm/vXuoe3k2H8gpade/EfnG65cYRenXNRuUdKVSaPUk/nXCzERwT+8Vp4IAE/fGV1RcVJL2Btrn3N2ZUmhyOKj29eHmT57e0/0JCQ0P075Nv1/vbdyolKVG7cvYbs9AN/w3TRwxt1IEHAADtg5naLiQ0NEQJ8X20/+DhRvteW7tZe3IPqFevKJ/XbeENpm21c/c+hQRb1bd3XSdzYGK8Tn5f0uxX7A0NTIzX3m++M47ff/CIzjoq1S+hj3FMRHiYz+u2GDl8iM46KrX90z3NHtP7ip4XfIirpf3Nqa52auXrG3T85Cl17x6uaqdLK1/f0OizsUVFKtoW2eofBAAAQNvQqe1CWvMQ0br12y7q2v+74QPNmj5BCx65V1Lbvt4vKz+j0rIzGpgYr+MnT6lPbC999FnzAbKhntFRGpgY7zNeUF/ekUJt2bbDGH2oPzrQ2us7HFXNHr9l2w71jI7SI/dPl1Q3VlG/o9vS/taornZesNPfXAceAAC0D0JtF5I8qL/yC050yENE1dVOLf/rG5LqxgGm/fQ2Sa0fX9h/8LBGpA1RYkKRJOn4yVNtun9LQXFP7gGjlhlT79Cs6RNaHWxLSsvVMzrqgsd4A6d3VEGSTz0t7b8U3g78rj37Wj4YAABcFMYPuoimlvHqKGXlZ+Vy1fhsq652yuGoUvKg/k2e4+0eZ4y5Tl/uPdSm4L3/4GGl2ZNavX5tSWl5o23eJceaWgf3UF6BEq6MbdVyZFXVTp11VF70/ovBMl4AAHQ8OrXnNXwCXpIWPHJvm78Kv1gDE+NVWnamQx4iargygNT0kmCb3vtUc2bcpafmzzWO8XYrq6udyi84oZTBAxo9vV9/ZQNJmjVtgs8KB977zJo2wTim/goDDVc+8O5r7Weed6RQa958T9N+eptRh/ffTVKjf9dDeQWNVnJobn976MgOPAAAqGOx9U7y+LuIlkRFRcnpPufvMlrlqflz2/wUvS0qUj//2R3a+O4nXXrmclxGunpGR3WJVSLMIrFfnCbcPlp//8dmVj0AAHSIEGugyssbf8t5uaFT2wWUlZ/RS8vX+LuMC0rsF6eUwQP05sYP/V2KqeQdKezy/7YAAPwYEGpxQd6HykKCgy/4m7IAAAD8iVCLC8o7UqjfvfBXf5cBAABwQax+AAAAANMj1AIAAMD0CLUAAAAwPUItAAAATI9QCwAAANMj1AIAAMD0CLUAAAAwPUItAAAATI9QCwAAANMj1AIAAMD0CLUAAAAwvSB/F9CVJPaL07Sf3qaQ4GBJ0vrNH2lP7gE/VwUAAICWEGrPCw0N0U03pGnNm+8p70ih0uxJGpeRrtNnKpR3pNDf5QEAAOACCLXnVVc7tfL1DcbrI/kn5HLVqEdkhB+rAgAAQGswUwsAAADTI9Q2Y/xto3TWUan9B4/4uxQAAAC0gFDbhHEZ6ep9RU+tfet9VVc7/V0OAAAAWkCobWBcRrrS7El6c+OHKis/4+9yAAAA0AqE2nq8gda7AgIAAADMgdUPzrNFRSpl8ACFBAdr1rQJxvbjRaf06uqNjCEAAAB0YYTa88rKz+j5l//u7zIAAABwERg/AAAAgOkRagEAAGB6hFoAAACYHqEWAAAApkeoBQAAgOkRagEAAGB6hFoAAACYHqEWAAAApkeoBQAAgOkRagEAAGB6hFoAAACYHqEWAAAApkeoBQAAgOkRagEAAGB6hNouatE9WfrlhDk+2/rHJOjVh/6vXv4/T8sW0aND7jtn5hStX71Mr//leaXakzvkHgAAAO0tyN8FdCUzpt6hgYnxxuv1mz/SntwDfqyoc6XakzU2Y7TeePtdrVi1zt/lAAAAtBqhtp7X1m42/p7YL04/nXCzTp+pUN6RQj9W9YPDxfma9dL/22HXvzKuj5wut/bk7uuwewAAAHQEQm0zysrPyuV2d9r9bBE99Oy/P6Yro3sb206eLjH+/ssJc3TrNemSpL0Fh/T460t89iX17acn/ud5lVWcbnYbAADAjxUztc3ol1DXtTx+8lSn3G/+XXN12nFWkxb/QpMW/0J7Cw757P/DxhWatPgXev/rHY3O3Z33tSLDInTNlYOMbb179NSB40cItAAA4LJAp7ae0NAQzZo+QX1je0mqm6mtrnZ2+H1/Mvg6XdGjp3677v+7qPM//uZzTUgbo+GJ1+jjbz5X/5gE9QjvrlfeW9Om68T0tMntrlFpGUEYAACYC6G2nupqp5b/9Q1JPwTcK3rZtGVb4+5oV7Pru690q32UbBE9NLx/sk47zupwcX6rzp04PkOzZ0xWwbETmvvwEx1cKQAAQPtj/KAZ1dVO5RecUM/oKH+X0iq7D+9XSFCwrrlykEYMGKpd333V6nM3bNqmqbMeVu7eA1r+4rNKiO/bgZUCAAC0P0JtM2xRkUoZPED7Dx7u8HsdKylScFCwhvevWxf2lxPmKCV+YJuucbg4X9+fLlHylVdLkrbta3t3ubikTFZrkKJtHbMGLgAAQEdh/OC8hvO0UuetU3u4OF9v7tyq+27+N913879pb8EhnwfCmloZYf38PzdaBWHjnu16ePwsfXJgDw+IAQCAywqh9rz687T+sG7nFq3buaXJfWUVp/XAfz/V4jU+/uZzffzN5+1dGgAAQJfH+AEMxwpPSKr7JQwAAABmQqiFISd3v7b/c6funz1Nr//leaXak/1dEgAAQKswfgAfK1at04pV6/xdBgAAQJvQqQUAAIDpEWoBAABgeoRaAAAAmB6hFgAAAKZHqAUAAIDpEWoBAABgeoRaAAAAmB6hFgAAAKZHqAUAAIDpEWoBAABgeoRaSJLefqav8v7WX3l/668///IKf5fTJtlZmVq6KLvF45YuytbaV1/UxPEZnVAVAADoTEH+LqArSuwXp2k/vU0lZWf06uqNqq52+rukDnfXk8cl1YXby9HSRdkqLinVwiXL/F0KAAC4CITaBkJDQ3TrmJHKP1ak8PAwf5eDdjTv8YX+LgEAAHQQQm0DY0alSZLyjhZq6JCr/VxN2/z5l1fo9mvDjdfLN5Zr0f+USZLuGxupX02zKSS4buJk7xGn0Z1tj2v/PxN76OW3y/XYv9kUGR6ogmK3/s/zRTpU6DbOyc7K1PBhKVr52hvasGlbq+47Z+YUjbp+uH6z+E/KL/ih3uysTMX0jPYJqksXZWtAYoIk6Y2339WKVeskSRPHZ2j2jMkKDrbK4ajUcy8sV07ufuM66delSpIGJCZo/eq6Tu13efnGtRPi++rX8x9U7BU9G+3zSrUna8Gjc3Wy6BThGQAAP2Cmtp7EfnFKGTxA72/fKafT5e9y2uTPv7xC1w8O1b2LTyjx3sNKvPewETpvvCZU8yZH6W/vnVHivYd17+ITio8JavXs7OP/bvO59vKN5br3tkjdNzbSOKZHtwA9Pj1aS98o172LT6hHtwBN/UnEJb+v4pIyWa1Birb1uOBxAxITVFxSqknTM7Xj8xyNun64EuLrRik2bNqmqbMe1isr18jpcvuct3DJMk2anqnv8vK14/McTZqeqUnTM32C6bwHZquiwqFJ0zP1UNYziogIV3ZW5iW/NwAA0H7o1NaTPmKo9n7znfKOFCrNnuTvclrtxmtCdf3gUK3eflb//Lq60f5Zt0bqdGWt1n5cIUn659fVWr39rO64LlwD46w+3dSGBsZZdcd14frXN9XGtRf9T5lGDQnTqORQ/XXrGePYv713xnhdUFyjfrFWn2tdzLzqscITcrtrJPl2bWN6Rqu4pNQ47ru8fOP6uXsPatDV/RVt6+HT3b0YqfZkRUSE60/LV0mS8guO69N/7TZCs/f6Obn7dc9/PHZJ9wIAABePUHtemj1J4eFh+t8NH/i7lDYb0DdYknS89Fyzx5xx1F4wvLbkSNGFzz1dWauPv64yXrdltOFCSstOy+V26cq4Pup31ZWqqHAYXdsTJ4vb5R4XcmVcH9miIvXME7/02V70fUmH3xsAALQeofa85EH91Te2lxY8cq/P9gWP3Kv1mz/SntwDfqqsZd8dd6na7bngMZHhAT5d2YZd1JbUP35gnFWR4QE63gm5Lr/guFxOtwYN6KfIiHAd+u6IRo1MU3CIVcUlZR1fgKQKR6Ve+P1KYw4XAAB0PczUnvfa2s16evFy48/6zR/peNEpPffHv3XpQCvVjRMUl5/Tf4yL1MC4xmH10/3VuqJHoDHj6h1X2Py5o8Xu7aFCt77Jd+n6waG68ZpQSdLUn0SoR7cAvfr+mQue21B2VuZFrxPbI7K7CgpPKr/wpFKGDFSwNVjHCk+0+TrNKS4pVf+r4o05XK/cr7+R212j++6ZfMHzU+3Jev0vz2v5i882ugYAAOh4dGp/JO568rjefqavtiy60tjmXaHAO+f6q2k2zZ0QJUl69wuHz4NkLz14hSLDAyVJKf1ClPe3/nr3C4d+8Yfv9Ys/fK8///IK/W1+H0mS01Wr360pa3J+tyMUl5Qaqybkfv2N7p5wq6S60YTWqL/CgSQ988QvG62CsGr1ev16/oN6acmTkn5Y4SC/4Lh+s/hP+vX8B42VESRpx+c5PjPCpWWnVeGoki0qUvZrBl/yLC8AAGgbi6130oW/t+4CoqKi5HQ3Py/alTw1f66eXrzc32XAD5YuylZERHij5ccAAOhIIdZAlZeX+7sMv6NTC1yiOTOnaPJdt6vo+xICLQAAfkKoBS7RilXrjF/0AAAA/IMHxQAAAGB6hFoAAACYHqEWAAAApkeoBQAAgOkRagEAAGB6hFoAAACYHqEWAAAApkeoBQAAgOkRagEAAGB6hFoAAACYHqEWAAAApkeoBQAAgOkF+buArmRcRrrSRwz12bZ+80fak3ugw++dnZWp9OtSVfR9iX6z+E/KLzje4fcEAAD4sSDUNrBj11fasm1Hp9934ZJlkqSli7I1c/ok4zUAAABaxvhBF5O794Biekb7uwwAAABTIdQCAADA9Bg/aCB9xFBjrvZQXoFeW7vZzxUBAACgJYTaerZs22HM04aGhmjW9AmaMfWOTg22xSVlstl6KNWerJzc/Z12XwAAADMj1Dajutqp/IIT6hkd1an33bBpmyTpv/7zARUcO6F5jy/s1PsDAACYEaG2GYn94pRmT+r0lRDmzJyiUdcP12PZi1jWCwAAoJUIted5xw36xvaSJDldLq158z3lHSns9FoqKhwEWgAAgDYg1J5XXe3U8r++4e8yAAAAcBFY0gsAAACmR6jtYuwpSSouKfV3GQAAAKbC+EEXkZ2VqfTrUuVwVOqvrzMGAQAA0BaE2i5i4ZJl/i4BAADAtBg/AAAAgOkRagEAAGB6hFoAAACYHqEWAAAApmex9U7y+LuIlkRFRcnpPufvMgAAZoCo1gAAAgtJREFUALqcEGugysvL/V2G39GpBQAAgOkRagEAAGB6hFoAAACYnilCba2nVp7aLj/6CwAA0Klqa2tV66n1dxldgilCrafWI1kItQAAAPVZLHXBFiYJtW63WwEWi7/LAAAA6FICLBbVuGv8XUaXYIpQ63K5FBhoilIBAAA6TWBggJwul7/L6BJMkRRra2uNPwAAAPghH3nIR5JMEmolqdLhUKg1SB4Ps7UAAODyVuvxKCwkUJUOh79L6TJME2o9Ho8qqysVbA2iYwsAAC5btbW1Cg0KlKOyimZfPaYJtZLkdrnldjkVFkzHFgAAXH48Ho9CrUFyupxyu9z+LqdLMVWolaSqqio5KisVEhwki4c5WwAA8ONXW1srizwKCQ5SZVWlqqur/V1Sl2O6UCvVLfF15vRpWeRReFiIAgMs8shTNyxNBxcAAJicx3M+18ijwACLwsNCZFGtzpw+LbebDm1TLLbeSaZPgSEhIQoOCVagJUABgYGysKYtAAAwMY/Ho9pz53SutlYul0tOp9PfJXV5Qf4uoD04nc7/v107pgEAgGEYxp/13lGIalPok6PGBgAYlrwfAADAJ2oBAMgTtQAA5IlaAADyRC0AAHmiFgCAPFELAECeqAUAIE/UAgCQJ2oBAMgTtQAA5IlaAADyRC0AAHmiFgCAPFELAECeqAUAIE/UAgCQJ2oBAMg7E9fQaAD9X8wAAAAASUVORK5CYII=&quot;&gt;" style="whiteSpace=wrap;html=1;" parent="1" vertex="1">
                    <mxGeometry x="2089" y="800" width="410" height="180" as="geometry"/>
                </mxCell>
                <mxCell id="29" style="edgeStyle=none;html=1;entryX=0;entryY=0.5;entryDx=0;entryDy=0;" parent="1" source="26" target="28" edge="1">
                    <mxGeometry relative="1" as="geometry"/>
                </mxCell>
                <mxCell id="26" value="&lt;h4 style=&quot;border: 0px solid rgb(229, 231, 235); box-sizing: border-box; --tw-border-spacing-x: 0; --tw-border-spacing-y: 0; --tw-translate-x: 0; --tw-translate-y: 0; --tw-rotate: 0; --tw-skew-x: 0; --tw-skew-y: 0; --tw-scale-x: 1; --tw-scale-y: 1; --tw-pan-x: ; --tw-pan-y: ; --tw-pinch-zoom: ; --tw-scroll-snap-strictness: proximity; --tw-gradient-from-position: ; --tw-gradient-via-position: ; --tw-gradient-to-position: ; --tw-ordinal: ; --tw-slashed-zero: ; --tw-numeric-figure: ; --tw-numeric-spacing: ; --tw-numeric-fraction: ; --tw-ring-inset: ; --tw-ring-offset-width: 0px; --tw-ring-offset-color: #fff; --tw-ring-color: rgba(59,130,246,.5); --tw-ring-offset-shadow: 0 0 #0000; --tw-ring-shadow: 0 0 #0000; --tw-shadow: 0 0 #0000; --tw-shadow-colored: 0 0 #0000; --tw-blur: ; --tw-brightness: ; --tw-contrast: ; --tw-grayscale: ; --tw-hue-rotate: ; --tw-invert: ; --tw-saturate: ; --tw-sepia: ; --tw-drop-shadow: ; --tw-backdrop-blur: ; --tw-backdrop-brightness: ; --tw-backdrop-contrast: ; --tw-backdrop-grayscale: ; --tw-backdrop-hue-rotate: ; --tw-backdrop-invert: ; --tw-backdrop-opacity: ; --tw-backdrop-saturate: ; --tw-backdrop-sepia: ; font-size: 16px; margin: 1.5em 0px 0.5em; color: var(--tw-prose-headings); line-height: 1.5; font-family: Inter, &amp;quot;Helvetica Neue&amp;quot;, Helvetica, Arial, sans-serif; text-align: start; background-color: rgb(17, 24, 39);&quot; id=&quot;class-selectors&quot;&gt;&lt;font style=&quot;border: 0px solid rgb(229, 231, 235); box-sizing: border-box; --tw-border-spacing-x: 0; --tw-border-spacing-y: 0; --tw-translate-x: 0; --tw-translate-y: 0; --tw-rotate: 0; --tw-skew-x: 0; --tw-skew-y: 0; --tw-scale-x: 1; --tw-scale-y: 1; --tw-pan-x: ; --tw-pan-y: ; --tw-pinch-zoom: ; --tw-scroll-snap-strictness: proximity; --tw-gradient-from-position: ; --tw-gradient-via-position: ; --tw-gradient-to-position: ; --tw-ordinal: ; --tw-slashed-zero: ; --tw-numeric-figure: ; --tw-numeric-spacing: ; --tw-numeric-fraction: ; --tw-ring-inset: ; --tw-ring-offset-width: 0px; --tw-ring-offset-color: #fff; --tw-ring-color: rgba(59,130,246,.5); --tw-ring-offset-shadow: 0 0 #0000; --tw-ring-shadow: 0 0 #0000; --tw-shadow: 0 0 #0000; --tw-shadow-colored: 0 0 #0000; --tw-blur: ; --tw-brightness: ; --tw-contrast: ; --tw-grayscale: ; --tw-hue-rotate: ; --tw-invert: ; --tw-saturate: ; --tw-sepia: ; --tw-drop-shadow: ; --tw-backdrop-blur: ; --tw-backdrop-brightness: ; --tw-backdrop-contrast: ; --tw-backdrop-grayscale: ; --tw-backdrop-hue-rotate: ; --tw-backdrop-invert: ; --tw-backdrop-opacity: ; --tw-backdrop-saturate: ; --tw-backdrop-sepia: ; vertical-align: inherit;&quot;&gt;Selectores de clase&lt;/font&gt;&lt;/h4&gt;" style="whiteSpace=wrap;html=1;" parent="1" vertex="1">
                    <mxGeometry x="1080" y="1105" width="120" height="60" as="geometry"/>
                </mxCell>
                <mxCell id="33" value="" style="edgeStyle=none;html=1;" parent="1" source="28" target="32" edge="1">
                    <mxGeometry relative="1" as="geometry"/>
                </mxCell>
                <mxCell id="28" value="&lt;font style=&quot;border: 0px solid rgb(229, 231, 235); box-sizing: border-box; --tw-border-spacing-x: 0; --tw-border-spacing-y: 0; --tw-translate-x: 0; --tw-translate-y: 0; --tw-rotate: 0; --tw-skew-x: 0; --tw-skew-y: 0; --tw-scale-x: 1; --tw-scale-y: 1; --tw-pan-x: ; --tw-pan-y: ; --tw-pinch-zoom: ; --tw-scroll-snap-strictness: proximity; --tw-gradient-from-position: ; --tw-gradient-via-position: ; --tw-gradient-to-position: ; --tw-ordinal: ; --tw-slashed-zero: ; --tw-numeric-figure: ; --tw-numeric-spacing: ; --tw-numeric-fraction: ; --tw-ring-inset: ; --tw-ring-offset-width: 0px; --tw-ring-offset-color: #fff; --tw-ring-color: rgba(59,130,246,.5); --tw-ring-offset-shadow: 0 0 #0000; --tw-ring-shadow: 0 0 #0000; --tw-shadow: 0 0 #0000; --tw-shadow-colored: 0 0 #0000; --tw-blur: ; --tw-brightness: ; --tw-contrast: ; --tw-grayscale: ; --tw-hue-rotate: ; --tw-invert: ; --tw-saturate: ; --tw-sepia: ; --tw-drop-shadow: ; --tw-backdrop-blur: ; --tw-backdrop-brightness: ; --tw-backdrop-contrast: ; --tw-backdrop-grayscale: ; --tw-backdrop-hue-rotate: ; --tw-backdrop-invert: ; --tw-backdrop-opacity: ; --tw-backdrop-saturate: ; --tw-backdrop-sepia: ; color: rgb(209, 213, 219); font-family: Inter, &amp;quot;Helvetica Neue&amp;quot;, Helvetica, Arial, sans-serif; font-size: 16px; text-align: start; background-color: rgb(17, 24, 39); vertical-align: inherit;&quot; class=&quot;&quot;&gt;Los selectores de clases seleccionarán todos los elementos con la clase dada, que es solo un atributo que colocas en un elemento HTML.&amp;nbsp;&lt;/font&gt;&lt;font style=&quot;border: 0px solid rgb(229, 231, 235); box-sizing: border-box; --tw-border-spacing-x: 0; --tw-border-spacing-y: 0; --tw-translate-x: 0; --tw-translate-y: 0; --tw-rotate: 0; --tw-skew-x: 0; --tw-skew-y: 0; --tw-scale-x: 1; --tw-scale-y: 1; --tw-pan-x: ; --tw-pan-y: ; --tw-pinch-zoom: ; --tw-scroll-snap-strictness: proximity; --tw-gradient-from-position: ; --tw-gradient-via-position: ; --tw-gradient-to-position: ; --tw-ordinal: ; --tw-slashed-zero: ; --tw-numeric-figure: ; --tw-numeric-spacing: ; --tw-numeric-fraction: ; --tw-ring-inset: ; --tw-ring-offset-width: 0px; --tw-ring-offset-color: #fff; --tw-ring-color: rgba(59,130,246,.5); --tw-ring-offset-shadow: 0 0 #0000; --tw-ring-shadow: 0 0 #0000; --tw-shadow: 0 0 #0000; --tw-shadow-colored: 0 0 #0000; --tw-blur: ; --tw-brightness: ; --tw-contrast: ; --tw-grayscale: ; --tw-hue-rotate: ; --tw-invert: ; --tw-saturate: ; --tw-sepia: ; --tw-drop-shadow: ; --tw-backdrop-blur: ; --tw-backdrop-brightness: ; --tw-backdrop-contrast: ; --tw-backdrop-grayscale: ; --tw-backdrop-hue-rotate: ; --tw-backdrop-invert: ; --tw-backdrop-opacity: ; --tw-backdrop-saturate: ; --tw-backdrop-sepia: ; color: rgb(209, 213, 219); font-family: Inter, &amp;quot;Helvetica Neue&amp;quot;, Helvetica, Arial, sans-serif; font-size: 16px; text-align: start; background-color: rgb(17, 24, 39); vertical-align: inherit;&quot; class=&quot;&quot;&gt;Así es como agregas una clase a una etiqueta HTML y la seleccionas en CSS:&lt;/font&gt;" style="whiteSpace=wrap;html=1;" parent="1" vertex="1">
                    <mxGeometry x="1350" y="1090" width="570" height="90" as="geometry"/>
                </mxCell>
                <mxCell id="36" value="" style="edgeStyle=none;html=1;" parent="1" source="31" target="35" edge="1">
                    <mxGeometry relative="1" as="geometry"/>
                </mxCell>
                <mxCell id="31" value="Selectores de ID" style="whiteSpace=wrap;html=1;" parent="1" vertex="1">
                    <mxGeometry x="1080" y="1310" width="120" height="60" as="geometry"/>
                </mxCell>
                <mxCell id="32" value="&lt;img alt=&quot;&quot; src=&quot;data:image/png;base64,iVBORw0KGgoAAAANSUhEUgAAAooAAAEyCAYAAAB9BfEJAAAgAElEQVR4nO3de2yU953v8c/4BrExNiYxkAAxtAY5uMEnWG3Ah2VFFieyj3xSSmVEtTWtRgJOUpluiiNokWW1mwiz6YLaHkAatbhVEVYozbFklEATlfUxZHvsrElNEXELBlIIJrg2xi6+zZw/5uKZ8WPPxTOei98vCYlnnttvnhnzfPz7/n4PpnkLV9oUQsnJyUpOTlZSUpISExNkSkiQyWQK5SkAAACmlc1mk23UqlGrVSMjIxoeHtbw8HCkmxV2SaE6UGJioh5LfUyJCUkaHh3V8IhVQyM2yTQikxJCdRoAAIBpZ5NVskkmSaaERKWmpmjUOqKB/gFZrdZINy9sQpLgkpNTNCc9XaNWaWjEKpvNJJnsPYmERAAAEOtMSpDJlCCZEmSzmTQ0YpXVKs2dm6HklJRINy9sppziHntsttJSUzU4PBqKwwEAAMQEmxI0ODyitNRUzX5sdqSbExZTSnbJKSlKTp6lR8MjMolxiAAAYKYx6dHQqFJSUuKyZzHooJiYlKi0OakaGhmxd8UCAADMQCaTSUPDo0pLS1ViUmKkmxNSQSe82bNmaWhwRCZTfF0QAACAQJlMiRoaGtHsWfFVgg4qKCYkJCgpOVk2xiQCAABIkqySUpKTlZAQP/koqHeSnJKskZH4nQoOAAAQKJMSNDQyquSU5Eg3JWSCCopJiUmyWkP6nG4AAICYZ7XalJQYssdUR1xwpefERNmY5QwAAODBJpMSEuNn/kZQQTExIUEy0aMIAADgwWSz56Q4EfQ74X9cAQAA8BRv+Si+3g0AAABChqAIAAAAQzERFKurzJFuAgAAwIwTE0ERAAAA04+gCAAAAEMERQAAABgiKAIAAMAQQREAAACGCIrKUukOsyqLsyJy9gXF5aquMqsif4oHyi5SZVWpVoekVb7Yr9mU2zyJ1VvNqq6y/4nUZwMAwEw3TUExVxVVZlXvKNKC6TkhosDqrcGHvEsnLaqpteidmyFuFAAA8Fv4g2J+qaqrVujztr6wn2pyuaqoKldpdoSb4eXu2XrV1FpU1x7plmBMlkp3RN93BQCA6ZYU3sPnqqKoR0drm6XichWG92QTyy5S5fY8qe206rqMN+m53T29bVKuKqo2KEeS1KeW4/VqdG9bfqmq8z/R0e7ntLMg3d7GttM6fLbbc5uSRW473fE4w4Licte+0h29U9uoS5LsQWizCnVFR481667bsTrPBBJa3d/D2PE9zrt0s6oLHJvfPK+akx2O99ajlow8FWb0qeXMp/piSZ4ye93aE1Hdamx+qOrtZj0e0PUAACC+hLlHsUN1kb7x55eqenuees5YPEOWS7c+7Z32VknqUF2tRTW159U50SZLN2hn1keqqbWo5swdZRasHRuDmF2kypI5ajluL9HWHL+iHvd980u1s+Ch3qm1rz/aNkcvu0r/3Wo8dl6dGXnaWpwlKVcVAYdEKafkOX1+3KKa2tNq6V2kf3SUmZ29pO/ctIfbGkcbak52uL23PD3ebNE7N9NVWJKp39eeV2fGYhVGSy9ee6Nqjl9RZgljJAEAM1dcT2ZZUFyuakeYisleod4rOuoMV+2fqFNztNgRpFZvzJPaznn2QrpZnb9InWecPYjS3bMfeQWxDtUdvyIVrFVp8XPKuXk+4GvUecbZC9qtlut9ysyaH9B7e9dxvp62i652RpWuZh2uPa+egs2q3pob6dYAADDtwlx6jqQsFS5LlzSFsZHepV3v0qiv9RGTpcUZUk6JWdUl7q/36XP3xa5mnWwrd/Q8diiu+PhsVm816+WlY6vHlfW9LX1OpdkdEwZzAADiURwHxW41HrOoMb/U51izSyctxj1a7Y2qmayXzdf6CPNZSs4v1c5ln+qdtsV6eUeRPouKkBsiPj6bCT9zd25jW2smC5EAAMSpuC49S/JjrJnj0T0xVlr8rLtPmcvyHGMOc1WxPU+ZrrX2UnBOyWTPVXSMS2xu1qWz59Qi53hFd/bnJVYHOVvcs40xxhESJx7bCgBA/Atzj6Jjdm2GczlPO6vypr9E29Wsw7VdqqjapNK2+ugoH3qVRnO2m1VoNPt5AnfPnlPLjs3266k+tRw/L21f4ba+XkdVrp1VZr3sfNF13R2zlW+ed/S6daux+Y6qSzarUj5KsAHwbKPGZj375D6bWq6Z0z7LwyGTpdKvLtafj1ui47sCAECEmOYtXGkLdKfMzEwNDlvD0R5D1VVm1dRapu18AAAAwZqVnKCenh7fG8aA+C89AwAAICgERQAAABgiKAIAAMAQQREAAACGCIoAAAAwRFAEAACAIYIiAAAADBEUAQAAYIigCAAAAEMERQAAABgiKAIAAMAQQREAAACGCIoAAAAwRFAEAACAIYIiAAAADCWF/QzZRarcnqdMx2LnGYvq2sN+VgAAAExRmINilkq/ulh/Pm5RY5ek/FJVl5SrtKvevgwAAICoFebSc7caj7mFwvZP1Kl0PZ4d3rMCAABg6hijCAAAAEPTGhRXb92gnN4repcxigAAAFFv2oLiguJyvbz0jt451qy703VSAAAABG1aguKC4nLtLJBajjfq0nScEAAAAFMW9qA4FhKZ6QwAABBLwvx4nFy9VJAuSSrcblah8+XeKzpKCRoAACCqhTkodqiutiO8pwAAAEBY8HgcAAAAGCIoAgAAwBBBEQAAAIYIigAAADBEUAQAAIAhgiIAAAAMERQBAABgiKAIAAAAQwRFAAAAGCIoAgAAwBBBEQAAAIYIigAAADBEUAQAAIChpEg3IJrsX7tJ/9DdrE1XB8ZeTM/RuRdzlf7XNj1/8d40tuYJndxSoBxJUr8+eu+C/lffNJ7epy06VP+Cstss2nZ+rU5UrlLXmV3aXeff3hl7yvX1Z9PtCzfOy/KDjvA1NeZM7dr6sn7vW9pTkGpf6HxfZa+fCs2BgRnA4+dHt9RQ/oYsEW2R/8wHjqgsZ0Cth19TzYVIt2Zi5gNHtLHHom1vthqsTdX/Li5SVvs5bb3t9nLE7tXxL+xBcfVWs15eOrbcecaiuvZwnzUe3NPWU+dkD4y5kW5MyPUerJdFjsCYEY4zZOnZo5uV3WTR734dxO7PF2nLK5n6f//cqBshb5ukb5TKvL5Hb+9sVm9ID2wPmcvdX/IKg01vvqYmOW54mSE9Ofww+U0wxq17VScq5+qDGApPAVn3qnYVSK2Hd0V10Ipp617Vxpxb+qA8Dn8+YlTYg+KlkxZdci5kF6lye7lKu+rV2BXuM3vbokP1a/W3QH+T6uvUplOdYWtV7Lquv/VLut0qXVimrspl+hudgiHi69pu0aH6FWqf5GZ8zdUDuUbVPzer4YDoOQSmKneu5vRf1wcxGhItr++KggA/+b14/YZlUtuJwNs5hXv1+r1vaZdOxOcvbyEwvaXnri71aPG0nlKS47fcVVKbRbs9vpj2Luzn5o690tc99vf9azep9CnH63/0LEmXr1yn7z59W/9+tlP1k7zmS/nKdfrul9Jcy50XvLrTJ/Pkan24Lnvifb3WG76HYM+tVtV82/lDdUq7y71DiL1H78vOw/dfCbD3zGt/j/L0WG9hR55Zm56WpD794Wf1+vhD6ekfOV+T9JJZ5pfsf+35+LROHezW5HL1T7/a4Cj5S5t+ZXb8bez4kuw9gi8tMlxnP/8dnXP2Rj5fpC2v5Ekfn9appjxteSVP9o68Rfr6r/Icx3Db3ue1PaXftL2lPfVv6Smfv/i0qub8i2ooWSGz5Oc/vvZwucZ57ceVp716LX2t77+sg9/+qZomWP+wLcDetYp9aihZ4lq85lWW9ywNerWxYp8aNjzQQYu0q3KV5hi031dpMdjSo+d+ZjXUmz3bJsn3tfPB8W/dHO/37Tq25w3ao3fT1Rv4ifKdbfD7/J7tLqs/ojJJkmeZc9JrN+lnY//l6G9t87WmIFUP297X1dwXtCbN/fhe39uAy8K+r/36J+dLeuD3EQM6vsf32qs8POlnY3/fKzvcf468XvP4Xkx0XSZvX0hK7hPei8fa8LUC6eph738P3Idi2blHwqneq5vevKiv1ZvVcGAZv1AbmN6gmL9COb2f6t3p7E10/PB530wkaf/aIj3X16bnz95zLG/SP7it/+HFc/qhweuSVH/7tsxfelIb0jtV7xg7uCIrTX03ugIMif1qPHVBPwz4jT2hk0/f1vOnHP21T67Wh+tWa/+pS45jPaGT69L00XvnjMc2pufIHPS5fcvYs1Y6bpHlQ8kZ7DbtueJHULN7+keb9eXPz8uys8O1/5Y99z32z3nJrMyPT8vyz932cPY/cvXxhx268QOLLEGXnjv0u3/umLz0/HyRtrw0R3/4mcUeDr9RKvMrper90L7tjR+c1h+ObtamH+XK8oP7ena7IyQe7JbUrFMfNk+59Nz05mtqqtinhsojOpQbuvGLkmQ+YNaae++r7Nun5LzhnNh73XUTMh9YofbyXdotyXlzOVRxytUG8wH7+Moyw/C3RtU/d1+/RYfqzTpU0erne9iiQ898orLyN+yLFfvUULJP5jrHTcurNGg+cERlT1zWQfd//NNWaU/lLTWU75Jl3as6UblW1etO2W/KFfu0p+C+Gspfk0WOm+PPX9VV5w3T1/pJOEv+E5eeva+N/drvObBFTX7dvLbokGM867Y6x3L9Cx6fnW9LVFY/X62Hd6nsgn3/r1VITT4/G8cvNJOVnv25dpN9NlqiNZnvq+zMCjWUvKB5Z3ap4Zkj2rhhjXShVev3bnP73gZq8mtvH9vn3HaV9tQf0R4F9kvOpD8X617ViZL5YyXtin1qqNwn8wX36zjRZ9OqDzq2aU3uWq1Xq+NaLtO8tAFdPe8414WfatsFuT6f8cbGRRu2bwrfe/djTHQvdlq/d62Wd15U2bgOnQLN/2Oznr86INcYRbctpn6vPqXd5dft1ZefLwzsl7MZYBpmPWepdIdZ1VVmVZcsUmdzs+6G/6SS7F/mBscP37gvZnqO/uGpLjUGO+i1r1P/8dc05T7p/A3rCa16qkv/4T4RZlJP6KtfSlPnhUtBBrV72ure9tu31ak0LUp338a9fUaytepJ4zXmA0fUUO/95y1Vr/Ovdb0HG8d639StG3/pU2bGfP92Vq5yn76jc64exG593HRHmV/Ik8dwxhvnXcHxxpU70uPZCstwRy8Z6xdLH58be3+/vqg/9C9S7jecW3Tr453n1fn0c3p2z1p9WVd0zs+AHJC6N1R2+LKyS47oxN41E2y0RYdKluhh23t+/va/Rfk5t9TgCiatqjl/S3Ny12q94xXL6+43r1Nq75Syn/Q8v/v2Htat1Upd1pE3x3pMf9M2oOXPbPGrddIp7XYPTXWf6Jrm6ynH93L9hmUepUHLn25JaXO10uMYA2o97HgPFy7qan+q5jmGAZufWaJrZ8beX9ObF3UtbZk2rvNv/ZRUvKg1abf0gevatKrGclkPc+y9wb6s37tWy/sv6zeuf+tOafeZWxN/FhO4dsbZk2X82QbLv2s38WcjDaj1/zg+e4/36cbPazWOj2tveX2Xysp36WDbgL2nrdy+HGipcqLPwlludfUg1r2n1v4lyq/w3G6iz2bctaxYoeWdF/0eZuX87hyZ4P1M9Xs/6b3YZY025qbq2p+8gv6TuXpOHbL4fW/14ve9ulU1396lhnurtKd+X3Dfozg1DT2K3Wo8ZlGjJGdorHzytA6fDcON04P9SycF+eXyww9vdOnD/GyVX+1U/ZNPKuevt7XV353T0zRf/eqYwkxm9+52u36NXdV72vpeh869WKQPvyRJXWo85RZK+zq16UKGPly3SR9K0oMOj675KY9lcZRbPeZK+Dsr5PlsZWqRW9nXob/HY7HzitvAvV83yhJIz6FH6VgBlcYzM9KV+fRmmX/l+brn6JgO/e7dFTK/NEd/+FljiCesjDen4EWZ1er6zJaXHFFDif3vAZV21y1Utpa4lQ4d+i+P/d2r9Gs/x9jfLa9b9NTPza5eF48ehNy5mpO2xLXOJYChRZ69O5I0IOe7a7p9X3sK7Dewpgv2G5w63/f8LnuMMXMv86/RU094XjvP4/taHwL9D3R1Kvvf+2yKPSG31O52Iw/dmDY/r92En41vTW++ppUHjri+uwEPaZjqtfdhsp+LlZmpmpPjNhzB4ZrH0mSfzSm1d77g6l01P7NE1/70ht9tW5mZOsl3Z6rfez/vxRUvao0u62AIqyNOgd+rl2jj3jWyMGZR0rQ/HqdbLdf7VJg1X1K4g6LjH5kwleck2Xvx1uVqQ3qnVjydrc4bl3zv49TXr/tTOHX5ynUqfco9/BnMjnYb3Fu+cp2+u2W15B4Wb1/S845f3vav3aTvFktyhMXxN2Np3LiZCeXqnxxj8iyOnrTAZze7j9kLg0CDpRef4x2fL9KWl6Rz7z7UJreydEi5lXK2eX23Jyvv+DbJ+KN1r+qEV/nIfOCINnps5HaDX/eqTlQe0SG5tSfQcXdu1u99S2U57u2zj7tz6Xigh1qiNZVH1FDpfC+BlSJ9XbupXVsfHL2frmuTO3dsvKE/nlio9W77T21MXeiF9drJPTzZhzSc2Cv/w+JUr71Pk/9cBBxsvVj+dEtlG9ZqvZYpP+eW2l/3f9+rPQOSjycgBP/Z+XcvNj+zRA87LOEp+fp1r3aMcdVlHSyn9Oxumh+4nauXCtLV2T6N02MnKs/19eu+W+nVHrwCPfg9Xf5rmrLSn9Cq9A791u+JIGP7Prc2R+WBntbpQa8+cfx1/1rPgb7e6vv6Jz3UJ92e652lFs8/gc0Y77ntCFLPF2nTs+mTb+zuwyv6pH+RNv1oKo8F6lbv51JOXpDH+LBLPXIvJ4+5ceWOMp/dpGefn2jnLMe4xIu68etGnbth8F7+0qOetMV6esJj+FCxz49SThAuXNTV/iUqOzBZKXhgbBZ2xT6DXyjcj/eZPIYk132ia2mrtGvCUrkf3Hp+zAc8HwVk/p/2gfJj39lABty36oOOAS0vmajs5Gu9f672DBiXIOs+0TVHT4bdGlVv8H/YQNP563qYtkpfc5Urt+hrBam6dt79pjdWyrWH7im8ESMXPlOXxpdMQ3Xt/Od4coC/pnjtA+b1c2H50y3NKdjm99AeQ3Wf6FraXK2sWKHsANvddP66Hua8oEPjPjfJ789u3as6UX9EDT9/1Xiow2RDZZyPxDEKyn296pv7pDY4biH713pOQPWPr3u1IyTee19ljE8cxzRv4UpboDtlZmZqcNjqx5ZZKt2xWYVuPUnBPEexusqsmtqp/rgaTMl3nxX81zb9e3euzGpzzJgaP8tKGj+jyvmQT3m/7ifv8rFr5rHXjGU79wdve7av748duv+lJ9XtXD9uf8+HdnvPeB5Xmp4ijwdq647+8PEcfTnjI8fMZa8ZzU4GM5vdtxnrxfN3oornDGb/Zj27mWRm87jStasH1NFuuZWynWV4rweLe18j/3tQJ3s8jn1Quib87d97ZqiDx+zY8du493Z49Db3X1brvVVa6ZqcMf45juN7SsZv439vhfeM6cvqKlg29nPtPetXkkcPqXNm7SQ3g3Gzpied/Tl+vW+TzSr3NaPcB6/3P+7auw8b6HxfDXrBYNbzFJ+BOMns3Umv3aSfjdu/37lj2610TQzS+O91wA+T933t1+99S3tyrwfRI+7Hz8W4IR1u31s/Pxv79dW4yo/hkwC8KwfePzuBfu+d+/v8eRh/L7Y/0/XihJ+X+/2q74/N+o+sIq264XxKx9Tv1eF4PM6s5AT19PT43jAGhDkohkZogiKAeGc0o9h84IjKxP9AA0SnIJ9xHOXiKSjyX/gBiBP2Qffy+Ld5i/JzpIdt1yPUJgCTM3pWLKIJQRFAnGhVjWWtTlR6zh6d6iQBAJjJCIoA4ofzwcIAgJCY5lnPAAAAiBUERQAAABgiKAIAAMAQQREAAACGCIoAAAAwFBMP3AYAAIgV8fTAbXoUAQAAYIigCAAAAEMERQAAABgiKAIAAMAQQREAAACGCIoAAAAwRFAEAACAIYIiAAAADBEUAQAAYIigCAAAAEMERQAAABgiKAIAAMAQQREAAACGkoLd8cpHvwtlOwAAAOJCwVeKI92EkKFHEQAAAIaC7lGMpLa2tkg3AQAAxKGCgoJINyGq0KMIAAAAQwRFAAAAGAprUKyoqAjn4QEAAKZNQ0NDpJsw7cIWFAmJAAAg3sy0sBhUULTarJOuJyQCAIB45Sss+spJsSSooGiz2iZcR0gEAADxbrKwaLXO8KA4PDw84bq6urqgGwMAABALysrKJlw3MjwyjS0Jr5AHRYmwCAAA4tdkIVGShnzkpFgSVFAcHR31uQ1hEQAAxBtfIVGSrH7kpFgR1sfjEBYBAEC88CckxhseuA0AAABDBEUAAAAYSop0A4LBf9gNAAAQfvQoAgAAwJBp3sKVEz89O5gDmkxKmZWiWSkpSkxIlCkxQSaTKZSnAAAAmFY2m022UatGR0c1ODSkoaEh2WwhjVBRKeSlZ5vNpsFHgxp8NBjqQwMAAGAaUXoGAACAIYIiAAAADBEUAQAAYIigCAAAAEMERQAAABgiKAIAAMAQQREAAACGCIoAAAAwRFAEAACAIYIiAAAADBEUAQAAYIigCAAAAEMERQAAABgiKAIAAMAQQREAAACGCIoAAAAwRFAEAACAIYIiAAAADBEUAQAAYIigCAAAAEMERQAAABgiKAIAAMBQUqgPmJycrOTkZCUlJSkxMUGmhASZTKZQnwYAAGDa2Gw22UatGrVaNTIyouHhYQ0PD0e6WWEXsqCYmJiotNRUmRISNTw6quERq4ZGbJJpRCY6LgEAQAyzySrZJJMkU0KiUlNTZLOOqn9gQKOjo5FuXtiEJMElJ6coPX2uhq02DY1YZbOZJJO9J5GQCAAAYp1JCTKZEiRTgmw2k4ZGrBqx2pSePlfJySmRbl7YTDnFPfbYY0pLTdWj4ZFQHA4AACAm2JSgweERpaWl6rHHZke6OWExpWSXnJKi5OQUPRoekUmMQwQAADONSY+GRu2ZKCX+ehaDDopJSUlKm5OqoZERe1csAADADGQymTQ0PKq0tFQlJiVGujkhFXTCmzV7tgYfDctkiq8LAgAAECiTKVGDg8OaPSu+StBBBcWEhAQlJSdJhEQAAABJks1kUkpyshIS4qfSGtQ7SU5J1vDwSKjbAgAAELNMStDgyIiSU5Ij3ZSQCSooJiUmyWYNdVMAAABim81qz0nxIrjSc2KibKFuCQAAQIyzyZ6T4kVQQTExjmrvAAAAoRRPOSnod8IjcQAAADzFWz6Kr3cDAACAkCEoAgAAwFDcB8XqKnOkmwAAABCT4j4oAgAAIDgERQAAABgiKAIAAMAQQREAAACGCIoAAAAwRFD00+qtZlUWZxm8Xq7S7Ag0aFK5qqgyq7rKrOqqaGzfdMhS6Y5SrfZrO7Mq8qehSQAAxJgYCIqO0LOjSAsi1YTsIv3j0jv6/dlu10urt9rDxWfdDz2WQ2cqAaZDdbUW1dSeV2comxQTslS6o1yl2d36tNd9eYLN89eqUFf0bvs0NhEAgBiRFOkGTCq/VNUlUktbn3KWRa4ZCwoWS23ndMnttUsnLdJWs3YulVRg1hfbTuswYSMKdKvx2DmV7jDr5QxJVZvVecaiui7jrVfnL1Jnc6PuTmsbAQCIDVEcFHNVUdSjo7XNUnG5CiPYjpcKpD8f7550q57bk683Om5F1QblOBd7r+josWbdlb138uWljtdLzKoucZyj7bQOn5VKd2zWF6+f1mFXD2eWwWs+5JequmSRY6FPLcfr1egWphYUl2tnQbprufOMRXUBBeGJ35+zvYUZzpV39E5to1sQ97U+EH36fIKQ6OopPhnUgQEAiHtRHBQ7VHesQ5IiV3KWtKD4OeXc/Ghcj9TqrWYVtFt0tLtUhW2N+nSjWRXyP0yt3rpBmW2nVWMQ7C6dtOiSIyw93jz+mC3X+1S4LE8L5Ahe2Xn6Ykaf/tzmZ0jMLlJlyRy1HLfYw2F+qaq3l+pTZxjLLtLWgod6p7Y+yHBmD4kTvb8FxZtU2HteNY7PN9D1k8tS6Y5N0m8temdjqXTyohbvKFfpbz2DsCSt3pgntZ0O8j0CABD/YmCMYiRlqXBZujrbxweWSyftAW5h1hyP5UBkLssLKgTfPfuROjMWq9Ax7m5BwWJl3vxoXBCaiLOU7tq+/aJaehepwGM8pPey/xYUP6ec3is6OVnv5tIVk0808bV+Qt1qPFavxq4sLc5wX/beLlcFSwMI1wAAzEBR3KMYBRwTHY5OEgAvnQyu1+3SydNavGOzdlblSQq0tNuhtpsb9I8FWdJZqXCZ1PJb/3vfFmalK3PpZlUXeL7umvjS1azDZzJV7Sx7e5SN/Tu+ersm3P7u2Xq9k2XWy1VmvSxnSb3b7/X+6VbjscYJ107UUwwAAMYQFCexOn+Req5fDNNEh241HrOoUbKXgrcHVrq+1H5HLxflaUG29EV9qpMBBh6f4au9UTWOtqzeatbOHfI7LH7W3SeNf5KQB3t5XbKXqTerUp7t8bV+ahw9xc3BlLYBAJg5KD1PxOCROGHT1aWecS/aH++Sk59rvE/7RbUoT1u/ulg9zf739kn2kJlZsMnv5yt+1t1n8Kr98T1Gz2m82/apepZu8PPRPvf1ee9U1geBR+IAAOCXKO5R9J75mmcv0wZYBg2Wc9xfeCY6eM0IlqOHzyu4XDp5XgVVG1RdtWFsG1dw7bZPail4qN97Bx6PGc1SznazCt1nNrc3qkalqt5udptNPjaz2HvGs31dANe8q1mHj0uV28dmbI99bt6fq6Sb590mvfhaP3Xh7SkGACB+mOYtXGkLdKfMzEwNDlvD0Z6Qq64yq6bWEuBeuaqoek6fHzeaBBE9FhSXa2fWR6o5SQnVb9lFqtyeqd8H/bgdAAAmNys5QT0942uFsSiKexQjqUN1tTB314sAAA37SURBVFEevrKLtLVAajke5e2MNl3NOlwb6UYAABAbCIqxJrtIldvzlCn7TOlo7vEEAACxjaAYa7qadbi2OdKtAAAAMwCzngEAAGCIoAgAAABDBEUAAAAYIigCAADAEEERAAAAhgiKAAAAMERQBAAAgCGCIgAAAAwRFAEAAGCIoAgAAABDBEUAAAAYIigCAADAUFKkGzCp7CJVbs9TpmOx84xFde0RbREAAMCMEcVBMUulX12sPx+3qLFLUn6pqkvKVdpVb18GAABAWEVx6blbjcfcQmH7J+pUuh7PjmijAAAAZowoDooAAACIpJgJiqu3blBO7xW9yxhFAACAaRETQXFBcbleXnpH7xxr1t1INwYAAGCGiPqguKC4XDsLpJbjjboU6cYAAADMIFEdFMdCIjOdAQAAplsUPx4nVy8VpEuSCrebVeh8ufeKjlKCBgAACLsoDoodqqvtiHQjAAAAZqyoLj0DAAAgcgiKAAAAMERQBAAAgCGCIgAAAAwRFAEAAGCIoAgAAABDBEUAAAAYIigCAADAEEERAAAAhgiKAAAAMERQBAAAgCGCIgAAAAwRFAEAAGAoKdINiFfmrUdVttT+94dtFm072xLZBsWida/qROUqzdGAWg+/ppoLkW4QAAAzS1QHxdVbzXp56dhy5xmL6toj155AWE7ulEX2wLgxHCfI/o5ObJ+rD2r/VZZI7O9L/vfVUPRAB4/9RE1BHWCNqs2rpDaLyt5sDXHjAACAP6I6KF46adEl50J2kSq3l6u0q16NXZFsFabHMs1LG9DV84REAAAiJaqDooeuLvVocaRb4aZQ1TvMWpPhWOy9HGDv2dd1qOoFLXcseZan7cee17xT7fnOEvaAWo//i2q6PPcrqzqqMrmvD+y8E+2/vvjH2lOQ6tjqlhpcPY+O9y2395v/fTWULNG1Mzu1u+s7OrF9leY49txTdVR7xh0DAADEgtgJivkrlNP7qd6Nkt7E9cUvSr/dqbIuyRmedhUXqsmvsYiFqt7xgrLbLCo72yJ7eDPr0O0W7XYrrS8vOWrf5mSLfczjxq9LJ9/W7tq3p1A69mP//O9rT8F9NdT+iyxyhMYd39HVYz9Rk1pUc2yZDlW94Hi/y3TIGRLbJekn2larEJSeAQBApEX5rOcsle4wq7rKrOqSRepsbtbdSDfJoensv7r13rXog+sDmpO1zL+ds9dqpS7riCtUvq3ftA1oef7XPbe7+b6rl9HSfkvKWKj1oWi8D+b8Jbp2ZixANp29qGsZy7Qx27nF29p9/LJU8KKqi9dq+c33PQJuSKxbqGzd11+ZwAIAQMREeY9itxqPWdQoyRkaK588rcNnuyPcLjl65MZKrJKkm/7uO1dzMpa4lWWN97/W/vbYQvu/qiyAMOY+61oKZOZ1oZ7KsPdmNpS4vz4gj9GCXT/RkbYfO3oe31bobNGh+he0vP+yDpa/QW8kAAARFOVB0V23Wq73qTBrvqRIB8Wv69B2x4xcR/haX/xj7ckK4BABj2kMjHPWdbDGSskTyP++9iy7roa2ZSpzlaVD4ZR2l5+yPxqnfp9Wlr/BuEYAACIkykvP7nL1UkG6Ots7pu+U2d/RiaqjatjxHcOSb9ftFtd2u1wTP/zQ/omuZazSruLC4NvW9Zm6tET5+aHe315GX17yfZkn3Pnr9nGJzT+R5ewJtcrgvXQ90EOPcnWALnymLs3XU+uC3B8AAExZFPcoZql0x2YVZoy9Ej3PUXxbv2lbqz2u8uwttbYNaI2rR9FzZrGWmtVQYHYr/76t3bXSoSr7604+e/G82rD7zAo1uNrg76xn3/s3nf0XST/WHteMaLn1gDre2833HaXwFtU0v6iGErNOSGPlbWdpevtRNch+jZj1DABAbDHNW7jSFuhOmZmZGhy2hqM9IVddZVZNLfEk9mzRofq1+hv/IwsAIMbMSk5QT09PpJsREjFUesbMcl1/60/VvNxItwMAgJmLoIgo1aoay2VllxxRQ/1bqmasIgAA0y6KxyhixrvwU22j7AwAQMTQowgAAABDBEUAAAAYIigCAADAEEERAAAAhgiKAAAAMERQBAAAgCGCIgAAAAwRFAEAAGCIoAgAAABDBEUAAAAYIigCAADAEEExStX+MEfXfmn/0/a9OP8vuSv2qeHnr2p9pNsBAAA8xEZQzC5SZZVZ1TuKtCDSbZkmVfs7tfybnTp1I9ItAQAAM1UMBMUslX41Tz0370S6IQAAADNK1Nc0FxRvUqGu6Gh7pnYWRbo1gfnW9xZp/7OzXMt/ea9Tm37tWPhKutpema+5zpU3PtPy/Y9CeOwUnf1mv/7bLxfqC5LUf18/3NWnX7gdY/3et7SnQGo9/JpqLgTwxir2qWHDAx20SLsqV2mOJHW+r7LXT3kdO9WxdEsN5W/IMu7cqWMv9F/2OskWHap/Qcu9jgsAAKZPdPcoZhdpa4HU8ttm3Y10WwJkD3JDOvVNewl5+Tfdgpxm69wr83XvPee6z/SXpxf6PxbxG/M9j/1en77w4iKd+Ir7Runa8st5uvczx/HT5mvbN0L4BtNWaU/lXH1Qvktlhy/rYc5aVa9zrKvYpz0F99VQvktl5bt0sG2+ytzHIHqtLztzK4QNAwAAoRLVQXH1xjyp7ZwauyLdkkDN1rZnZ+kv791XlcHab31vnr7Qf18nXMHxkTa916e5X3hM3/J57CSd+O/pevBx79ixf31fp27M0jPrPYPmX967o23/aT/+f92Qnljkub7pzddUVh5gb6LLgFoPO3oJL1zU1f5Uzcu1rzE/s0TXzoz1IDa9eVHX0pZp4zpJWqPqDZ7rjZ3S7vJd9CYCABBB0Vt6zi/VyxlXdPRkd6RbErivJOsJDepPf55km8+HPcrAgbp3Z8THFn36r1+PLVXt7zQMrUHrv64PXAGzVTXfbnX8fY2eekJaXnJEDSXuOwyoVQAAIJZEbVBcnb9IyliknVV5bq/alzvPWFTXHrGm+fafw7r3io9tHk/Wt/TIFRa/tShF0pDfp7D3DjrDYpIWPy6pN+CWhs21M7u0uy7SrQAAAFMRtaXnSyctqql1+3PmjtR7RUdrozwkSrKXemfp+e3phqXkXzQ91AOPMYOOUvX/7fOjl3FE5/4yqLnPZqjW+dI3MvR8Wp/O/puvXkZP6/e+pYb6t8bGFoZEqz7oGNDykn0yT7D+r/ek5c9ssS+ue1UnSpYYbLdFh+qP8HxFAAAiKGp7FGNd1f5O6Yc52v/L+drveM01M/k/+1Qgqe2VHF170b7uwcefqsB9sotztrIkabGu/dKxzb+N6Bf/dkf63iLt/2WO7HFrUB/+7E5oS8tT0PTma9Let7Sn/ojKnC/2X9bBb/9UTZIsr7+v/PoX1FD/gqRbajh8WRvHpcrr+lu/JMfYxqagxlECAICpMM1buNIW6E6ZmZkaHLaGoz0hV11lVk3t5NMmEJ3MB46o7ImxgAkAQCyYlZygnp6eSDcjJOhRRPSp2KeGkiUevZAAAGD6ERQRfereUBkTYQAAiLioncwCAACAyCIoAgAAwBBBEQAAAIYIigAAADBEUAQAAIAhgiIAAAAMERQBAABgiKAIAAAAQwRFAAAAGCIoAgAAwBBBEQAAAIb4v54nsH7vW9pTkCr1X9bBb/9UTZFuEAAAwDSL6qC4oLhcOwvSPV7rPGNRXXv4z9305mtqkmQ+cES79q5R05ut4T8pAABAFInqoChJPW2ndfhsd8TOb/nTLZU9s0wSQREAAMwsjFEEAACAIYIiAAAADEV96TmzYLOqCxwLN8+r5mTH9Dag44EelqyQWZJles8MAAAQUVEdFO+erVfNWedSlkp3bFb1Vk1vWLzwU23TqzpRf0Rlne+r7PVT03duAACACIrqoOipWy3X+1SYNc2nrdinhg0PdLB8F4/IAQAAM0rsjFHMLtLWgnR1tk9z6VmS7n1GSAQAADNOFPco2kvNhRnO5T61HLeosSuSbQIAAJg5ojgodqvxmEWNkW4GAADADBU7pecIMT+zRA97rke6GQAAANMuinsUI8v1fz3rlhrK+V9ZAADAzENQnIDz/3oGAACYqSg9AwAAwBBBEQAAAIYIigAAADBEUAQAAIAhgiIAAAAMmeYtXGkLdKfMzEwNDlvD0R4AAICYNis5QT09PZFuRkjQowgAAABDBEUAAAAYIigCAADAUFBB0WqzymYLeGgjAABAXLPZrLLa4mceR1BB0Wa1SSIoAgAAeLNaZ3hQHB4eVgJFawAAAA8JCdLI8EikmxEyQQfFJJIiAACAh6SEBA0ND0e6GSETVNobHR3VqNUqWxzV4AEAAKbCZrNq1GqVdXQ00k0JmaC7Bf8+MKDZyUmyibAIAABmNpvNqtkpifr7wECkmxJSQQdFq9Wq/r8PaFZSEj2LAABgxrLZrJqdnKT+gb/H1UQWaYrPURweGtLQ0KAeS0kSs6ABAMBMY5NNs5OT9GjwkYaHhiLdnJCb8oyUv//973rYP6BZKUkyiXGLAAAg/tlsVplMVs1OSVL/wIAePXoU6SaFRUimLg8PD+lBb69Msin1sRQlJtifs2gPjfQ0AgCAWDeWaxIT7HnHJJse9PZqeDj+ehKdTPMWrgxpkjOZTEqZlaJZKSlKTEiUKTFBJpMplKcAAACYVjabTbZRq0ZHRzU4NKShoaEZ8b/UJYX6gDabTYOPBjX4aDDUhwYAAMA04qnZAAAAMERQBAAAgCGCIgAAAAwRFAEAAGCIoAgAAABDBEUAAAAYIigCAADAEEERAAAAhv4/42S5aI1kutcAAAAASUVORK5CYII=&quot;&gt;" style="whiteSpace=wrap;html=1;" parent="1" vertex="1">
                    <mxGeometry x="2090" y="1037.5" width="385" height="195" as="geometry"/>
                </mxCell>
                <mxCell id="38" value="" style="edgeStyle=none;html=1;" parent="1" source="35" target="37" edge="1">
                    <mxGeometry relative="1" as="geometry"/>
                </mxCell>
                <mxCell id="35" value="&#10;&lt;font style=&quot;border: 0px solid rgb(229, 231, 235); box-sizing: border-box; --tw-border-spacing-x: 0; --tw-border-spacing-y: 0; --tw-translate-x: 0; --tw-translate-y: 0; --tw-rotate: 0; --tw-skew-x: 0; --tw-skew-y: 0; --tw-scale-x: 1; --tw-scale-y: 1; --tw-pan-x: ; --tw-pan-y: ; --tw-pinch-zoom: ; --tw-scroll-snap-strictness: proximity; --tw-gradient-from-position: ; --tw-gradient-via-position: ; --tw-gradient-to-position: ; --tw-ordinal: ; --tw-slashed-zero: ; --tw-numeric-figure: ; --tw-numeric-spacing: ; --tw-numeric-fraction: ; --tw-ring-inset: ; --tw-ring-offset-width: 0px; --tw-ring-offset-color: #fff; --tw-ring-color: rgba(59,130,246,.5); --tw-ring-offset-shadow: 0 0 #0000; --tw-ring-shadow: 0 0 #0000; --tw-shadow: 0 0 #0000; --tw-shadow-colored: 0 0 #0000; --tw-blur: ; --tw-brightness: ; --tw-contrast: ; --tw-grayscale: ; --tw-hue-rotate: ; --tw-invert: ; --tw-saturate: ; --tw-sepia: ; --tw-drop-shadow: ; --tw-backdrop-blur: ; --tw-backdrop-brightness: ; --tw-backdrop-contrast: ; --tw-backdrop-grayscale: ; --tw-backdrop-hue-rotate: ; --tw-backdrop-invert: ; --tw-backdrop-opacity: ; --tw-backdrop-saturate: ; --tw-backdrop-sepia: ; color: rgb(209, 213, 219); font-family: Inter, &amp;quot;Helvetica Neue&amp;quot;, Helvetica, Arial, sans-serif; font-size: 16px; font-style: normal; font-variant-ligatures: normal; font-variant-caps: normal; font-weight: 400; letter-spacing: normal; orphans: 2; text-align: start; text-indent: 0px; text-transform: none; widows: 2; word-spacing: 0px; -webkit-text-stroke-width: 0px; background-color: rgb(17, 24, 39); text-decoration-thickness: initial; text-decoration-style: initial; text-decoration-color: initial; vertical-align: inherit;&quot;&gt;&lt;font style=&quot;border: 0px solid rgb(229, 231, 235); box-sizing: border-box; --tw-border-spacing-x: 0; --tw-border-spacing-y: 0; --tw-translate-x: 0; --tw-translate-y: 0; --tw-rotate: 0; --tw-skew-x: 0; --tw-skew-y: 0; --tw-scale-x: 1; --tw-scale-y: 1; --tw-pan-x: ; --tw-pan-y: ; --tw-pinch-zoom: ; --tw-scroll-snap-strictness: proximity; --tw-gradient-from-position: ; --tw-gradient-via-position: ; --tw-gradient-to-position: ; --tw-ordinal: ; --tw-slashed-zero: ; --tw-numeric-figure: ; --tw-numeric-spacing: ; --tw-numeric-fraction: ; --tw-ring-inset: ; --tw-ring-offset-width: 0px; --tw-ring-offset-color: #fff; --tw-ring-color: rgba(59,130,246,.5); --tw-ring-offset-shadow: 0 0 #0000; --tw-ring-shadow: 0 0 #0000; --tw-shadow: 0 0 #0000; --tw-shadow-colored: 0 0 #0000; --tw-blur: ; --tw-brightness: ; --tw-contrast: ; --tw-grayscale: ; --tw-hue-rotate: ; --tw-invert: ; --tw-saturate: ; --tw-sepia: ; --tw-drop-shadow: ; --tw-backdrop-blur: ; --tw-backdrop-brightness: ; --tw-backdrop-contrast: ; --tw-backdrop-grayscale: ; --tw-backdrop-hue-rotate: ; --tw-backdrop-invert: ; --tw-backdrop-opacity: ; --tw-backdrop-saturate: ; --tw-backdrop-sepia: ; vertical-align: inherit;&quot; class=&quot;&quot;&gt;&lt;span&gt;&amp;nbsp;&lt;/span&gt;&lt;/font&gt;&lt;font style=&quot;border: 0px solid rgb(229, 231, 235); box-sizing: border-box; --tw-border-spacing-x: 0; --tw-border-spacing-y: 0; --tw-translate-x: 0; --tw-translate-y: 0; --tw-rotate: 0; --tw-skew-x: 0; --tw-skew-y: 0; --tw-scale-x: 1; --tw-scale-y: 1; --tw-pan-x: ; --tw-pan-y: ; --tw-pinch-zoom: ; --tw-scroll-snap-strictness: proximity; --tw-gradient-from-position: ; --tw-gradient-via-position: ; --tw-gradient-to-position: ; --tw-ordinal: ; --tw-slashed-zero: ; --tw-numeric-figure: ; --tw-numeric-spacing: ; --tw-numeric-fraction: ; --tw-ring-inset: ; --tw-ring-offset-width: 0px; --tw-ring-offset-color: #fff; --tw-ring-color: rgba(59,130,246,.5); --tw-ring-offset-shadow: 0 0 #0000; --tw-ring-shadow: 0 0 #0000; --tw-shadow: 0 0 #0000; --tw-shadow-colored: 0 0 #0000; --tw-blur: ; --tw-brightness: ; --tw-contrast: ; --tw-grayscale: ; --tw-hue-rotate: ; --tw-invert: ; --tw-saturate: ; --tw-sepia: ; --tw-drop-shadow: ; --tw-backdrop-blur: ; --tw-backdrop-brightness: ; --tw-backdrop-contrast: ; --tw-backdrop-grayscale: ; --tw-backdrop-hue-rotate: ; --tw-backdrop-invert: ; --tw-backdrop-opacity: ; --tw-backdrop-saturate: ; --tw-backdrop-sepia: ; vertical-align: inherit;&quot;&gt;La principal diferencia entre clases e ID es que un elemento solo puede tener&lt;span&gt;&amp;nbsp;&lt;/span&gt;&lt;/font&gt;&lt;/font&gt;&lt;strong style=&quot;border: 0px solid rgb(229, 231, 235); box-sizing: border-box; --tw-border-spacing-x: 0; --tw-border-spacing-y: 0; --tw-translate-x: 0; --tw-translate-y: 0; --tw-rotate: 0; --tw-skew-x: 0; --tw-skew-y: 0; --tw-scale-x: 1; --tw-scale-y: 1; --tw-pan-x: ; --tw-pan-y: ; --tw-pinch-zoom: ; --tw-scroll-snap-strictness: proximity; --tw-gradient-from-position: ; --tw-gradient-via-position: ; --tw-gradient-to-position: ; --tw-ordinal: ; --tw-slashed-zero: ; --tw-numeric-figure: ; --tw-numeric-spacing: ; --tw-numeric-fraction: ; --tw-ring-inset: ; --tw-ring-offset-width: 0px; --tw-ring-offset-color: #fff; --tw-ring-color: rgba(59,130,246,.5); --tw-ring-offset-shadow: 0 0 #0000; --tw-ring-shadow: 0 0 #0000; --tw-shadow: 0 0 #0000; --tw-shadow-colored: 0 0 #0000; --tw-blur: ; --tw-brightness: ; --tw-contrast: ; --tw-grayscale: ; --tw-hue-rotate: ; --tw-invert: ; --tw-saturate: ; --tw-sepia: ; --tw-drop-shadow: ; --tw-backdrop-blur: ; --tw-backdrop-brightness: ; --tw-backdrop-contrast: ; --tw-backdrop-grayscale: ; --tw-backdrop-hue-rotate: ; --tw-backdrop-invert: ; --tw-backdrop-opacity: ; --tw-backdrop-saturate: ; --tw-backdrop-sepia: ; font-weight: 600; color: var(--tw-prose-bold); font-family: Inter, &amp;quot;Helvetica Neue&amp;quot;, Helvetica, Arial, sans-serif; font-size: 16px; font-style: normal; font-variant-ligatures: normal; font-variant-caps: normal; letter-spacing: normal; orphans: 2; text-align: start; text-indent: 0px; text-transform: none; widows: 2; word-spacing: 0px; -webkit-text-stroke-width: 0px; background-color: rgb(17, 24, 39); text-decoration-thickness: initial; text-decoration-style: initial; text-decoration-color: initial;&quot;&gt;&lt;font style=&quot;border: 0px solid rgb(229, 231, 235); box-sizing: border-box; --tw-border-spacing-x: 0; --tw-border-spacing-y: 0; --tw-translate-x: 0; --tw-translate-y: 0; --tw-rotate: 0; --tw-skew-x: 0; --tw-skew-y: 0; --tw-scale-x: 1; --tw-scale-y: 1; --tw-pan-x: ; --tw-pan-y: ; --tw-pinch-zoom: ; --tw-scroll-snap-strictness: proximity; --tw-gradient-from-position: ; --tw-gradient-via-position: ; --tw-gradient-to-position: ; --tw-ordinal: ; --tw-slashed-zero: ; --tw-numeric-figure: ; --tw-numeric-spacing: ; --tw-numeric-fraction: ; --tw-ring-inset: ; --tw-ring-offset-width: 0px; --tw-ring-offset-color: #fff; --tw-ring-color: rgba(59,130,246,.5); --tw-ring-offset-shadow: 0 0 #0000; --tw-ring-shadow: 0 0 #0000; --tw-shadow: 0 0 #0000; --tw-shadow-colored: 0 0 #0000; --tw-blur: ; --tw-brightness: ; --tw-contrast: ; --tw-grayscale: ; --tw-hue-rotate: ; --tw-invert: ; --tw-saturate: ; --tw-sepia: ; --tw-drop-shadow: ; --tw-backdrop-blur: ; --tw-backdrop-brightness: ; --tw-backdrop-contrast: ; --tw-backdrop-grayscale: ; --tw-backdrop-hue-rotate: ; --tw-backdrop-invert: ; --tw-backdrop-opacity: ; --tw-backdrop-saturate: ; --tw-backdrop-sepia: ; vertical-align: inherit;&quot;&gt;&lt;font style=&quot;border: 0px solid rgb(229, 231, 235); box-sizing: border-box; --tw-border-spacing-x: 0; --tw-border-spacing-y: 0; --tw-translate-x: 0; --tw-translate-y: 0; --tw-rotate: 0; --tw-skew-x: 0; --tw-skew-y: 0; --tw-scale-x: 1; --tw-scale-y: 1; --tw-pan-x: ; --tw-pan-y: ; --tw-pinch-zoom: ; --tw-scroll-snap-strictness: proximity; --tw-gradient-from-position: ; --tw-gradient-via-position: ; --tw-gradient-to-position: ; --tw-ordinal: ; --tw-slashed-zero: ; --tw-numeric-figure: ; --tw-numeric-spacing: ; --tw-numeric-fraction: ; --tw-ring-inset: ; --tw-ring-offset-width: 0px; --tw-ring-offset-color: #fff; --tw-ring-color: rgba(59,130,246,.5); --tw-ring-offset-shadow: 0 0 #0000; --tw-ring-shadow: 0 0 #0000; --tw-shadow: 0 0 #0000; --tw-shadow-colored: 0 0 #0000; --tw-blur: ; --tw-brightness: ; --tw-contrast: ; --tw-grayscale: ; --tw-hue-rotate: ; --tw-invert: ; --tw-saturate: ; --tw-sepia: ; --tw-drop-shadow: ; --tw-backdrop-blur: ; --tw-backdrop-brightness: ; --tw-backdrop-contrast: ; --tw-backdrop-grayscale: ; --tw-backdrop-hue-rotate: ; --tw-backdrop-invert: ; --tw-backdrop-opacity: ; --tw-backdrop-saturate: ; --tw-backdrop-sepia: ; vertical-align: inherit;&quot;&gt;una&lt;/font&gt;&lt;/font&gt;&lt;/strong&gt;&lt;font style=&quot;border: 0px solid rgb(229, 231, 235); box-sizing: border-box; --tw-border-spacing-x: 0; --tw-border-spacing-y: 0; --tw-translate-x: 0; --tw-translate-y: 0; --tw-rotate: 0; --tw-skew-x: 0; --tw-skew-y: 0; --tw-scale-x: 1; --tw-scale-y: 1; --tw-pan-x: ; --tw-pan-y: ; --tw-pinch-zoom: ; --tw-scroll-snap-strictness: proximity; --tw-gradient-from-position: ; --tw-gradient-via-position: ; --tw-gradient-to-position: ; --tw-ordinal: ; --tw-slashed-zero: ; --tw-numeric-figure: ; --tw-numeric-spacing: ; --tw-numeric-fraction: ; --tw-ring-inset: ; --tw-ring-offset-width: 0px; --tw-ring-offset-color: #fff; --tw-ring-color: rgba(59,130,246,.5); --tw-ring-offset-shadow: 0 0 #0000; --tw-ring-shadow: 0 0 #0000; --tw-shadow: 0 0 #0000; --tw-shadow-colored: 0 0 #0000; --tw-blur: ; --tw-brightness: ; --tw-contrast: ; --tw-grayscale: ; --tw-hue-rotate: ; --tw-invert: ; --tw-saturate: ; --tw-sepia: ; --tw-drop-shadow: ; --tw-backdrop-blur: ; --tw-backdrop-brightness: ; --tw-backdrop-contrast: ; --tw-backdrop-grayscale: ; --tw-backdrop-hue-rotate: ; --tw-backdrop-invert: ; --tw-backdrop-opacity: ; --tw-backdrop-saturate: ; --tw-backdrop-sepia: ; color: rgb(209, 213, 219); font-family: Inter, &amp;quot;Helvetica Neue&amp;quot;, Helvetica, Arial, sans-serif; font-size: 16px; font-style: normal; font-variant-ligatures: normal; font-variant-caps: normal; font-weight: 400; letter-spacing: normal; orphans: 2; text-align: start; text-indent: 0px; text-transform: none; widows: 2; word-spacing: 0px; -webkit-text-stroke-width: 0px; background-color: rgb(17, 24, 39); text-decoration-thickness: initial; text-decoration-style: initial; text-decoration-color: initial; vertical-align: inherit;&quot;&gt;&lt;font style=&quot;border: 0px solid rgb(229, 231, 235); box-sizing: border-box; --tw-border-spacing-x: 0; --tw-border-spacing-y: 0; --tw-translate-x: 0; --tw-translate-y: 0; --tw-rotate: 0; --tw-skew-x: 0; --tw-skew-y: 0; --tw-scale-x: 1; --tw-scale-y: 1; --tw-pan-x: ; --tw-pan-y: ; --tw-pinch-zoom: ; --tw-scroll-snap-strictness: proximity; --tw-gradient-from-position: ; --tw-gradient-via-position: ; --tw-gradient-to-position: ; --tw-ordinal: ; --tw-slashed-zero: ; --tw-numeric-figure: ; --tw-numeric-spacing: ; --tw-numeric-fraction: ; --tw-ring-inset: ; --tw-ring-offset-width: 0px; --tw-ring-offset-color: #fff; --tw-ring-color: rgba(59,130,246,.5); --tw-ring-offset-shadow: 0 0 #0000; --tw-ring-shadow: 0 0 #0000; --tw-shadow: 0 0 #0000; --tw-shadow-colored: 0 0 #0000; --tw-blur: ; --tw-brightness: ; --tw-contrast: ; --tw-grayscale: ; --tw-hue-rotate: ; --tw-invert: ; --tw-saturate: ; --tw-sepia: ; --tw-drop-shadow: ; --tw-backdrop-blur: ; --tw-backdrop-brightness: ; --tw-backdrop-contrast: ; --tw-backdrop-grayscale: ; --tw-backdrop-hue-rotate: ; --tw-backdrop-invert: ; --tw-backdrop-opacity: ; --tw-backdrop-saturate: ; --tw-backdrop-sepia: ; vertical-align: inherit;&quot;&gt;&lt;span&gt;&amp;nbsp;&lt;/span&gt;ID.&lt;span&gt;&amp;nbsp;&lt;/span&gt;&lt;/font&gt;&lt;font style=&quot;border: 0px solid rgb(229, 231, 235); box-sizing: border-box; --tw-border-spacing-x: 0; --tw-border-spacing-y: 0; --tw-translate-x: 0; --tw-translate-y: 0; --tw-rotate: 0; --tw-skew-x: 0; --tw-skew-y: 0; --tw-scale-x: 1; --tw-scale-y: 1; --tw-pan-x: ; --tw-pan-y: ; --tw-pinch-zoom: ; --tw-scroll-snap-strictness: proximity; --tw-gradient-from-position: ; --tw-gradient-via-position: ; --tw-gradient-to-position: ; --tw-ordinal: ; --tw-slashed-zero: ; --tw-numeric-figure: ; --tw-numeric-spacing: ; --tw-numeric-fraction: ; --tw-ring-inset: ; --tw-ring-offset-width: 0px; --tw-ring-offset-color: #fff; --tw-ring-color: rgba(59,130,246,.5); --tw-ring-offset-shadow: 0 0 #0000; --tw-ring-shadow: 0 0 #0000; --tw-shadow: 0 0 #0000; --tw-shadow-colored: 0 0 #0000; --tw-blur: ; --tw-brightness: ; --tw-contrast: ; --tw-grayscale: ; --tw-hue-rotate: ; --tw-invert: ; --tw-saturate: ; --tw-sepia: ; --tw-drop-shadow: ; --tw-backdrop-blur: ; --tw-backdrop-brightness: ; --tw-backdrop-contrast: ; --tw-backdrop-grayscale: ; --tw-backdrop-hue-rotate: ; --tw-backdrop-invert: ; --tw-backdrop-opacity: ; --tw-backdrop-saturate: ; --tw-backdrop-sepia: ; vertical-align: inherit;&quot;&gt;No se puede repetir en una sola página y no debe contener ningún espacio en blanco:&lt;/font&gt;&lt;/font&gt;&#10;&#10;" style="whiteSpace=wrap;html=1;" parent="1" vertex="1">
                    <mxGeometry x="1330" y="1320" width="620" height="60" as="geometry"/>
                </mxCell>
                <mxCell id="37" value="&lt;img alt=&quot;&quot; src=&quot;data:image/png;base64,iVBORw0KGgoAAAANSUhEUgAAAnMAAAErCAYAAAC1hQUJAAAgAElEQVR4nO3df0zUd77v8dfwSwVRxIo/qhbdUo+VWzmVnK1yuJ7YqBs44XRdG4ybLXYziXrbE3puVxrdYwjx7DbiMbfmdK+aTHalm2skx3V7yYVsNW3Ww0XtjXSxi/VYuoq19QdWCiJUGJi5f8wMfIefA8wPPvJ8JCbO99fnMzMy8/L9+Xy+2GbNW+YWAAAAjBQV6Q4AAABg7GJCefHY2FjFxsYqJiZG0dFRskVFyWazhbJJAACAkHK73XL3uNTjcqm7u1tOp1NOpzNi/QlJmIuOjlZCfLxsUdFy9vTI2e1SV7dbsnXLRjEQAAAYzC2X5JZskmxR0YqPj5Pb1aP2jg719PSEvT9BT1axsXFKTJwhp8utrm6X3G6bZPNU5AhyAADAdDZFyWaLkmxRcrtt6up2qdvlVmLiDMXGxoW9P0FNV9OmTVNCfLweObuDfWkAAIAJy60odTq7lZAQr2nTpoa17aAlrti4OMXGxumRs1s2MS8OAABMNjY96urxZKK48FXoghLmYmJilDA9Xl3d3Z6yIwAAwCRks9nU5exRQkK8omOiw9JmUJLXlKlT1fnIKZstPJ0GAACYqGy2aHV2OjV1SniGW8cd5qKiohQTGyMR5AAAACRJbptNcbGxiooK/YjluFuIjYuV09kdjL4AAAA8FmyKUmd3t2LjYkPe1rjDXEx0jNyuYHQFAADg8eF2eXJSqI1/mDU6WvxyVwAAAH9ueXJSqI07zEWHYSwYAADAROHISUFpgduRAAAA+AtXPiKFAQAAGIwwBwAAYDDCHAAAgMEmVZgrLrJHugsAAABBNanCHAAAwOOGMAcAAGAwwhwAAIDBCHMAAAAGI8wBAAAYjDAXNMnK3W5X4YbkiLQ+d0O+iovsKkgf54VSslRYlKuVQenVSDyv2bj7PIyVW+wqLvL8idR7AwBAKBkW5tJUUGRX8fYszY10VxA2K7eMPYhdOuFQSalD738Z5E4BADBBmBPm0nNVXPSMvqlri3BH0lRQlK/clAh3o5+7p8tVUupQWX2ke4I+ycrdPvH+rQAAHi8xke5AYNJUkNWiI6U10oZ8ZUaqGylZKty2XKo7pbKmwQ9pudUc3j4pTQVFa5UqSWrTxWPlqrT2LT1Xxemf60jz89qRkejpY90pHTrd7H9MznzLSbf9Wpi7Ib/3XOm23i+t1CVJnrCySZm6oiNHa3TXcq3GqtEES+tz6Lu+X7uLN6k4w3v4l2dVcqLB+9xadHHmcmXObNPFqq/0dM5yJbVa+hNRzaqseajibXY9MarXAwCAwBlSmWtQWaS/nNNzVbxtuVqqHP5BqFezvmoNe68kNais1KGS0rNqHOqQxWu1I/kTlZQ6VFJ1W0kZq/vmxKVkqTBnui4e8wxHlhy7ohbruem52pHxUO+XevYfqZuul3qHuZtVefSsGmcu15YNyZLSVDDqICel5jyvb445VFJ6Shdb5+vvvEOqvmrj+196AmiJtw8lJxosz225nqhx6P0vE5WZk6Q/lp5V48yFypwo1bD6SpUcu6KkHObsAQBCw5AwF1lzN+Sr2Bt4jKyutF7REV8Aqv9cjZquhd6ws3LdcqnujH81z2Jl+nw1VvkqcdLd05/0C0sNKjt2RcpYrdwNzyv1y7Ojfo0aq3zVxGZdvN6mpOTZo3puf/C211J3vrefE0pTjQ6VnlVLxiYVb0mLdG8AAI8ZQ4ZZIylZmUsSJY1jrl7/Ycz+w4Aj7Y+YZC2cKaXm2FWcY93epm+sD5tqdKIu31vBa9BjZYT3ZuUWu15a3Ld7wBB2f4ufV25Kw5DhGQCA0SLMjahZlUcdqkzPHXHu06UTjsErQ/WVKhmuWjXS/ggbcdg0PVc7lnyl9+sW6qXtWbozIYJokIzw3gz5nltZ5lqWDBf0AAAYA4ZZAzXi3CfvbVMMG0a709ympCXLvXPg0lSwbbmSevd6hj1Tc4a775x3nlxNjS6dPqOL8s2fs/LcT654jKuA/ftoGG+QG3quJQAA42NIZc67anKm7/Fy7ShaHv7hyKYaHSptUkHReuXWlU+MobJ+w4Cp2+zKHGxV6xDunj6ji9s3eV5PtenisbPStmcs+8t1RPnaUWTXS76Nva+7dxXql2e91atmVdbcVnHOJhVqhOHGUfDvo/pWs47IukpWvStiRxwKDZpk5f5wob445pgY/1YAAI8l26x5y9zjuUBSUpI6na5g9SekiovsKil1RLobAABgkpgSG6WWlpaRDxwHhlkBAAAMRpgDAAAwGGEOAADAYIQ5AAAAgxHmAAAADEaYAwAAMBhhDgAAwGCEOQAAAIMR5gAAAAxGmAMAADAYYQ4AAMBghDkAAACDEeYAAAAMRpgDAAAwWEykOxCwlCwVbluuJO/DxiqHyuoj2iMAAICIMyTMJSv3hwv1xTGHKpskpeeqOCdfuU3lnscAAACTlCHDrM2qPGoJbvWfq1GJeiIlop0CAACIOEPCHAAAAAZjZJhbuWWtUluv6A/MmQMAAJOccWFu7oZ8vbT4tt4/WqO7ke4MAABAhBkV5uZuyNeODOnisUpdinRnAAAAJgBjwlxfkGMFKwAAgI8htyZJ0w8yEiVJmdvsyvRtbr2iIwy3AgCAScyQMNegstKGSHcCAABgwjFmmBUAAAADEeYAAAAMRpgDAAAwGGEOAADAYIQ5AAAAgxHmAAAADEaYAwAAMBhhDgAAwGCEOQAAAIMR5gAAAAxGmAMAADAYYQ4AAMBghDkAAACDEeYAAAAMRpgLgb2r1+vMsnj/jYmpOrN5vS6snhOaRgO9fmKqzmxeqb0BX3iVin99WBX7N0varHfKD+v47lWj7t5T/2KX/bf5eu6F0Z03c1e+7L+1e/78S9qo21XBHlWUH1TxGil790FVlO+RffRXwYQ19n+TjxP7/uFfg4h8JgEIm5hIdyBQK7fY9dLivseNVQ6V1UeuP7D4ca7s2S369x01ag3y+a0HyuWQJ9S9PHP8XR2Vgj2qyFmka1U79UaZ5Am2dq3SZR346buqDlIz9v2HlZcqSzuTxJrXdbxwhaZ7Hw58/pv1TvmLWup99LDOoa1v14ala9m7D2pXhjX8dKj20JsqOReW5kdnzetal3pTH+WH57UBMPEYU5m7dMKhklLvn2NXlJSTr9yUSPRks97xVnpGpa1R60+e0Qvn74WkV6G7fq2+vic9bLku6bq+bZeabo3+S+PGPzvk+Em5Pr0Q5O6NpOGBHuq+vj4nVd+6L7U/0FXL7uzdB4esaGQvmK2H7R1KWeDdv2a1lqlDD4Pawc1KT72piqqbWvrs5qBeeWLbrHcKV6ipaqfy8ncq79BlpeRYf65WqfjXLyqlztG7Xxl2vVMw+NXG8m9yRO2XdSDf27+q+1pVOIaf+6AY/jMne+0Sqe4DOUZ72XF8Zgz3cwMg/IypzPlpalKLFoa/XW8lQXUOveH3P/R4/c8NWXp+Rt+Wtua+v+9dvV65T3q3/7lG66929O7LX7ZG//TULf2P040qH2bbcIa7viRpwUpdWGNNvk0BXLWP462dvV8UJT+1fGm+kKXNry1XkiRpvl7+7XLvjts685NK3RhwjGV7oOePKFnPHdmkv0nwPrxxVo5/bujbfe5dbfW9V2W/VF6/ylf12+f1o3K7KvYvUd5bJwdevuG6mtJWK1u10toZunr2upblzNAySdp9ULvSrvtV6bIH2Tasgme0tP2Bfld2R9fKn5Fd8rzWa17X8cIZ+ij/l/5f0gV7VLH2Qe/1/StIN1XR7/j+Fab+1S9fVdDDUn0q2KOKZx+ods4KrUroUG3VdS3LWaHp7daqpLdS6XvtGz8c/DUcRPbu1VraflkHfH05964++ofDWrd2lXSuVirYqFUJN1Xhq8R59+c9u1mStY2TeiN/iDa9lVWfcVX2yj5Q7Vq7lvn6p/6v7cDKnf9rO7API713kob5zPHZrB9lSFcP9X9eof1MGvHnBkBYGVOZ85P+jFJbv9LF0WWS8SnYowpvJaH/F8Le1Vl6vq1OL5w8oxdOnlHl1/6n7js/+HZJKr91S20zFmhtYt+2Z5IT1HajKaAgN9L1lZiqM2sS9MkHnmNe+KBBbQFed0QXanTyJw45/nBbar+if/+JQ46fOOSwBjHfMb+6opaxnD+Cp/5lk/7mm7Pe807p/z2xVpt3JY/iSZzUG/kO1c55URW/fl3ZA/afV/29JVq3ZpXWJT3QR5acWH32uh4mLNE6SzVpXVq8HjacD3gI1v7sIu/x1/Vt+yKl+ypP5+6oSbP15HCVoII92pVxXxXe6tGButnKsz6HNa9rp2V/Xr5/kMvefVB5c/qqTwfqpFWFljmFqSs06+xOVTTGa1XODH2U/6GuWZ6vfb9dq+596L225zUcVbXm3h2/1+lqS4emJy3x9G3BbKnx895wk737oCcYzZk3yHs0mM16J2e2ag/1PfegDtGueV0/0vHeax+ok1bZLa99wR7lpd70vvYO1bZLavywrw8jvXfeY4b6zPHJ3r1aSxvPDxj+Df1n0kg/NwDCyaAwl6zc7XYVF9lVnDNfjTU1uhumlrN3H1SF94thwJymxFT91yebVDnW4c22Rv3H1wlKW+D7H/ocrXiySf/Rv7o2RnvT06Q/1+m/DZHgPIsCDg/4M9Rw1sSSprSnbutMbyWuWZ9W31bS95ZrdNPralXy052quLdCuywLJJYled4Tx2f3tewfNmpWS7+Qdu5dfdQY76nWSJ5h2ISb+ijg0LBZ6akdunq2VlKtPmrosAy1eoa0Pdd9Xce9/cpeMLs3BNmfXaRrVX3VnOq3z/uFLQ9LQOzX9o8y4nXtbF8Fsfrt46q1Bsr2y/qd99/7wwHDeN7h4d6qTK1Kzt7U9LTVAX2xV5+9roepq/uGDte8rp0Z8QMPLNijivLDnmrnoct6mOCtigbE8t6MU/burVplfW/Pvas3LO+zJ9j39c3+7CJLGPW8t9YgOtJ7N+xnTi/Pfx6ufdavMha2z6TBf24AhJ9Bw6zNqjzqUKUkX7ArXHBKh043j3DeeHk+MKXghKvB7LvRpAvpKcq/2qjyBQuU+vUtbQlZa/6q334zaBP5w+6FFCVpvtb/tt/XSPuAGuAoLNK63avksAayss/VVL5a3x6qlc4tUVNh39iV47ObylvrG4ZdItUdD3zuUsEzWtp+XQe8VZXqs9e1s9A31Fqrr+/ZlZ4mZS+YoaZG6ck10lX55i+u0pNzpKU5h1WRY71oh3p7fu5dbU3bowrfMe39F2506NsGjc2aeUrRIuWVH1aedXv75cDOP/euDq89qF2Fh1VR6Dmvoq5D63S975jUF1XhrRxWS55qVr85j0M7qTcOzdPxQrsqyu0achhzOAkrtKv8sHZJg5zfb4jZe4zP1ZYOKcP3Xvav2I703gX4mVOw0bMYJwSLZkb/mTTIzw2AsDEozFk16+L1NmUmz5YU6jBX65knVrBHFYWH9U5aCFYc3rqlxjVpWpvYqGeeSlHjjUtBbmBoA1fteZizsnI08+uGYlmlmu8/180zsb6237ws7/DnOUlln+tazmqtW7NKSpOuOgL/MrM/u0hKkCUweKQXSCrzBIJ1CzZrXZpU73ig9LWrtCwpXk2f1UryVJxGfJ8s8wTt+w9r169fl3oDXbxmpXmfhyRpiWYlDHaRoYwhIFn0/4+Eff9h73PzLFbZlXFfFdb5iAtmS/c+D/w/H5b5ktm7D2pX+R5pNP0dEH6tfe3378U7x7H3ud26r10ZlrDbflkH+gWdod+7wD5zPEP0jtD8Zyygz6Shf24AhJdBw6xWafpBRqIa68daVhiDsl96V9z1u59TW7vuK0UrFnge5i9b0zuxOHD3dPnrBCUnztGKxAb9/lawOi193tyuxKdSlC9JmqMTG9NkmQqj6rff7J33kzfE3KoR/aVFLQkL9dQo7yE37vMvXNHn7fO1fiz3n+vl/UK696HyxnS7kZP6XZ20yr5Vy+4NnLs0XLtPzvF8oVtf94pG9VvVOk+z7n0ux7k7UtpGpc/xVdO8w7I5gQ9vXW2xVnpOqr5RWrq2b76Tb1HC7wJ578+d19X2RcrbH5wVuPb9h5WnD/v+3ZV9rmuyXt87LNx/SDFA1bfuB6Wffnrn/K1Ssb3vFivSKhWvXeT/3vr92wrwvRvqM0fqux3JYJWwsHwmjffnBkAwGVKZS1bu9k3KtEyEish95s69q63nNuud8q0qXlPr/eK+py3nmnRhzXpdkKSv6/Q//pxm+ZCeoxObM9S7qO3JLF34LwNXkO2rb9CZjRnSn2sCXvgQyPXLr9Zp7VNZ+qfNafonteuTD+qkjQvG/BIM6kKNzmTn6+XX7Pqb1yRrtWzmrny9/FxffPQMifarpg15fr+Vqlor+2/XWlasNuvTHaekI5s8271aPj2lkwcCq9hm796qZQ0O5Q34UvSErUBUn72unRkr1HR2FEHDN7+uX3ByfHZTeTne4blb97UrZ4Waqt6VJNXfO+yZVO8bln37Tc+KWutQp6WaNLDqelMVlgqK462d0v7D/YYSA/1irlXJT6XiX9tVUf5i79bAV4wOvIec/3twUm/kS++Uv9h7/VFVi/utZPWtNh1rFbE/x/++rHWFlr7VXdbDDF9lrlYlZzf2DW/7WN6bkd67XoN+5nhuRzK98fwQzyf0n0lD/9wAiATbrHnL3OO5QFJSkjqdrmD1J6SKi+wqKQ3WxzngNdRtRDBJeapWs85aw6dn27KGYNz4eLPeKV+tbyfqTYwB+JkSG6WWlvHM5R6ZIZU5YKLyDLGpzkGQg9cgcw/XrNayhGDd3HiYe+sBmJQIc8CYWFYzNn7IcBMsTuqNqmcGDLOas6gIgGkIc8CY1Pr/NgzAapDfNgIAoWLoalYAAABIhDkAAACjEeYAAAAMRpgDAAAw2KS6zxwAAEA4heM+c1TmAAAADEaYAwAAMBhhDgAAwGDjDnMut0tu97im3QEAADx23G6XXO7QrysYd5hzu9ySCHMAAAD9uVwGhDmn06koBmsBAAD8REVJ3c7u0Lcz3gs4nU7FkOYAAAD8xERFqcvpDHk7405hPT096nG55A7DmDAAAIAJ3G6XelwuuXp6Qt5WUEpq33V0aGpsjNwi0AEAgMnN7XZpaly0vuvoCEt7QQlzLpdL7d91aEpMDBU6AAAwabndLk2NjVF7x3dhWfwgBfE+c86uLnV1dWpaXIxY3QoAACYbt9yaGhujR52P5OzqClu7QV258N133+lhe4emxMXIJubRAQCAx5/b7ZLN5tLUuBi1d3To0aNHYW0/6MtQnc4uPWhtlU1uxU+LU3SU5z50nmBHxQ4AAJiuL9dER3nyjk1uPWhtldMZvoqcj23WvGUhS1g2m01xU+I0JS5O0VHRskVHyWazhao5AACAkHO73XL3uNTT06POri51dXVF9LdhxYTy4m63W52POtX5qDOUzQAAAExa3O0XAADAYIQ5AAAAgxHmAAAADEaYAwAAMBhhDgAAwGCEOQAAAIMR5gAAAAxGmAMAADAYYQ4AAMBghDkAAACDEeYAAAAMRpgDAAAwGGEOAADAYIQ5AAAAgxHmAAAADEaYAwAAMBhhDgAAwGCEOQAAAIMR5gAAAAxGmAMAADAYYQ4AAMBghDkAAACDxYTy4rGxsYqNjVVMTIyio6Nki4qSzWYLZZMAAAAh5Xa75e5xqcflUnd3t5xOp5xOZ8T6E5IwFx0drYT4eNmiouXs6ZGz26Wubrdk65aNYiAAADCYWy7JLdkk2aKiFR8fJ7erR+0dHerp6Ql7f4KerGJj45SYOENOl1td3S653TbJ5qnIEeQAAIDpbIqSzRYl2aLkdtvU1e1St8utxMQZio2NC3t/gpqupk2bpoT4eD1ydgf70gAAABOWW1HqdHYrISFe06ZNDWvbQUtcsXFxio2N0yNnt2xiXhwAAJhsbHrU1ePJRHHhq9AFJczFxMQoYXq8urq7PWVHAACASchms6nL2aOEhHhFx0SHpc2gJK8pU6eq85FTNlt4Og0AADBR2WzR6ux0auqU8Ay3jjvMRUVFKSY2RiLIAQAASJLcNpviYmMVFRX6EctxtxAbFyunszsYfQEAAHgs2BSlzu5uxcbFhrytcYe5mOgYuV3B6AoAAMDjw+3y5KRQG/8wa3S03MHoCQAAwGPELU9OCrVxh7noMIwFAwAAmCgcOSkoLXA7EgAAAH/hykekMAAAAIMR5gAAAAxGmAMAADDYpApzxUX2SHcBAAAgqCZVmAMAAHjcEOYAAAAMRpgDAAAwGGEOAADAYIQ5AAAAgxHmxmDlFrsKNyQPsj1fuSkR6NCw0lRQZFdxkV3FRROxf+GQrNztuVoZ0HF2FaSHoUsAAASJYWHOG0y2Z2lupLqQkqW/W3xbfzzd3Ltp5RZPALjT/NDvcfCMJ2Q0qKzUoZLSs2oMZpeMkKzc7fnKTWnWV63Wx0Mcnr5ambqiP9SHsYsAAIxTTKQ7ELD0XBXnSBfr2pS6JHLdmJuxUKo7o0uWbZdOOKQtdu1YLCnDrqfrTukQgWACaFbl0TPK3W7XSzMlFW1SY5VDZU2DH70yfb4aayp1N6x9BABgfAwJc2kqyGrRkdIaaUO+MiPYjx9kSF8cax72qJZbw+8f7LoFRWuV6nvYekVHjtborjxVvpcWe7fn2FWc422j7pQOnZZyt2/S09dP6VBvpTB5kG0jSM9Vcc5874M2XTxWrkpL4Jm7IV87MhJ7HzdWOVQ2qrA69PPz9Tdzpm/nbb1fWmkJyyPtH402fTNEkOutuJ4Y04UBAIgYQ8Jcg8qONkhS5IZXJc3d8LxSv/xkQGVn5Ra7MuodOtKcq8y6Sn21zq4CBR54Vm5Zq6S6UyoZJHxdOuHQJW+geaJm4DUvXm9T5pLlmitvOEpZrqdntumLugCDXEqWCnOm6+IxhyfApeeqeFuuvvIFppQsbcl4qPdLy8cYoDxBbqjnN3fDemW2nlWJ9/0d7f7hJSt3+3rp9w69vy5XOnFeC7fnK/f3/mFVklauWy7VnRrjcwQAIHIMmzMXScnKXJKoxvqBoeLSCU/Impc83e/xaCQtWT6moHr39CdqnLlQmd55YHMzFirpy08GhJWh+IaNe4+vP6+LrfOV4Tc/r//jwM3d8LxSW6/oxHBVwsXPDL84YaT9Q2pW5dFyVTYla+FM6+P+x6UpY/EoAjAAABOIIZW5CcA7Of7IMCHt0omxVa8unTilhds3aUfRckmjHcZsUN2Xa/V3GcnSaSlziXTx94FXseYlJypp8SYVZ/hv710s0VSjQ1VJKvYN8foNkQZ2fbU2DXn83dPlej/ZrpeK7HpJvuHj5oD3B6ZZlUcrh9w7VMUVAAATEOYCtDJ9vlqunw/R5PhmVR51qFLyDHtuG90w7aX623opa7nmpkhP6yudGGUoGTEg1VeqxNuXlVvs2rFdAQe6O81t0sC7uPjxDCVLniHZTSqUf39G2j8+3oprzViGcQEAiDyGWQMxyO1IQqapSS0DNnpurZGanjb4OfXndVHLteWHC9VSE3jVTPIEwaSM9QHff+5Oc9sgWz23ThnsPnZ3675Sy+K1Ad5W5b6+aR3P/jHgdiQAAMMZUpnrv6JxuWdIcpRDfmPlm4cWmsnx/VZ6ylsp6xcuLp04q4yitSouWtt3TG+4bPYshMh4qD/2DyV+K1Wl1G12ZVpXrNZXqkS5Kt5mt6wS7lsx2n8lq2ffKF7zphodOiYVbutbidv3vvV/XyV9edayUGKk/eMX2oorAAChZ5s1b5l7PBdISkpSp9MVrP6EVHGRXSWljlGelaaCouf1zbHBJs5PHHM35GtH8icqOcFwYcBSslS4LUl/HPOtTgAAGN6U2Ci1tAwccwsmQypzkdSgstIJHpBSsrQlQ7p4bIL3c6JpqtGh0kh3AgCA8SHMmSwlS4XblitJnhWwE7lyCAAAQoMwZ7KmGh0qrYl0LwAAQASxmhUAAMBghDkAAACDEeYAAAAMRpgDAAAwGGEOAADAYIQ5AAAAgxHmAAAADEaYAwAAMBhhDgAAwGCEOQAAAIMR5gAAAAxmzu9mtfxSecnzi+XL6iPaIwAAgIgzJMwlK/eHC/XFMYcqmySl56o4J1+5TeWexwAAAJOUIcOszao8aglu9Z+rUYl6IiWinQIAAIg4Q8IcAAAABmNkmFu5Za1SW6/oD8yZAwAAk5xxYW7uhny9tPi23j9ao7uR7gwAAECEGRXm5m7I144M6eKxSl2KdGcAAAAmAGPCXF+QYwUrAACAjyG3JknTDzISJUmZ2+zK9G1uvaIjDLcCAIBJzJAw16Cy0oZIdwIAAGDCMWaYFQAAAAMR5gAAAAxGmAMAADAYYQ4AAMBghDkAAACDEeYAAAAMRpgDAAAwGGEOAADAYIQ5AAAAgxHmAAAADEaYAwAAMBhhDgAAwGCEOQAAAIMR5gAAAAwWE+kOTBop/6jj21Zo+pcfKu/Ev4/qVPuWI8pb7Pn7wzqHtp6+GIIOSvb9h5WXKqnxQ+W9dTIkbQAAgOAyJsyt3GLXS4v7HjdWOVRWH7727VuOKL1+h96of1nvFK3Wt8f+u0qa/Pevax5r0MpU8Xa7ZtXs0BuDPCfHiR1y+NoY6xMYScEe5aXeVEX+L+UIVRsAACDojAlzl044dMn3ICVLhdvyldtUrsqm4c4Kpg5929vWfX092nab/k1bS4PcpSDKXjBbajxPkAMAwDDGhDk/TU1q0cLwtJX+c1XkLPL8fdsRVXg3Ly06onV1Dh3WVu3KiPdsXGxXRYbd83fLcOpww6TWfco5ooqcwY8LuI/qUG2/qiEAAHh8mRnm0p9RautX+kM4Akv9L5RX/7LeKXpG9aW/kCP956rIeqADR/9N1ZKki6o+Pfww63DDpJ59ww+zDivlH3U8Z7Zqj+3wBLj0n6ti289lL/0FVTYAACYBg8JcsnK3b1LmTM+jxqpK3Y1AL7IXzKwS4MYAAAxoSURBVJZaP/cGucjLzlgi1R3vq8TVf6DaLLvS0yWNIhguS4rXw5broegiAAAIIYPCXLMqjzpUKckT7OwqXHBKh043h7RV6zDo0qIj3q0vqqLoGVVMgOrXsuR4TbcO73pdC/D87N0HtSsjXteqdmprWfD7BwAAQsugMGfVrIvX25SZPFtSaMOc48QOv6HVZeNatRoa47ldSfXbb6pantuSHN/t0Na3a4PbOQAAEFKG3jQ4TT/ISFRjfUP4mmy90zu02nRrYHC62tyh6UtWK3tMF7+or1ulpekvj/pMR/1NTc/YquKUMTXc62pLh6YnLRnfRQAAQNgZUpnzny8nhfc+c9kLZnv/lqknZw5+TPXp41q33a5dRUe0S7KsZn1Z7xS9qKW+A71Dov2raY4THyq96EVVFL0oyVptG+H8+l8oTz9XhWWlrXRzQgwBAwCA0LPNmrfMPZ4LJCUlqdPpClZ/Qqq4yK6SUiLOYLJ3H9SupPP85gcAAIJoSmyUWlpaQtqGocOsCLbqW/elOfPGOEwMAAAihTAHj7JfquLeCu0qP6yK/Zsj3RsAABAgQ+bMIRwcb+1knh0AAIahMgcAAGAwwhwAAIDBCHMAAAAGI8wBAAAYjDAHAABgMMIcAACAwQhzAAAABiPMAQAAGIwwBwAAYDDCHAAAgMEIcyE3VWfem6/j3w/R5X88W9fem63SEF0+3Er3paruZ+H7LXOl+1J17T3Pn3C2GxEFe1Tx69eVHel+AACCyrwwl5KlwiK7irdnaW6k+wLjFe1t1NJXGnXyRqR7AgDA2BgW5pKV+8PlavnydqQ7AgAAMCEYNa40d8N6ZeqKjtQnaUdWpHszSk8nqu612ZohSe33tW9nm37Tu3Oqzrw3T9/zPbxxR0v3PvI7/dWfzdfe56b0Pv7LB41a/78GNuM77sGnXynjX7sHPdevje8nqu61OJ1+pV1/7etDv/6V7kvV5qd8J3bqwq9ua+vHlvZmftvX397r3VeRd3+h7un0zIW91/Dve4yOH16oFxL6uvbg06FfxkH9eLaubUy0nN/33D398b7u1ucdqOHOD+C1k6Ts3Qe1K0OqPfSmSs6N4nmteV3HC2foo/zPlV7+opZKUvtlHfjpu6r2u3a899FNVeT/Uo4Bbcf3bWi/PKAZ+/7DyksdeC4AwAzmVOZSsrQlQ7r4+xrdjXRfRm2KXtgYp9OvNGrpK1/pgmar0DI/q3Rfgv70ime4b+krd/SXp+bpzI/7zvaEsS6d7D1muCDnOc4aZgqfky78yjKc2H5f+/wCTaI2vzdL937lbT9htrb+uO+am5+4r33edvd9Kr3w2ujm6M14bqE2tH7lPb9T3/vbRL3a+9wX6oVv7vQ+r1EPd/54tq5tjOt9fkutz11Tdea12br3gf9rG/jcuEDOH/q1C45FyitfrW8P7VRe/oe6lrBCPyrw7irYo10Z91WRv1N5+Tt1oG628qxz4vrtz6u6GcyOAQAmCGPC3Mp1y6W6M6psinRPxqJTF37lqVRJ3Trzl07N+N603kBTtNe3T5Ie6U83pDnzfYFhqrY+N0V/+cB6zEALe4Oc/3GvZk/XjPaHOuOtpBX9Z5uUEKfl/c7/ywe+apu1fW/b/7ev0vSbf72nC+2J+uvRBJYbd3oD1m+qH+qBr/3vJ2rDU206OZpKmZ8YHf/bRD349F5vpdDq1Z/N0vfa7+t4b/B9pPUftPm99sMJ9PzBX7s+1W+/qbz8UVblLK5V+c49qfpGKWXBKkmS/dlFulbVV02rfvu8riUs0bo1krRKxWv99w/F8dZO5VGVAwBjmTHMmp6rl2Ze0ZETzZHuSVD85naX9n7PsqHfMKFkGWr8fqzmqFOffTHcFRP1wnOSbnw7IPD95naX9j43Xeu/36bffCyV/lWidONOv+Pa9CdLpa9ob6N3f4ykTt0btu0Q6z/MqTZLYI3RnATp3u3uoc6WvnH6DXmO2ojnD/XaBctN1Zf1PXK8tdMbulbpyTnS0pzDqsixHt+h2qC2DwCY6IwIcyvT50sz52tHkbWe5HncWOVQWX3EujYmr86Pk75p94SE7yeqbmOi3zyy0n2p2uA7+GOn7r020hXbdNI7b6vuZ5b5YpL0RZcebEzUC6+l6tprvmNHUwmbojlPS+qtfHkCVNh83KaMj9uG2Nmte+3SnOHOfyJWr+pRbyB7dX6cpK7A2x/v+SF2rWqn3igb+TgAwOPLiGHWSyccKim1/Km6LbVe0ZFS84Jc79Dlf1oDlaX69ePZlsUGkmfobope2JY4wtDgI63/1X3puYV+8+1K/3629OlXvfPJlr4y/HBt/2v+6Yb85rgNHHqUN/B4ntsZvyraCD526p76hmxf/dn8fs99JJ4h6+9tHHwOn2dI1zqHbeCw8XDGe75P9u6Dqig/qOI1ozhpRLX6qKFDS3P2yD7E/q/vSUuf3ex5uOZ1Hc9ZNOiR9v2HQ9A/AEC4GFGZM98US2Ws32rOj9t0+u9na7Nvf/t9XbghPWs5u2hvo7QvVXvfm629GuQa6rtWxtNxurYxVdf+yrPqsuj/3NeG1xbq2nvWA9sGzK0bysC223TyFf85dOsPL/Tu79SFD+5rzsa4AF8Xzxy0axtTdW2jpBt3tO/TWSoM8GxP+7eln83X3vdS5Y0tfatZP25ThqS617zX9+3rfd36rSKW53UK/PzIqn77TWn3Qe0qP6w830bLalfHWx8qvfxFVZS/KOmmKg5d1rpBkt/Vlg5J8Vq2dpV0jkFaADCNbda8Ze7xXCApKUmdTlew+hNSxUV2lZROrmnepftStaHVf+i1dF+qNmuUt+jA46tgjypyZo/+1ikAgBFNiY1SS0tLSNugMvdYi9HCJyS1WrdN1V8/JT34dJhFA5gkNuud8he1VB0EOQAwGGHusdatrcfuq67fMKvfTXUxiZ3UG/knI90JAMA4EeYed8OuBgUAAKYzYjUrAAAABkeYAwAAMBhhDgAAwGCEOQAAAIMR5gAAAAxGmAMAADAYYQ4AAMBghDkAAACDEeYAAAAMRpgDAAAwGGEOAADAYPxu1gBk7z6oXRnxUvtlHfjpu6qOdIcAAAC8jAlzczfka0dGot+2xiqHyupD33b122+qWpJ9/2Ht3L1K1W/Xhr5RAACAABgT5iSppe6UDp1ujlj7js9uKu/ZJZIIcwAAYGJgzhwAAIDBCHMAAAAGM2qYNSljk4ozvA++PKuSEw3h7UDDAz3MeUZ2SY7wtgwAADAoY8Lc3dPlKjnte5Ss3O2bVLxF4Q10597VVr2u4+WHldf4ofLeOhm+tgEAAAZhTJjz16yL19uUmRzmZgv2qGLtAx3I38ntSQAAwIRg5py5lCxtyUhUY32Yh1kl6d4dghwAAJgwDKnMeYZVM2f6Hrfp4jGHKpsi2ScAAIDIMyTMNavyqEOVke4GAADABGPmMGuE2J9dpIct1yPdDQAAgF6GVOYiq/d3s+qmKvL57Q8AAGDiIMwFwPe7WQEAACYahlkBAAAMRpgDAAAwGGEOAADAYIQ5AAAAg9lmzVvmHs8FkpKS1Ol0Bas/AAAAj40psVFqaWkJaRtU5gAAAAxGmAMAADAYYQ4AAMBg4w5zLrdLbve4pt0BAAA8dtxul1zu0K8rGHeYc7vckghzAAAA/blcBoQ5p9OpKAZrAQAA/ERFSd3O7tC3M94LOJ1OxZDmAAAA/MRERanL6Qx5O+NOYT09PepxueQOw5gwAACACdxul3pcLrl6ekLeVlBKat91dGhqbIzcItABAIDJze12aWpctL7r6AhLe0EJcy6XS+3fdWhKTAwVOgAAMGm53S5NjY1Re8d3YVn8IAXxPnPOri51dXVqWlyMWN0KAAAmG7fcmhobo0edj+Ts6gpbu0FdufDdd9/pYXuHpsTFyCbm0QEAgMef2+2SzebS1LgYtXd06NGjR2FtP+jLUJ3OLj1obZVNbsVPi1N0lOc+dJ5gR8UOAACYri/XREd58o5Nbj1obZXTGb6KnI9t1rxlIUtYNptNcVPiNCUuTtFR0bJFR8lms4WqOQAAgJBzu91y97jU09Ojzq4udXV1RfS3YcWE8uJut1udjzrV+agzlM0AAABMWtztFwAAwGCEOQAAAIMR5gAAAAxGmAMAADAYYQ4AAMBghDkAAACDEeYAAAAMRpgDAAAwGGEOAADAYIQ5AAAAgxHmAAAADEaYAwAAMBhhDgAAwGCEOQAAAIMR5gAAAAxGmAMAADDY/wco4aI454+rogAAAABJRU5ErkJggg==&quot;&gt;" style="whiteSpace=wrap;html=1;" parent="1" vertex="1">
                    <mxGeometry x="2105" y="1280" width="370" height="150" as="geometry"/>
                </mxCell>
                <mxCell id="41" value="" style="edgeStyle=none;html=1;" edge="1" parent="1" source="39" target="40">
                    <mxGeometry relative="1" as="geometry"/>
                </mxCell>
                <mxCell id="39" value="selector por agrupacion" style="whiteSpace=wrap;html=1;" vertex="1" parent="1">
                    <mxGeometry x="1080" y="1530" width="120" height="60" as="geometry"/>
                </mxCell>
                <mxCell id="44" value="" style="edgeStyle=none;html=1;" edge="1" parent="1" source="40" target="43">
                    <mxGeometry relative="1" as="geometry"/>
                </mxCell>
                <mxCell id="40" value="&#10;&lt;font style=&quot;border: 0px solid rgb(229, 231, 235); box-sizing: border-box; --tw-border-spacing-x: 0; --tw-border-spacing-y: 0; --tw-translate-x: 0; --tw-translate-y: 0; --tw-rotate: 0; --tw-skew-x: 0; --tw-skew-y: 0; --tw-scale-x: 1; --tw-scale-y: 1; --tw-pan-x: ; --tw-pan-y: ; --tw-pinch-zoom: ; --tw-scroll-snap-strictness: proximity; --tw-gradient-from-position: ; --tw-gradient-via-position: ; --tw-gradient-to-position: ; --tw-ordinal: ; --tw-slashed-zero: ; --tw-numeric-figure: ; --tw-numeric-spacing: ; --tw-numeric-fraction: ; --tw-ring-inset: ; --tw-ring-offset-width: 0px; --tw-ring-offset-color: #fff; --tw-ring-color: rgba(59,130,246,.5); --tw-ring-offset-shadow: 0 0 #0000; --tw-ring-shadow: 0 0 #0000; --tw-shadow: 0 0 #0000; --tw-shadow-colored: 0 0 #0000; --tw-blur: ; --tw-brightness: ; --tw-contrast: ; --tw-grayscale: ; --tw-hue-rotate: ; --tw-invert: ; --tw-saturate: ; --tw-sepia: ; --tw-drop-shadow: ; --tw-backdrop-blur: ; --tw-backdrop-brightness: ; --tw-backdrop-contrast: ; --tw-backdrop-grayscale: ; --tw-backdrop-hue-rotate: ; --tw-backdrop-invert: ; --tw-backdrop-opacity: ; --tw-backdrop-saturate: ; --tw-backdrop-sepia: ; color: rgb(209, 213, 219); font-family: Inter, &amp;quot;Helvetica Neue&amp;quot;, Helvetica, Arial, sans-serif; font-size: 16px; font-style: normal; font-variant-ligatures: normal; font-variant-caps: normal; font-weight: 400; letter-spacing: normal; orphans: 2; text-align: start; text-indent: 0px; text-transform: none; widows: 2; word-spacing: 0px; -webkit-text-stroke-width: 0px; background-color: rgb(17, 24, 39); text-decoration-thickness: initial; text-decoration-style: initial; text-decoration-color: initial; vertical-align: inherit;&quot;&gt;&lt;font style=&quot;border: 0px solid rgb(229, 231, 235); box-sizing: border-box; --tw-border-spacing-x: 0; --tw-border-spacing-y: 0; --tw-translate-x: 0; --tw-translate-y: 0; --tw-rotate: 0; --tw-skew-x: 0; --tw-skew-y: 0; --tw-scale-x: 1; --tw-scale-y: 1; --tw-pan-x: ; --tw-pan-y: ; --tw-pinch-zoom: ; --tw-scroll-snap-strictness: proximity; --tw-gradient-from-position: ; --tw-gradient-via-position: ; --tw-gradient-to-position: ; --tw-ordinal: ; --tw-slashed-zero: ; --tw-numeric-figure: ; --tw-numeric-spacing: ; --tw-numeric-fraction: ; --tw-ring-inset: ; --tw-ring-offset-width: 0px; --tw-ring-offset-color: #fff; --tw-ring-color: rgba(59,130,246,.5); --tw-ring-offset-shadow: 0 0 #0000; --tw-ring-shadow: 0 0 #0000; --tw-shadow: 0 0 #0000; --tw-shadow-colored: 0 0 #0000; --tw-blur: ; --tw-brightness: ; --tw-contrast: ; --tw-grayscale: ; --tw-hue-rotate: ; --tw-invert: ; --tw-saturate: ; --tw-sepia: ; --tw-drop-shadow: ; --tw-backdrop-blur: ; --tw-backdrop-brightness: ; --tw-backdrop-contrast: ; --tw-backdrop-grayscale: ; --tw-backdrop-hue-rotate: ; --tw-backdrop-invert: ; --tw-backdrop-opacity: ; --tw-backdrop-saturate: ; --tw-backdrop-sepia: ; vertical-align: inherit;&quot; class=&quot;&quot;&gt;Tanto nuestros selectores&lt;span&gt;&amp;nbsp;&lt;/span&gt;&lt;/font&gt;&lt;/font&gt;&lt;code style=&quot;border: 0px solid rgb(229, 231, 235); box-sizing: border-box; --tw-border-spacing-x: 0; --tw-border-spacing-y: 0; --tw-translate-x: 0; --tw-translate-y: 0; --tw-rotate: 0; --tw-skew-x: 0; --tw-skew-y: 0; --tw-scale-x: 1; --tw-scale-y: 1; --tw-pan-x: ; --tw-pan-y: ; --tw-pinch-zoom: ; --tw-scroll-snap-strictness: proximity; --tw-gradient-from-position: ; --tw-gradient-via-position: ; --tw-gradient-to-position: ; --tw-ordinal: ; --tw-slashed-zero: ; --tw-numeric-figure: ; --tw-numeric-spacing: ; --tw-numeric-fraction: ; --tw-ring-inset: ; --tw-ring-offset-width: 0px; --tw-ring-offset-color: #fff; --tw-ring-color: rgba(59,130,246,.5); --tw-ring-offset-shadow: 0 0 #0000; --tw-ring-shadow: 0 0 #0000; --tw-shadow: 0 0 #0000; --tw-shadow-colored: 0 0 #0000; --tw-blur: ; --tw-brightness: ; --tw-contrast: ; --tw-grayscale: ; --tw-hue-rotate: ; --tw-invert: ; --tw-saturate: ; --tw-sepia: ; --tw-drop-shadow: ; --tw-backdrop-blur: ; --tw-backdrop-brightness: ; --tw-backdrop-contrast: ; --tw-backdrop-grayscale: ; --tw-backdrop-hue-rotate: ; --tw-backdrop-invert: ; --tw-backdrop-opacity: ; --tw-backdrop-saturate: ; --tw-backdrop-sepia: ; font-family: ui-monospace, SFMono-Regular, Menlo, Monaco, Consolas, &amp;quot;Liberation Mono&amp;quot;, &amp;quot;Courier New&amp;quot;, monospace; font-size: 0.875em; color: var(--tw-prose-code); font-weight: 400; border-radius: 0.375rem; --tw-bg-opacity: 1; background-color: rgba(55, 65, 81, 0.4); padding: 0.25rem; font-style: normal; font-variant-ligatures: normal; font-variant-caps: normal; letter-spacing: normal; orphans: 2; text-align: start; text-indent: 0px; text-transform: none; widows: 2; word-spacing: 0px; -webkit-text-stroke-width: 0px; text-decoration-thickness: initial; text-decoration-style: initial; text-decoration-color: initial;&quot;&gt;.read&lt;/code&gt;&lt;font style=&quot;border: 0px solid rgb(229, 231, 235); box-sizing: border-box; --tw-border-spacing-x: 0; --tw-border-spacing-y: 0; --tw-translate-x: 0; --tw-translate-y: 0; --tw-rotate: 0; --tw-skew-x: 0; --tw-skew-y: 0; --tw-scale-x: 1; --tw-scale-y: 1; --tw-pan-x: ; --tw-pan-y: ; --tw-pinch-zoom: ; --tw-scroll-snap-strictness: proximity; --tw-gradient-from-position: ; --tw-gradient-via-position: ; --tw-gradient-to-position: ; --tw-ordinal: ; --tw-slashed-zero: ; --tw-numeric-figure: ; --tw-numeric-spacing: ; --tw-numeric-fraction: ; --tw-ring-inset: ; --tw-ring-offset-width: 0px; --tw-ring-offset-color: #fff; --tw-ring-color: rgba(59,130,246,.5); --tw-ring-offset-shadow: 0 0 #0000; --tw-ring-shadow: 0 0 #0000; --tw-shadow: 0 0 #0000; --tw-shadow-colored: 0 0 #0000; --tw-blur: ; --tw-brightness: ; --tw-contrast: ; --tw-grayscale: ; --tw-hue-rotate: ; --tw-invert: ; --tw-saturate: ; --tw-sepia: ; --tw-drop-shadow: ; --tw-backdrop-blur: ; --tw-backdrop-brightness: ; --tw-backdrop-contrast: ; --tw-backdrop-grayscale: ; --tw-backdrop-hue-rotate: ; --tw-backdrop-invert: ; --tw-backdrop-opacity: ; --tw-backdrop-saturate: ; --tw-backdrop-sepia: ; color: rgb(209, 213, 219); font-family: Inter, &amp;quot;Helvetica Neue&amp;quot;, Helvetica, Arial, sans-serif; font-size: 16px; font-style: normal; font-variant-ligatures: normal; font-variant-caps: normal; font-weight: 400; letter-spacing: normal; orphans: 2; text-align: start; text-indent: 0px; text-transform: none; widows: 2; word-spacing: 0px; -webkit-text-stroke-width: 0px; background-color: rgb(17, 24, 39); text-decoration-thickness: initial; text-decoration-style: initial; text-decoration-color: initial; vertical-align: inherit;&quot;&gt;&lt;font style=&quot;border: 0px solid rgb(229, 231, 235); box-sizing: border-box; --tw-border-spacing-x: 0; --tw-border-spacing-y: 0; --tw-translate-x: 0; --tw-translate-y: 0; --tw-rotate: 0; --tw-skew-x: 0; --tw-skew-y: 0; --tw-scale-x: 1; --tw-scale-y: 1; --tw-pan-x: ; --tw-pan-y: ; --tw-pinch-zoom: ; --tw-scroll-snap-strictness: proximity; --tw-gradient-from-position: ; --tw-gradient-via-position: ; --tw-gradient-to-position: ; --tw-ordinal: ; --tw-slashed-zero: ; --tw-numeric-figure: ; --tw-numeric-spacing: ; --tw-numeric-fraction: ; --tw-ring-inset: ; --tw-ring-offset-width: 0px; --tw-ring-offset-color: #fff; --tw-ring-color: rgba(59,130,246,.5); --tw-ring-offset-shadow: 0 0 #0000; --tw-ring-shadow: 0 0 #0000; --tw-shadow: 0 0 #0000; --tw-shadow-colored: 0 0 #0000; --tw-blur: ; --tw-brightness: ; --tw-contrast: ; --tw-grayscale: ; --tw-hue-rotate: ; --tw-invert: ; --tw-saturate: ; --tw-sepia: ; --tw-drop-shadow: ; --tw-backdrop-blur: ; --tw-backdrop-brightness: ; --tw-backdrop-contrast: ; --tw-backdrop-grayscale: ; --tw-backdrop-hue-rotate: ; --tw-backdrop-invert: ; --tw-backdrop-opacity: ; --tw-backdrop-saturate: ; --tw-backdrop-sepia: ; vertical-align: inherit;&quot; class=&quot;&quot;&gt;como&lt;span&gt;&amp;nbsp;&lt;/span&gt;&lt;/font&gt;&lt;/font&gt;&lt;code style=&quot;border: 0px solid rgb(229, 231, 235); box-sizing: border-box; --tw-border-spacing-x: 0; --tw-border-spacing-y: 0; --tw-translate-x: 0; --tw-translate-y: 0; --tw-rotate: 0; --tw-skew-x: 0; --tw-skew-y: 0; --tw-scale-x: 1; --tw-scale-y: 1; --tw-pan-x: ; --tw-pan-y: ; --tw-pinch-zoom: ; --tw-scroll-snap-strictness: proximity; --tw-gradient-from-position: ; --tw-gradient-via-position: ; --tw-gradient-to-position: ; --tw-ordinal: ; --tw-slashed-zero: ; --tw-numeric-figure: ; --tw-numeric-spacing: ; --tw-numeric-fraction: ; --tw-ring-inset: ; --tw-ring-offset-width: 0px; --tw-ring-offset-color: #fff; --tw-ring-color: rgba(59,130,246,.5); --tw-ring-offset-shadow: 0 0 #0000; --tw-ring-shadow: 0 0 #0000; --tw-shadow: 0 0 #0000; --tw-shadow-colored: 0 0 #0000; --tw-blur: ; --tw-brightness: ; --tw-contrast: ; --tw-grayscale: ; --tw-hue-rotate: ; --tw-invert: ; --tw-saturate: ; --tw-sepia: ; --tw-drop-shadow: ; --tw-backdrop-blur: ; --tw-backdrop-brightness: ; --tw-backdrop-contrast: ; --tw-backdrop-grayscale: ; --tw-backdrop-hue-rotate: ; --tw-backdrop-invert: ; --tw-backdrop-opacity: ; --tw-backdrop-saturate: ; --tw-backdrop-sepia: ; font-family: ui-monospace, SFMono-Regular, Menlo, Monaco, Consolas, &amp;quot;Liberation Mono&amp;quot;, &amp;quot;Courier New&amp;quot;, monospace; font-size: 0.875em; color: var(--tw-prose-code); font-weight: 400; border-radius: 0.375rem; --tw-bg-opacity: 1; background-color: rgba(55, 65, 81, 0.4); padding: 0.25rem; font-style: normal; font-variant-ligatures: normal; font-variant-caps: normal; letter-spacing: normal; orphans: 2; text-align: start; text-indent: 0px; text-transform: none; widows: 2; word-spacing: 0px; -webkit-text-stroke-width: 0px; text-decoration-thickness: initial; text-decoration-style: initial; text-decoration-color: initial;&quot;&gt;.unread&lt;/code&gt;&lt;font style=&quot;border: 0px solid rgb(229, 231, 235); box-sizing: border-box; --tw-border-spacing-x: 0; --tw-border-spacing-y: 0; --tw-translate-x: 0; --tw-translate-y: 0; --tw-rotate: 0; --tw-skew-x: 0; --tw-skew-y: 0; --tw-scale-x: 1; --tw-scale-y: 1; --tw-pan-x: ; --tw-pan-y: ; --tw-pinch-zoom: ; --tw-scroll-snap-strictness: proximity; --tw-gradient-from-position: ; --tw-gradient-via-position: ; --tw-gradient-to-position: ; --tw-ordinal: ; --tw-slashed-zero: ; --tw-numeric-figure: ; --tw-numeric-spacing: ; --tw-numeric-fraction: ; --tw-ring-inset: ; --tw-ring-offset-width: 0px; --tw-ring-offset-color: #fff; --tw-ring-color: rgba(59,130,246,.5); --tw-ring-offset-shadow: 0 0 #0000; --tw-ring-shadow: 0 0 #0000; --tw-shadow: 0 0 #0000; --tw-shadow-colored: 0 0 #0000; --tw-blur: ; --tw-brightness: ; --tw-contrast: ; --tw-grayscale: ; --tw-hue-rotate: ; --tw-invert: ; --tw-saturate: ; --tw-sepia: ; --tw-drop-shadow: ; --tw-backdrop-blur: ; --tw-backdrop-brightness: ; --tw-backdrop-contrast: ; --tw-backdrop-grayscale: ; --tw-backdrop-hue-rotate: ; --tw-backdrop-invert: ; --tw-backdrop-opacity: ; --tw-backdrop-saturate: ; --tw-backdrop-sepia: ; color: rgb(209, 213, 219); font-family: Inter, &amp;quot;Helvetica Neue&amp;quot;, Helvetica, Arial, sans-serif; font-size: 16px; font-style: normal; font-variant-ligatures: normal; font-variant-caps: normal; font-weight: 400; letter-spacing: normal; orphans: 2; text-align: start; text-indent: 0px; text-transform: none; widows: 2; word-spacing: 0px; -webkit-text-stroke-width: 0px; background-color: rgb(17, 24, 39); text-decoration-thickness: initial; text-decoration-style: initial; text-decoration-color: initial; vertical-align: inherit;&quot;&gt;&lt;font style=&quot;border: 0px solid rgb(229, 231, 235); box-sizing: border-box; --tw-border-spacing-x: 0; --tw-border-spacing-y: 0; --tw-translate-x: 0; --tw-translate-y: 0; --tw-rotate: 0; --tw-skew-x: 0; --tw-skew-y: 0; --tw-scale-x: 1; --tw-scale-y: 1; --tw-pan-x: ; --tw-pan-y: ; --tw-pinch-zoom: ; --tw-scroll-snap-strictness: proximity; --tw-gradient-from-position: ; --tw-gradient-via-position: ; --tw-gradient-to-position: ; --tw-ordinal: ; --tw-slashed-zero: ; --tw-numeric-figure: ; --tw-numeric-spacing: ; --tw-numeric-fraction: ; --tw-ring-inset: ; --tw-ring-offset-width: 0px; --tw-ring-offset-color: #fff; --tw-ring-color: rgba(59,130,246,.5); --tw-ring-offset-shadow: 0 0 #0000; --tw-ring-shadow: 0 0 #0000; --tw-shadow: 0 0 #0000; --tw-shadow-colored: 0 0 #0000; --tw-blur: ; --tw-brightness: ; --tw-contrast: ; --tw-grayscale: ; --tw-hue-rotate: ; --tw-invert: ; --tw-saturate: ; --tw-sepia: ; --tw-drop-shadow: ; --tw-backdrop-blur: ; --tw-backdrop-brightness: ; --tw-backdrop-contrast: ; --tw-backdrop-grayscale: ; --tw-backdrop-hue-rotate: ; --tw-backdrop-invert: ; --tw-backdrop-opacity: ; --tw-backdrop-saturate: ; --tw-backdrop-sepia: ; vertical-align: inherit;&quot; class=&quot;&quot;&gt;comparten las declaraciones&lt;span&gt;&amp;nbsp;&lt;/span&gt;&lt;/font&gt;&lt;/font&gt;&lt;code style=&quot;border: 0px solid rgb(229, 231, 235); box-sizing: border-box; --tw-border-spacing-x: 0; --tw-border-spacing-y: 0; --tw-translate-x: 0; --tw-translate-y: 0; --tw-rotate: 0; --tw-skew-x: 0; --tw-skew-y: 0; --tw-scale-x: 1; --tw-scale-y: 1; --tw-pan-x: ; --tw-pan-y: ; --tw-pinch-zoom: ; --tw-scroll-snap-strictness: proximity; --tw-gradient-from-position: ; --tw-gradient-via-position: ; --tw-gradient-to-position: ; --tw-ordinal: ; --tw-slashed-zero: ; --tw-numeric-figure: ; --tw-numeric-spacing: ; --tw-numeric-fraction: ; --tw-ring-inset: ; --tw-ring-offset-width: 0px; --tw-ring-offset-color: #fff; --tw-ring-color: rgba(59,130,246,.5); --tw-ring-offset-shadow: 0 0 #0000; --tw-ring-shadow: 0 0 #0000; --tw-shadow: 0 0 #0000; --tw-shadow-colored: 0 0 #0000; --tw-blur: ; --tw-brightness: ; --tw-contrast: ; --tw-grayscale: ; --tw-hue-rotate: ; --tw-invert: ; --tw-saturate: ; --tw-sepia: ; --tw-drop-shadow: ; --tw-backdrop-blur: ; --tw-backdrop-brightness: ; --tw-backdrop-contrast: ; --tw-backdrop-grayscale: ; --tw-backdrop-hue-rotate: ; --tw-backdrop-invert: ; --tw-backdrop-opacity: ; --tw-backdrop-saturate: ; --tw-backdrop-sepia: ; font-family: ui-monospace, SFMono-Regular, Menlo, Monaco, Consolas, &amp;quot;Liberation Mono&amp;quot;, &amp;quot;Courier New&amp;quot;, monospace; font-size: 0.875em; color: var(--tw-prose-code); font-weight: 400; border-radius: 0.375rem; --tw-bg-opacity: 1; background-color: rgba(55, 65, 81, 0.4); padding: 0.25rem; font-style: normal; font-variant-ligatures: normal; font-variant-caps: normal; letter-spacing: normal; orphans: 2; text-align: start; text-indent: 0px; text-transform: none; widows: 2; word-spacing: 0px; -webkit-text-stroke-width: 0px; text-decoration-thickness: initial; text-decoration-style: initial; text-decoration-color: initial;&quot;&gt;color: white;&lt;/code&gt;&lt;font style=&quot;border: 0px solid rgb(229, 231, 235); box-sizing: border-box; --tw-border-spacing-x: 0; --tw-border-spacing-y: 0; --tw-translate-x: 0; --tw-translate-y: 0; --tw-rotate: 0; --tw-skew-x: 0; --tw-skew-y: 0; --tw-scale-x: 1; --tw-scale-y: 1; --tw-pan-x: ; --tw-pan-y: ; --tw-pinch-zoom: ; --tw-scroll-snap-strictness: proximity; --tw-gradient-from-position: ; --tw-gradient-via-position: ; --tw-gradient-to-position: ; --tw-ordinal: ; --tw-slashed-zero: ; --tw-numeric-figure: ; --tw-numeric-spacing: ; --tw-numeric-fraction: ; --tw-ring-inset: ; --tw-ring-offset-width: 0px; --tw-ring-offset-color: #fff; --tw-ring-color: rgba(59,130,246,.5); --tw-ring-offset-shadow: 0 0 #0000; --tw-ring-shadow: 0 0 #0000; --tw-shadow: 0 0 #0000; --tw-shadow-colored: 0 0 #0000; --tw-blur: ; --tw-brightness: ; --tw-contrast: ; --tw-grayscale: ; --tw-hue-rotate: ; --tw-invert: ; --tw-saturate: ; --tw-sepia: ; --tw-drop-shadow: ; --tw-backdrop-blur: ; --tw-backdrop-brightness: ; --tw-backdrop-contrast: ; --tw-backdrop-grayscale: ; --tw-backdrop-hue-rotate: ; --tw-backdrop-invert: ; --tw-backdrop-opacity: ; --tw-backdrop-saturate: ; --tw-backdrop-sepia: ; color: rgb(209, 213, 219); font-family: Inter, &amp;quot;Helvetica Neue&amp;quot;, Helvetica, Arial, sans-serif; font-size: 16px; font-style: normal; font-variant-ligatures: normal; font-variant-caps: normal; font-weight: 400; letter-spacing: normal; orphans: 2; text-align: start; text-indent: 0px; text-transform: none; widows: 2; word-spacing: 0px; -webkit-text-stroke-width: 0px; background-color: rgb(17, 24, 39); text-decoration-thickness: initial; text-decoration-style: initial; text-decoration-color: initial; vertical-align: inherit;&quot;&gt;&lt;font style=&quot;border: 0px solid rgb(229, 231, 235); box-sizing: border-box; --tw-border-spacing-x: 0; --tw-border-spacing-y: 0; --tw-translate-x: 0; --tw-translate-y: 0; --tw-rotate: 0; --tw-skew-x: 0; --tw-skew-y: 0; --tw-scale-x: 1; --tw-scale-y: 1; --tw-pan-x: ; --tw-pan-y: ; --tw-pinch-zoom: ; --tw-scroll-snap-strictness: proximity; --tw-gradient-from-position: ; --tw-gradient-via-position: ; --tw-gradient-to-position: ; --tw-ordinal: ; --tw-slashed-zero: ; --tw-numeric-figure: ; --tw-numeric-spacing: ; --tw-numeric-fraction: ; --tw-ring-inset: ; --tw-ring-offset-width: 0px; --tw-ring-offset-color: #fff; --tw-ring-color: rgba(59,130,246,.5); --tw-ring-offset-shadow: 0 0 #0000; --tw-ring-shadow: 0 0 #0000; --tw-shadow: 0 0 #0000; --tw-shadow-colored: 0 0 #0000; --tw-blur: ; --tw-brightness: ; --tw-contrast: ; --tw-grayscale: ; --tw-hue-rotate: ; --tw-invert: ; --tw-saturate: ; --tw-sepia: ; --tw-drop-shadow: ; --tw-backdrop-blur: ; --tw-backdrop-brightness: ; --tw-backdrop-contrast: ; --tw-backdrop-grayscale: ; --tw-backdrop-hue-rotate: ; --tw-backdrop-invert: ; --tw-backdrop-opacity: ; --tw-backdrop-saturate: ; --tw-backdrop-sepia: ; vertical-align: inherit;&quot; class=&quot;&quot;&gt;y&lt;span&gt;&amp;nbsp;&lt;/span&gt;&lt;/font&gt;&lt;/font&gt;&lt;code style=&quot;border: 0px solid rgb(229, 231, 235); box-sizing: border-box; --tw-border-spacing-x: 0; --tw-border-spacing-y: 0; --tw-translate-x: 0; --tw-translate-y: 0; --tw-rotate: 0; --tw-skew-x: 0; --tw-skew-y: 0; --tw-scale-x: 1; --tw-scale-y: 1; --tw-pan-x: ; --tw-pan-y: ; --tw-pinch-zoom: ; --tw-scroll-snap-strictness: proximity; --tw-gradient-from-position: ; --tw-gradient-via-position: ; --tw-gradient-to-position: ; --tw-ordinal: ; --tw-slashed-zero: ; --tw-numeric-figure: ; --tw-numeric-spacing: ; --tw-numeric-fraction: ; --tw-ring-inset: ; --tw-ring-offset-width: 0px; --tw-ring-offset-color: #fff; --tw-ring-color: rgba(59,130,246,.5); --tw-ring-offset-shadow: 0 0 #0000; --tw-ring-shadow: 0 0 #0000; --tw-shadow: 0 0 #0000; --tw-shadow-colored: 0 0 #0000; --tw-blur: ; --tw-brightness: ; --tw-contrast: ; --tw-grayscale: ; --tw-hue-rotate: ; --tw-invert: ; --tw-saturate: ; --tw-sepia: ; --tw-drop-shadow: ; --tw-backdrop-blur: ; --tw-backdrop-brightness: ; --tw-backdrop-contrast: ; --tw-backdrop-grayscale: ; --tw-backdrop-hue-rotate: ; --tw-backdrop-invert: ; --tw-backdrop-opacity: ; --tw-backdrop-saturate: ; --tw-backdrop-sepia: ; font-family: ui-monospace, SFMono-Regular, Menlo, Monaco, Consolas, &amp;quot;Liberation Mono&amp;quot;, &amp;quot;Courier New&amp;quot;, monospace; font-size: 0.875em; color: var(--tw-prose-code); font-weight: 400; border-radius: 0.375rem; --tw-bg-opacity: 1; background-color: rgba(55, 65, 81, 0.4); padding: 0.25rem; font-style: normal; font-variant-ligatures: normal; font-variant-caps: normal; letter-spacing: normal; orphans: 2; text-align: start; text-indent: 0px; text-transform: none; widows: 2; word-spacing: 0px; -webkit-text-stroke-width: 0px; text-decoration-thickness: initial; text-decoration-style: initial; text-decoration-color: initial;&quot;&gt;background-color: black;&lt;/code&gt;&lt;font style=&quot;border: 0px solid rgb(229, 231, 235); box-sizing: border-box; --tw-border-spacing-x: 0; --tw-border-spacing-y: 0; --tw-translate-x: 0; --tw-translate-y: 0; --tw-rotate: 0; --tw-skew-x: 0; --tw-skew-y: 0; --tw-scale-x: 1; --tw-scale-y: 1; --tw-pan-x: ; --tw-pan-y: ; --tw-pinch-zoom: ; --tw-scroll-snap-strictness: proximity; --tw-gradient-from-position: ; --tw-gradient-via-position: ; --tw-gradient-to-position: ; --tw-ordinal: ; --tw-slashed-zero: ; --tw-numeric-figure: ; --tw-numeric-spacing: ; --tw-numeric-fraction: ; --tw-ring-inset: ; --tw-ring-offset-width: 0px; --tw-ring-offset-color: #fff; --tw-ring-color: rgba(59,130,246,.5); --tw-ring-offset-shadow: 0 0 #0000; --tw-ring-shadow: 0 0 #0000; --tw-shadow: 0 0 #0000; --tw-shadow-colored: 0 0 #0000; --tw-blur: ; --tw-brightness: ; --tw-contrast: ; --tw-grayscale: ; --tw-hue-rotate: ; --tw-invert: ; --tw-saturate: ; --tw-sepia: ; --tw-drop-shadow: ; --tw-backdrop-blur: ; --tw-backdrop-brightness: ; --tw-backdrop-contrast: ; --tw-backdrop-grayscale: ; --tw-backdrop-hue-rotate: ; --tw-backdrop-invert: ; --tw-backdrop-opacity: ; --tw-backdrop-saturate: ; --tw-backdrop-sepia: ; color: rgb(209, 213, 219); font-family: Inter, &amp;quot;Helvetica Neue&amp;quot;, Helvetica, Arial, sans-serif; font-size: 16px; font-style: normal; font-variant-ligatures: normal; font-variant-caps: normal; font-weight: 400; letter-spacing: normal; orphans: 2; text-align: start; text-indent: 0px; text-transform: none; widows: 2; word-spacing: 0px; -webkit-text-stroke-width: 0px; background-color: rgb(17, 24, 39); text-decoration-thickness: initial; text-decoration-style: initial; text-decoration-color: initial; vertical-align: inherit;&quot;&gt;&lt;font style=&quot;border: 0px solid rgb(229, 231, 235); box-sizing: border-box; --tw-border-spacing-x: 0; --tw-border-spacing-y: 0; --tw-translate-x: 0; --tw-translate-y: 0; --tw-rotate: 0; --tw-skew-x: 0; --tw-skew-y: 0; --tw-scale-x: 1; --tw-scale-y: 1; --tw-pan-x: ; --tw-pan-y: ; --tw-pinch-zoom: ; --tw-scroll-snap-strictness: proximity; --tw-gradient-from-position: ; --tw-gradient-via-position: ; --tw-gradient-to-position: ; --tw-ordinal: ; --tw-slashed-zero: ; --tw-numeric-figure: ; --tw-numeric-spacing: ; --tw-numeric-fraction: ; --tw-ring-inset: ; --tw-ring-offset-width: 0px; --tw-ring-offset-color: #fff; --tw-ring-color: rgba(59,130,246,.5); --tw-ring-offset-shadow: 0 0 #0000; --tw-ring-shadow: 0 0 #0000; --tw-shadow: 0 0 #0000; --tw-shadow-colored: 0 0 #0000; --tw-blur: ; --tw-brightness: ; --tw-contrast: ; --tw-grayscale: ; --tw-hue-rotate: ; --tw-invert: ; --tw-saturate: ; --tw-sepia: ; --tw-drop-shadow: ; --tw-backdrop-blur: ; --tw-backdrop-brightness: ; --tw-backdrop-contrast: ; --tw-backdrop-grayscale: ; --tw-backdrop-hue-rotate: ; --tw-backdrop-invert: ; --tw-backdrop-opacity: ; --tw-backdrop-saturate: ; --tw-backdrop-sepia: ; vertical-align: inherit;&quot; class=&quot;&quot;&gt;, pero por lo demás tienen varias declaraciones únicas.&lt;span&gt;&amp;nbsp;&lt;/span&gt;&lt;/font&gt;&lt;font style=&quot;border: 0px solid rgb(229, 231, 235); box-sizing: border-box; --tw-border-spacing-x: 0; --tw-border-spacing-y: 0; --tw-translate-x: 0; --tw-translate-y: 0; --tw-rotate: 0; --tw-skew-x: 0; --tw-skew-y: 0; --tw-scale-x: 1; --tw-scale-y: 1; --tw-pan-x: ; --tw-pan-y: ; --tw-pinch-zoom: ; --tw-scroll-snap-strictness: proximity; --tw-gradient-from-position: ; --tw-gradient-via-position: ; --tw-gradient-to-position: ; --tw-ordinal: ; --tw-slashed-zero: ; --tw-numeric-figure: ; --tw-numeric-spacing: ; --tw-numeric-fraction: ; --tw-ring-inset: ; --tw-ring-offset-width: 0px; --tw-ring-offset-color: #fff; --tw-ring-color: rgba(59,130,246,.5); --tw-ring-offset-shadow: 0 0 #0000; --tw-ring-shadow: 0 0 #0000; --tw-shadow: 0 0 #0000; --tw-shadow-colored: 0 0 #0000; --tw-blur: ; --tw-brightness: ; --tw-contrast: ; --tw-grayscale: ; --tw-hue-rotate: ; --tw-invert: ; --tw-saturate: ; --tw-sepia: ; --tw-drop-shadow: ; --tw-backdrop-blur: ; --tw-backdrop-brightness: ; --tw-backdrop-contrast: ; --tw-backdrop-grayscale: ; --tw-backdrop-hue-rotate: ; --tw-backdrop-invert: ; --tw-backdrop-opacity: ; --tw-backdrop-saturate: ; --tw-backdrop-sepia: ; vertical-align: inherit;&quot;&gt;Para reducir la repetición, podemos agrupar estos dos selectores como una lista separada por comas:&lt;/font&gt;&lt;/font&gt;&#10;&#10;" style="whiteSpace=wrap;html=1;" vertex="1" parent="1">
                    <mxGeometry x="1265" y="1520" width="750" height="90" as="geometry"/>
                </mxCell>
                <mxCell id="43" value="&lt;img alt=&quot;&quot; src=&quot;data:image/png;base64,iVBORw0KGgoAAAANSUhEUgAAAoAAAAFzCAYAAACuI7gJAAAgAElEQVR4nO3de3TU9b3v/1cIyUxISGYI10Cyk1ASrtFwImZTvAEVzBZEoUTZgmVXKtu2cnQhbuiuLuhSdlOXVtt6pPQUAQ8KG8UiG2ELqGhpjlDwRBCQHyFNIAmEXAhJmAskvz/S+ZIJIffMTPJ9PtZircx8b+/vdzLMaz6Xb4Lsg5PrBAAAANPo5e8CAAAA4FsEQAAAAJMhAAIAAJgMARAAAMBkCIAAAAAm07vDOwjprdDeIQoOCVFwryD16hWsoKCgzqgNAADAL+rq6lR77Zqu1dXpmtst11W3rrqv+rusTtPuANirVy+Fh4crqFcvua9ek9tdK5ekoKBrBEAAANCt1dXVqa6uTkEKUlCvYPXpE6q62lpVV1ertrbW3+V1WLu6gENCQtQ3MlJXa+vkvlorKUhBvYLUq1cQ4Q8AAHR7QUFB6tWrl4J6BUkKkvtqra7V1qlvZKRCQkL8XV6HtTkAhlnD1Cesj5yuq5IIewAAwBzqFCSn66r69OmjMKvV3+V0SJsCYEhoiEJCQ+R0X6WlDwAAmE5QUJCcrlojE3VXrQ6AwcG9FR4eLtfVawrqxeRhAABgTkG9JNfVWkWEh6tXcLC/y2mXVic5a5hVTqdbQUGEPwAAYG5BQb3kcF3ttl3BrUpzQUFBCgkJro+8AAAAUG2dFBoS2i2HxbUq0YVaQuVyXevqWgAAALqNXkFBcrrdCrWE+ruUNmtVAOwd3Fu1dV1dCgAAQPdSW1efk7qbVgXAXsHBqqsjAQIAADRUV1fXLSeCtCoABvfq1S37twEAALpSUFCQgrvh3VFaXTEBEAAAwFt3zUfdL7ICAACgQwiAAAAAJkMABAAAMJkeFwBfWLbI3yUAAAAEtB4XAAEAANA8AiAAAIDJEAABAABMhgAIAABgMgRAAAAAkyEABiB7RJTeeHylZk+Y5u9SAABAD9Tb3wU0ZrdFauG8GbpcXaONm3fK4XD6uyQAAIAeJaACYGpKsu6ZlKa/nS1SP3uUv8sBAADokQImANptkRqVlKA3/rhVd01MDbgAuPqRpSq+VCpJmjI2XZK0/tP39d6XuyVJCQPitCpziaL6REiS9h7N1ms71xnbN15+rOCUlr/z8k2XAwAAdJWAGQNYXlGpTVt3BXSX75Sx6RocFa2ZWU9o79FsTUmZKHtElOwRUXr2gR/qUO5Rzcx6QkvWvai0xLFeY/jmTrxPz29+zVg+LHqIsbzx9o+9sUxny4r9dZoAAKCHC5gA2B2cLStW1odrJUmHc4/K0jtUtrAojR2WJKfbpQ3735cknSnJ16Hco0obPs7Y9pd/WqMzJfnG8rOlRRrWP0aSNHl0fYuiZ3sAAICuFDBdwN3BycI8lVddkiR9fuKgPj9xUJI0PmGUhg+K0/ons7zWP1Zwyvh59oRpeuzuh7yWe7qUAQAAfIkA2EnOlhXrZ+++YgTEhu4YeZsyv/tPXmMGVz+y1NclAgAASKIL2MsdI2/Tlqdf1xuPr5Q9ovWTUA6fOa6+1ggtuPOhm67juurWhcoySfWtgWNiRxjLLlSWKTIsQmOHJUmSls1YpGH9Bt+wj9WPLNX2ZWu4PyAAAOiQgGkBtFotmp+ZoZhB/Y3nnntqgQrPXwz4+wGeKcnX85tf06rMJdq+bI3xvKfF7/MTB5WRepeenfm4np35uM6WFev0+Xxjvc9PHNT4xLHG8r1Hs5s8zqHTX2tM7Ahj7CAAAEB7BNkHJ9e1tJLNZpPTfc0X9XTYC8sWaWXWWn+X0SXuGHmbfnrffG3+838ZXckAAMC/LCHBqqio8HcZbRIwLYC4OXtElF58+BkN6zfYaxwhAABAexAAu4Hyqkt68g8v+LsMAADQQzAJBAAAwGQIgAAAACZDAAQAADAZAiAAAIDJEAABAABMhgAIAABgMgRAAAAAkyEAAgAAmAwBEAAAwGQIgAAAACZDAAQAADAZAmAPdMfI2/S/F69WwoC4Nm0XFxujtb95Uds3v6kVSxd3UXUAAMDfevu7gIYS44dq7qypsoSGSpK279qvIzkn/VyVeTyaOVOS9JOlq5RfUOjnagAAQFcJmABotVp05z+massHe5Sbd06pKcmaNjldlyqrlJt3zt/lmcKA6H4687cCwh8AAD1cwARAh8Opt97ZYTzOyy+Sy3VVUZERfqyqnj0iSi8+/Iz25hzQe1/uliQtyViowVHRWv7Oy0oYEKdnH/ih9uYcUOZ3/0nWEIvOlhXrZ+++ovKqS17bpw0fpzGxI+RwO/Wbjzbq8xMHJUkJA+K0KnOJovrUn+/eo9l6bec6o4bZE6bpsbsfMh6v//R9o5amll+qqerSawIAALovxgB2kr7WCM2acK+ee/tlLVn3ovpaIzR5dLrXOo/d/ZCKL5VqZtYTOl2cr4zUuyTVB8xnH/ihDuUe1cysJ7Rk3YtKSxyr2ROmSaoPh98ZEq+ZWU9oZtYTWv/p+5o14V5jjN8dI2/Tg7ffq19t/4NmZj2hX23/g1xXXb69AAAAoNsI2AB439SJulxdo+Pf5vm7lFZxXXXp93ve1ZmSfJ0pydfZ0iIN6x/jtc6xglNGq96h018rKryv7BFRGjssSU63Sxv2vy9JOlOSr0O5R5U2fJzx+Jd/WmPs5/CZ43JddWlY9CBJUkbqXTp4+qjRmtgecbExiogIV1FxSbv3AQAAuoeA6QJuaNrkdA0eGK11mz6Uw+H0dzmd5tDpr42f3/tyt9GFOzCyn4YPitP6J7O81j9WcMr4efUjSzUmdoTx2OHuvOvy6uoVih02RG9t2qYdH+3rtP0CAIDAFHABcNrkdKWmJGvLB3tUXlHp73J8puGYwcaWZCzUsOghWrLuRZ0pyVfCgDj9++x/7bRjP738JcXFxujny36sAdF2rXv7vU7bNwAACDwB1QXcMPz5Y+bvHSNv05anX9cbj6+UPSLqhuWeLt3ZE6Zpytj0G5a31+Ezx9XXGqEFdz5003UuO6pUcaU+HP5o6lz1DQs3lhVfKlVyTLzsEVFKGBCnH019WKG9Q9tUQ35BoaqqqjVk8ID2nQQAAOg2AqYF0G6L1JiRw2UJDdX8uRnG84XnL2rj5p1+7Qour7qkd77YoZ/eN19TxqbrbFmxDpw8YszY7agzJfl6fvNrWpW5RNuXXR/r55npu/3gXq3KXGJ0ER8+c0yXr1Qb623Y/75efPgZrX8ySw63U5v//F+akjKxU2oDAAA9T5B9cHJdSyvZbDY53dd8UU+HvbBskVZmrfV3Gd3Sq6tXqKS0TC+9/Ka/SwEAoNuwhASroqLC32W0SUB1AcO/SkrLNCC6n7/LAAAAXYwACMPbm7crIiKcvwUMAEAPFzBjAOF/+QWFWvTTn/m7DAAA0MVoAQQAADAZAiAAAIDJEAABAABMhgAIAABgMgRAAAAAkyEAAgAAmAwBEAAAwGQIgAAAACZDAAQAADAZAiAAAIDJEAABAABMhgAYID5cFaPcDQnK3ZCgNUsG+rucNlmxdLFeXb2ixfVeXb1CWzf+RvffN9kHVQEAgJvp7e8CGpo3Z7pGJMYaj7fv2q8jOSf9WJHvzHi+UFJ9EDSjV1evUElpmV56+U1/lwIAQI8XUAFw09Zdxs+J8UM1K+NuXaqsUm7eOT9Whc7y9PKX/F0CAABQgAXAhsorLsvldvu7jDZZs2Sgvvc/wo3Ha3dWaPW75ZKkx+6N1L/NtcsSWt/rfizPabT6dca+//X+KL3xYYWeeciuyPBgFZS49fgr53Xq3PVruGLpYo2/ZYze2rRNOz7a16rjLnx0tibePl6/yPqd8guu17ti6WINiO7nFepeXb1CwxPjJEnbPvxY695+T5J0/32T9YN5Dyo0NETV1TX65a/X6quc48Z+0m+7VZI0PDFO2zfXtwCezs039h0XG6OfL/uxBg2MvmGZx60po/Tc/1yk4vMXCZoAALQgYMcAxscNkdPlVmHxRX+X0iprlgzU7SOtWpBVpMQFZ5S44IwR0CaNterpB23asKdSiQvOaEFWkWIH9G71WL/lD9u99r12Z4UWTI3UY/dGGutE9eml5Zn99Oq2Ci3IKlJUn16ac0dEh8+rpLRcISG91c8e1ex6wxPjVFJappmZi5V98CtNvH284mLru7N3fLRPc+b/VL9/a4ucLu9Q/9LLb2pm5mKdzs1X9sGvNDNzsWZmLvYKcU8/+QNVVVVrZuZi/WTpKkVEhGvF0sUdPjcAAMwqoFoArVaL5mdmKGZQf0n1YwAdDqefq2rZpLFW3T7Sqs2fXdYXRx03LJ8/JVKXamq19fMqSdIXRx3a/NllTb8tXCOGhni10jU2YmiIpt8Wrv97wmHse/W75Zo4OkwTR1m1/r8rjXU37Kk0HheUXFX8oBCvfbVnfN3Zc0Vyu69K8m4NHBDdTyWlZcZ6p3Pzjf3nHPtWSd9JUD97lFerYXvcmjJKERHh+t3atyVJ+QWFOvB/DxsB07P/r3KO65F/eaZDxwIAwCwCKgA6HE6tXb9N0vUwOLC/Xbv3Zfu5suYNjwmVJBWWXbvpOpXVtc0GvZbknW9+20s1tfr86BXjcVu6l5tTVn5JLrdLw4YOUfw/DFNVVbXRGlhUXNIpx2jOsKFDZLdFatXPlng9f/5CaZcfGwCAniqgAmBDDodT+QVFiu5n83cpLTpd6JLDXdfsOpHhvbxa+xq3zrWk4fojhoYoMryXCn2QgfILCuVyupU0PF6REeE6dTpPEyekKtQSopLS8q4vQFJVdY1+/au3jHGDAACgYwJ2DKDdFqkxI4fr+Ldn/F1Ki7446lBJxTX9y7RIjRh6Y7A7cNyhgVHBxpg8T5fxroPVLbYKnjrn1ol8l24fadWksVZJ0pw7IhTVp5c27q1sdtvGVixd3O778EVF9lXBuWLlnyvWmNEjFBoSqrPnitq8n5spKS1Twj/EGuMGPXKOnpDbfVWPPfJgs9vfmjJK7/zxFa39zYs37AMAAHgLmBbAxuP/pO51H8AZzxfqw1Ux2r16mPGcZ6auZ1zev821a1FGfYvmx3+t9pok8tsfD1RkeLAkaUy8RbkbEvTxX6v1xGsX9MRrF7RmyUBtWDZEkuR01eo/tpQ3Od6wK5SUlhmzh3OOntADGVMk1XcPt0bDmb6StOpnS26YDfz25u36+bIf67cvPy/p+kzf/IJC/SLrd/r5sh8bM4QlKfvgV15jGsvKL6mq+orstkiljB3Z4bGHAAD0ZEH2wcnN911KstlscrpvPr4tkLywbJFWZq31dxnwg1dXr1BERPgNt6wBAKArWUKCVVFR4e8y2iRgWgCB9lr46Gw9OON7On+hlPAHAEArEADR7a17+z3jptMAAKBlATsJBAAAAF2DAAgAAGAyBEAAAACTIQACAACYDAEQAADAZAiAAAAAJkMABAAAMBkCIAAAgMkQAAEAAEyGAAgAAGAyBEAAAACTIQB2gkljrcp+PVaP3RvZJftf/rBdX/2vOE0aa+2S/fvah6titGbJQJ8eL3dDgnI3JPj0uK2x8NHZWvubFxUXG9Pk8vvvm6ytG3+j7Zvf1Dt/fEW3pozqtGPHxcZo7W9e1IqlizttnwCA7qG3vwtoSmL8UM2dNVWl5ZXauHmnHA6nv0tCNzbj+UJJ9UGwu9nx0T7t+Gif7r9vsuY8MM3f5QAAeoiAawG0Wi2actcE5Z897+9SAAAAeqSAawG8a2KqJCn3b+c0bvR3/FxN29ySYNHxP/yDLKG9VFDi1uOvnNepc25J9d3Ev/3xQEWGB0uSjuU5jZYpjzVLBup7/yPceLx2Z4VWv1t+w3E8633812o98dqFJrdteIzH7o3Uv94fpTc+rNAzD9kVGR58Q30frorRmHiLJMnpqtV/bCnX+v+uNPYdE93bqNezv6W/L9EXRx1Gt2pMdG9jHw1rHzE0RH94ZpBiB4QYtRWWXm3TtV3+sF2LMmzG44bn/ti9kfq3uXZZQnt5nXdrNbd9a66dJK1YuljjbxmjtzZt046P9rXp3CTph/O/r9Rb6rt3sw9+pZdefrPV265Yuljpt90qSXK53DfUcGvKKD33PxcpPLyPJOn8hVL9Iut3N+zHs54k/fLXa/VVznGv54vPX9TTy19q87kBAAJPQLUAJsYP1ZiRw7X3sy/ldLr8XU6bWEOCNPnWMC369XlNW35WkrR0jt1Yvug+m37yuwtKXHBGC7KKFDugt5Y/fH35miUDdftIqxZkFSlxwRklLjhz0/DnWa9hALp9pFUr3y5V4oIzOpbnVEGJW8+sKTG2i+rTS8sz++nVbRVakFWkqD69NOeOCGOfkeG9NG35WSUuOKP9X1/R0w/a2jTm8Hv/I1yFpVeVuOCMPv5rtabfFq4RQ+sD3ytPDFBlda1xXsfy2talv/xhuxZMjTTOL3HBGePcJ4216ukHbdqwp9Lr2rZ2rF9rtm/u2nWGQQOjFdk3XDMzF+v3b23RuNFJuv++ya3a9v77JsvhcGlm5mLNzFysw//vmB7ImGKMKfSEt6+/+dZYZ9FPf6b8Au+A3HC9R/7lGSP8AQB6poBqAUxPG6djJ04rN++cUlOS/V1OmzjcdfpfOy7pi6MOSdKJfJdGxoVqxNAQnTrn1mO/KjbW/eKoQwUlVxU/qD4gTRpr1e0jrdr82WVj+6Y8NcumpKGh+snvLnitN3GUVZdqanXg2BVJ0oFvrijzrr4aZA/2aqXasKfSaNXzHL/hsT3rvry1XH94ZpDuGBvWbD0NHctzGqHswHGHbhlu0SB7sCaOCdMAW7CW/r6khT00bcTQEE2/LVz7v75i1N7Q/CmRulRTq62fV0mqv7abP7tsBNCG59+Ulrb3aOraNdSWFrvGzl8o1atvvCVJyjl6Qg9kTFHKmKRWtSQ2Xifn2LdK+k6C+tmjlF9QqIx771JV9RW9vXn7TfcR2TfCCH9NncdXOcf1yL8808azAgAEsoAJgKkpyQoPD9P7Oz7xdymdIu+8WyPjQo3HjbswpevdoMNj6tcrLLt20/1FhgcrLSlMx/KcN4SyvPNu3TkuTBPHhOnUObcmjg5TQclVr/Uu1dTq86NXjMeeLs5JY61yuOuaPXZXa9wFW1l9zQi5g+zBiurTS3nnbx7kKqtrWwx6zWlp+5tdu66QX1CoqqrqVq8fFxujny/7sQYNjDaeq66uMX4eEN1PVVXVN7T4NTR65HfkcrmVc+zb9hUNAOh2AiYAjkpKUMyg/nruqQVezz/31AJt37VfR3JO+qmy9okfFGIEi8fujdSCqZFe4+Iazkg9XeiSw13X7P4qq6/plffL9cxDdq1ZMtBobZOuB8cXHo3WC49GGwGqtawhQYrpF2w89oQuX1n/35VNtu5J0vnya7pUU9vs9pHhvbxa+xq3zrWko9t3prjYGEVEhCvnWOt+359+8geSpJ8sXaX8gsIbZguXlJZpQHS/ZveRffArSdI/f/9+nT1XRPcvAJhAwIwB3LR1l1ZmrTX+bd+1X4XnL+qXr2/oduHP06164JvrrUbOBq1syx+2G5MlpPpux5KKa/qXaZFe3Y6N5Ra59eq2Ct05Lsxr/OCcSRHa//UVY3zcrf+a3+quW093dMMuz8bdotL1kOQZM2cNCWrV/k8XumQNCdIdY8Mk1Y83bHjuLTl1zq0T+S5l3tW3yTGJB447NDAq2BiT57n2uw5Wt6pVsKPbe6xYulhbN/6m1WP3bmbKXf+oiPAwHcn5ptXbeFr44mJj9EDGFFlCr/8O5Rz7VrHDhmjho7Ob3cdLL7+p4vMX9eNFj95wT8JbU0bpnT++0uz9CgEA3UvAtAB2d9aQIKMFTvKeBbv+vys1Z1KEsbygxK3/r9B7IsSM5wv14aoY7V49zHiuqVnA6/+7UjH9grUow6aJo8M04/lCbf2iSv82167cDQnGeg27UVvS+NiebRuPCdy9epicrlp9dLBGE8e0boKIZ0zdogybFmXYdCzPqY//2vouTkl64rULWrNkoDYsG2I855kF7Gk5/Le517vYP/5rtXHdGs++HhNvUe6GhFZv7wuDBkbrty8/L6m++7bhDNyGM3wladXPlnits3d/tn4w70Ft31w/du/I/zuuf4i7HtI8YwR/MO9BPTjje5JuPgv41Tfe0s+X/VivvLTcayZxWfklVVVfkd0WqZSxI5vtTgYAdA9B9sHJzfc9SrLZbHK6/TdGrC1eWLZIK7PW+rsMn/pwVYwKS696dQt7upi7crwazOPV1SsUERGuX2T9jgAIAI1YQoJVUVHh7zLaJGC6gNE+I4aGKDLc+2WcNNaq2AG923yvPaCxhY/O1vbNbxL+AKCHoQu4mzt1zq0/7q68oQu44Y2SgfZa9/Z7Wvf2e/4uAwDQyQiAPUBzs2gBAAAaowsYAADAZAiAAAAAJkMABAAAMBkCIAAAgMkQAAEAAEyGAAgAAGAyBEAAAACTIQACAACYDAEQAADAZAiAAAAAJkMABAAAMBn+FvDfrVi6WOm33arzF0r1i6zfKb+g0N8lAQAAdImACoDTJqcrPW2c13Pbd+3XkZyTXX7sl15+U5L06uoVejRzpvEYAACgpwmoAChJ2Ye+1u592X47fs6xk0oZk+y34wMAAHQ1xgACAACYDAEQAADAZAKuCzg9bZwxDvBUboE2bd3l0+OXlJbLbo/SrSmj9FXOcZ8eGwAAwBcCKgDu3pdtjP+zWi2an5mheXOm+zQE7vhonyTp3599UgVni/T08pd8dmwAAABfCKgA2JDD4VR+QZGi+9l8etyFj87WxNvH65kVq7kVDAAA6JECdgxgYvxQpaYk6/i3Z3x+7KqqasIfAADosQKmBdDT5RszqL8kyelyacsHe5Sbd87PlQEAAPQsARMAHQ6n1q7f5u8yAAAAeryA7QL2l5QxySopLfN3GQAAAF0mYFoA/c3zt4Crq2u0/h1aIgEAQM9FAPw7/vYvAAAwC7qAAQAATIYACAAAYDIEQAAAAJMhAAIAAJgMARAAAMBkCIAAAAAmQwAEAAAwGQIgAACAyRAAAQAATIYACAAAYDIEQAAAAJMJuL8FbLdFauG8Geob0UeStH3Xfh3JOennqgAAAHqOgAqAifFDNXfWVO3el03oAwAA6CIB1QWcnjaO8AcAANDFAqYF0G6LVD97pGJjBmnm9DslSZerarRu04cqr6j0c3UAAAA9R8C0ANptfRURHqaIiD5ambVWK7PWqvhCqeY8MEVWq8Xf5QEAAPQYARMAJamq+oo+2nPAeJx96GtZQkMURgAEAADoNAETAMsrLkuqbwkEAABA1wmgAFipsvJKpaeNM55LTxunsvJKxgACAAB0ooCZBCJJ7+/4RPMzM/TCskWSpFO5Bdq0dZefqwIAAOhZAioAOhxOrV2/zd9lAAAA9GgB0wUMAAAA3yAAAgAAmAwBEAAAwGQIgAAAACZDAAQAADAZAiAAAIDJEAABAABMhgAIAABgMgRAAAAAkyEAAgAAmAwBEAAAwGQIgAAAACZDAAQAADAZAiAAAIDJEAADkD0iSm88vlKzJ0xr87avrl6h7Zvf1KurV3RBZQAAoCfo7e8CPBLjh2rurKmyhIZ6PV94/qI2bt4ph8Ppp8q6j4WPztbgQf31/Iuv6auc4/4uBwAABKiACYC5eef0H79e7/XcvDnTJYnw10pDBg9Q8fmLhD8AANCsgAmAjdltkepnj9TOj//s71IkSasfWariS6WSpClj0yVJ6z99X+99uVuSlDAgTqsylyiqT4Qkae/RbL22c52xfePlxwpOafk7L990OQAAQFcJ2DGAE8aPVll5pXLzzvm7FMOUsekaHBWtmVlPaO/RbE1JmSh7RJTsEVF69oEf6lDuUc3MekJL1r2otMSxXmP45k68T89vfs1YPix6iLG88faPvbFMZ8uK/XWaAACghwvIAGi3RWrE8DhlH/ra36V4OVtWrKwP10qSDucelaV3qGxhURo7LElOt0sb9r8vSTpTkq9DuUeVNnycse0v/7RGZ0ryjeVnS4s0rH+MJGny6PoWRc/27TUgup9KSss6tA8AANDzBWQX8ITxo+V0uVVYfNHfpXg5WZin8qpLkqTPTxzU5ycOSpLGJ4zS8EFxWv9kltf6xwpOGT/PnjBNj939kNdyT5dyR61Yuljpt92qbR9+rHVvv9cp+wQAAD1XwAVAuy1SY0YO1ydfHOpWkz/OlhXrZ+++YgTEhu4YeZsyv/tPXmMGVz+ytNOO/dLLb0qqvwXMiqWLjccAAABNCbgu4AnjR+tydY2Of5vn82PfMfI2bXn6db3x+ErZI6Javd3hM8fV1xqhBXc+dNN1XFfdulBZ3z07e8I0jYkdYSy7UFmmyLAIjR2WJElaNmORhvUb3Ob6S0rLNCC6X5u3AwAA5hJQLYCJ8UOVmpKs3fuyu1Xr35mSfD2/+TWtylyi7cvWGM97Wvw+P3FQGal36dmZj+vZmY/rbFmxTp/PN9b7/MRBjU8cayzfezTbH6cBAABMIsg+OLmupZVsNpuc7mu+qKfDXli2SCuz1vq7DL9YsXSxBkT309PLX/J3KQAAmIYlJFgVFRX+LqNNAq4LGO1XVFyiiIhwxcXG+LsUAAAQwAiAPci6t99TVVW1fvvy8/wtYAAAcFMBNQYQHUf3LwAAaAktgAAAACZDAAQAADAZAiAAAIDJEAABAABMhgAIAABgMgRAAAAAkyEAAgAAmAwBEAAAwGQIgAAAACZDAAQAADAZ/hRcF7BaLZqfmaFDR77RkZyTXs8/dP89+mjPAZVXVPqxQt+aNjld6WnjJEmncgu0aesun9eQGD9Uc2dNVf7Z8345fmulpiQrLXW0Nm7eKYfD2eH9BcK1b0mgvzapKcka2N+u3fuyW1yvM187AOhKARUA7bZILZw3Q30j+kiSLlfVaN2mD7tdWBqVFC9JOv5tnqT64Pfwg9/T/r8c0eXL1bJaQvWDR+7X/r8cUW7eOX+W6hO792Vr975sTZucrhzURZUAAB2+SURBVOh+Nn+XYyr+vvY3+zLUHaSmJGtUUoKyD32tyIhw43FTIdVqtSgtdbQOHfmG8AegWwiYAGi1WjTngSn65ItDxgfFvDnTdd/UiQHZKtCcUUkJXh8EDodT7277WPMzMxQzqL/G3zJS23ftN0X4CxS5eef0H79e7+8y0IRAfW08/w/Nn5shSSo8f1EbN+9sct2Ywf3ldrmNL30AEOgCJgCGWS2yhIboUmWV8VxpWUW3azFKjB+qfvZI5eUX3XQdp8vldZ6tkZqSrJnT7zQeZx/62qtLquFyp8ulLR/sUW7eOaMFJr+gyFi/qecadhU2bnn1dG39+S9faWbGnbKEht7Qndhw+4bH76imWpA8rVmbtu6S3RapOQ9M0aEj32ja5HRZQkOND2pPAJ83Z7pGJMY2ed2kG1ueJWn7rv06knPyhm49uy1S//z96dr58Z+N87vZtW+thtdOqg8aN1veVKt44/obn39zPNc3ZlD/JredN2e6SssqJMmowXNtmjp2w9+Lhtd95vQ7jWvU8DVo6bVpfG0aHtvTIldaVmGs09z74mbHaK3q6is3vabpaeNUdP4irX8Auo2ACYDlFZUqK6/UrIy7tW7Th7Lb+io1Jbnd/1n7S3raOJ06ne/1Ae3pAt772Zcak5yoQ18d17TJ6ZLUqqBgt0Xqu7ffoo1bdja5fmL8UN0zKc1YnpqSbFzH8opK5RcUKS52iKxWixwOpxG2T+UWSKr/kBwzcrhe//1mlVdUatrkdM15YIpXEIgZ1F/Tp07Umre2yW7rq1kZdysxfqhy884pMX6oHA6XVmatlVT/oT3lrgkqLPbNWKi+4X10z6Q0rXlrmyRp4bwZGpUUbwSFhoGkMU/L87ETp7V7X7YRiFqrpWvfksbX3hM4b7a88WvjCWCe+tvq9vFjtPezL72+LNw1MdVrX+lp43Qqt0Ars9Zq2uR0paWO1vFv8+RwODXp9luMc/XUkpqSrCM5J7Vp664Wu4Cbe22aujbTJqfrUmWV8T7whMeVWWuVmpKseyal6cvD3xj1NPe+aYknYG7cslOxMYNUWVWteXOm39Aj4fnS99GeA20+BgD4S0DNAt60dZc++eKQnvpRpubOmqotH+zpVuOG7LZI9bNHGsHKw+Fw6q13dqiw+KL69g2Xw+nSW+/saNOHUmhIiPFh19iIxFgdO3Ha2N/xb/N0ubpG8XFDJElfHv5GltAQxQyub+WJjxuisvJKY/1RSQn65ItDRmBpvL5U37L1wc5PVV5RqcLii7pcXaOoyAhJ9SH2swOHjXVP5RbIEhqiMKul1efXES6326itvKJSxRdKNbC/vVXbesZrfnbgSLuO3dK1b45n3FjDa39jfc2/NhPGj9bl6pp21//ZgcNG7Q6HU/kFRTe0uheev6j3d3wi6cbX9sPdnxu1tfXaN8dzbY6dOG3s/0jOSeWfPe/1PmhYW15+kVxut+y2vsby5t43LfGE2KjICFmtocbjxkYkxqqsvLLbjVUGYG4B0wIo1bcChIeH6Zevb9CopHjNn5vRoS4bX5swfrRXsGrM4XC2azxjeUWlPtj5qebOmqr0tHE3dANG97NpRGKsV1dZ4+3Lyis1IjFWuXnnNCopQce/PSOp/oM2PDzMq4tOqg98DZWW1wc/z3msXb/NWNa4G1Gq76o0g5aufUe05rWJ7mdrtmuyJZ4ZuJbQUOO5xl9g8guKjP3n5p3Tb9duMZY17mKVZHQZd4YLF8vbvW1L75vWau5LqN0WqRHD47Tz4z+3u04A8IeACYCJ8UM1eGC0Ptj5qRwOp/GfbsMunUBmtVoUFztEh4580yX7bzhQftrkdC2cN8Prw6yloHz82zNKSx2tIYP6Kzw87IYxig3HVrXVQ/ffI0n65esb5HA4lRg/VBnf+2679tUddfWXlOZem46Mk7XbIjUr424dyTnpNRa0tftLjB+qaZPTveprqiu3Ixq2JnoCcVsCZkvvm46Kjxsip8ttfDkCgO4ioLqAQ0N7G92KUn331+XqGl3pBgOrG9/6pSs1bhU5/u0ZpaYkKzF+6E238QS+pOFxyi8oMj4APd1+90xKk90W2e6aPK1QVqtFU+6aoNCQkHbvqymeIJCaktyprW2XKqvUN7yP0aX60P33eLVkSvVjDMOsFmO8YER4mLGsNdf+ZhwOp6qrr2hUUoKk64Gq4fKWXptTuQWKGzZIqSnJbT6+h+f3KTF+aJv343JdNSY0paYk39Dd2vgcW8tz7mNGDjfOfVRSvPqG99GXh9v3JasjrYlN4dYvALqzgGkBzM07p937sr26u9oym9HfRiUleHWVdabG3WyemaYNx0ZJ129XId04W9QzGeQfJ4zTlg/2eO3f0/rz1I8yjefacu2zD32tubOm6oVli4x6LLH1AbCp7uEXli1q9U2JHQ6n9n72pdGNV3j+oo7knFREgxm7zWk8S9XTXetptcvNO6djJ04b1+5IzkmvWbhHck5qVFKCcW0+/eKvGjfmO17LpeavfXM+2nNAC+fN0AvLFulyVY1278vWLWNGGMtbem1y885pywd7NHfW1BveN5KavfblFZU6duK08Z67XFXz9zF+17uDm5Obd07FF0q9bpPyt4IbZ783PEfpeotpS69N43Nv/HvfkpbeNx0VM7i/LKEhzc74B4BAFWQfnFzX0ko2m01O9zVf1NNhLyxbZMxG9RVPl+f/+c9dAd9VjeZ15xsXw7c8t8jpLmOUAXQdS0iwKio6b/yzLwRMC2B31nhgPICer7vdoB4AGgqoMYAAAADoerQAAg00vsUNAAA9ES2AAAAAJkMABAAAMBkCIAAAgMkQAAEAAEyGAAgAAGAyBEAAAACTIQACAACYDAEQAADAZAiAAAAAJkMABAAAMBkCIAAAgMkE1N8CttsitXDeDPWN6CNJyj70tXbvy/bJsVcsXaz0227V+Qul+kXW75RfUOiT4wIAAPhawLQAWq0WzXlgio6dOK2VWWv1+u83a8zI4UpNSfbJ8V96+U3NzFysqqpqPZo50yfHBAAA8IeACYCjkuLVN7yPvjz8jSSpvKJSx06c1qikBJ/WkXPspAZE9/PpMQEAAHwpYAKgJF2urtEVh9N4fOFiucLDw2S1WvxYFQAAQM8SMAEwL79IfcP7aFRSvKT68YD3TErzc1UAAAA9T8BMAimvqNQnXxzSzOl3aub0O3W5qkZ//eq4hsYMlKNBq2BXKyktl90epVtTRumrnOM+Oy4AAICvBEwAlKQjOSd1JOek8Xja5HSVllX4tIYdH+2TJP37s0+q4GyRnl7+kk+PDwAA0NUCKgA2NG1yuuJih2jj5p0+Pe7CR2dr4u3j9cyK1dwKBgAA9EgBEwCtVovmZ2YoZlB/SdKp3AKtXb/NL7VUVVUT/gAAQI8VMAHQ4XD6LfABAACYScDMAgYAAIBvEAAbSRmTrJLSMn+XAQAA0GUCpgvY3zx/C7i6ukbr36ErGgAA9FwEwL976eU3/V0CAACAT9AFDAAAYDIEQAAAAJMhAAIAAJgMARAAAMBkCIAAAAAmQwAEAAAwGQIgAACAyRAAAQAATIYACAAAYDIEQAAAAJMhAAIAAJiMX/4WsN0WqYXzZuhydY02bt4ph8MpSbJaLZqfmaGYQf0lSadyC7Rp6y5/lAgAANBj+bwFMDUlWQvnzdDfzhbdsOyh++9RdfUVrcxaq9d/v1mDB0Zr2uR0X5cIAADQo/k0ANptkRqVlKA3/rhVVVU1XssS44dq8MBoZR/6WpJUXlGpYydOKy52iKxWiy/LBAAA6NF8GgDLKyq1aesuo8u3oajICF2urlFh8UVJ9S2F6Wnj1De8j8IIgAAAAJ3GL2MAm5MYF6OZGXfK5bqqDZt36p/u/a7str4qr6j0d2kAAAA9QkAFwJhB/TV96kSteWubyisqlRg/VJJUXnHZz5UBAAD0HAFzG5hLlVW6XFWjD3Z+arT2RUVGyOly60oTXcYAAABon4AJgIXFF3W5ukZT7pogq9Uiq9WitNTRyi8oanLMIAAAANrHp13Aje/zJ0nPPbVAhecvauPmndq4eafmZ2bouacWSJKyD32t3fuyfVkiAABAj+fTAOhwOLV2/bZm12lpOQAAADomYLqAAQAA4BsEQAAAAJMhAAIAAJgMARAAAMBkCIAAAAAmQwAEAAAwGQIgAACAyRAAAQAATIYACAAAYDIEQAAAAJMhAAIAAJgMARAAAMBkCIAAAAAmQwAEAAAwGb8EQLstUs88+c9a9NiDslotrV6G1rlj5G3634tXK2FAXJu2i4uN0drfvKjtm9/UiqWLu6g6AADgb719fcDUlGTdMylNfztbpH72qFYvQ9d7NHOmJOknS1cpv6DQz9UAAICu4tMWQLstUqOSEvTGH7eqqqqm1cvgGwOi++nM3woIfwAA9HA+bQEsr6jUpq272rzM3+wRUXrx4We0N+eA3vtytyRpScZCDY6K1vJ3XlbCgDg9+8APtTfngDK/+0+yhlh0tqxYP3v3FZVXXfLaPm34OI2JHSGH26nffLRRn584KElKGBCnVZlLFNUnQpK092i2Xtu5zqhh9oRpeuzuh4zH6z9936ilqeWXaqq69JoAAIDui0kgnaSvNUKzJtyr595+WUvWvai+1ghNHp3utc5jdz+k4kulmpn1hE4X5ysj9S5J9QHz2Qd+qEO5RzUz6wktWfei0hLHavaEaZLqw+F3hsRrZtYTmpn1hNZ/+r5mTbjXGON3x8jb9ODt9+pX2/+gmVlP6Ffb/yDXVZdvLwAAAOg2CICdxHXVpd/veVdnSvJ1piRfZ0uLNKx/jNc6xwpOGa16h05/rajwvrJHRGnssCQ53S5t2P++JOlMSb4O5R5V2vBxxuNf/mmNsZ/DZ47LddWlYdGDJEkZqXfp4OmjRmtie8TFxigiIlxFxSXt3gcAAOgefD4JxMwOnf7a+Pm9L3cbXbgDI/tp+KA4rX8yy2v9YwWnjJ9XP7JUY2JHGI8dbmen1fXq6hWKHTZEb23aph0f7eu0/QIAgMBEAAwQDccMNrYkY6GGRQ/RknUv6kxJvhIGxOnfZ/9rpx376eUvKS42Rj9f9mMNiLZr3dvvddq+AQBA4PFpALRaLZqfmaGYQf2N5557aoEKz1/Uf/5pr77/wJQml23cvFMOR+e1eN3MHSNv00/vm6+Ll8ubDGOeLt3ZE6Zpyth0rxa6jjh85rhmTbhXC+58yGviR0OXHVWquFJfz4+mzlXfsHBjWfGlUiXHxMseESVbWJR+NPXhNteQX1CoqqpqDRk8oH0nAQAAug2fBkCHw6m167fddHlzy/ypvOqS3vlih35633xNGZuus2XFOnDyiDFjt6POlOTr+c2vaVXmEm1fdn2sn2em7/aDe7Uqc4nRRXz4zDFdvlJtrLdh//t68eFntP7JLDncTm3+839pSsrETqkNAAD0PEH2wcl1La1ks9nkdF/zRT0d9sKyRVqZtdbfZXRLr65eoZLSMr308pv+LgUAgG7DEhKsiooKf5fRJswChqGktEwDovv5uwwAANDFCIAwvL15uyIiwvlbwAAA9HDMAoYhv6BQi376M3+XAQAAuhgtgAAAACZDAAQAADAZAiAAAIDJEAABAABMhgAIAABgMgRAAAAAkyEAAgAAmAwBEAAAwGQIgAAAACZDAAQAADAZ/hRcF7BaLZqfmaFDR77RkZyTXs8/dP89+mjPAZVXVPqxQt+aNjld6WnjJEmncgu0aesun9eQGD9Uc2dNVf7Z8345fmulpiQrLXW0Nm7eKYfD2eH9BcK1b0mgvzapKcka2N+u3fuyW1yvM187AOhKfgmAdlukFs6bocvVNV7/WXo+CCyhoZKk7bv2ewWo7mJUUrwk6fi3eZLqg9/DD35P+/9yRJcvV8tqCdUPHrlf+/9yRLl55/xZqk/s3pet3fuyNW1yuqL72fxdjqn4+9rf7MtQd5CakqxRSQnKPvS1IiPCjcdNhVSr1aK01NE6dOQbwh+AbsHnATA1JVn3TErT384WqZ89ynjearXozn9M1ZYP9ig375xSU5I1bXK6LlVWdbuQNCopweuDwOFw6t1tH2t+ZoZiBvXX+FtGavuu/d3uvLqz3Lxz+o9fr/d3GWhCoL42nsA6f26GJKnw/EVt3LyzyXVjBveX2+U2vvQBQKDzaQC02yI1KilBb/xxq+6amOoVAB0Op956Z4fxOC+/SC7XVUVFRviyxA5LjB+qfvZI5eUX3XQdp8ulS5VVbdpvakqyZk6/03icfehrry6phsudLpcRpD0tMPkFRcb6TT3XsKvwclWN1m360Oim9nRt/fkvX2lmxp2yhIbe0J3YcPuGx++oplqQPK1Zm7bukt0WqTkPTNGhI99o2uR0WUJDjQ9qTwCfN2e6RiTGNnndpOst0n0j+hjPeVqfG3fr2W2R+ufvT9fOj/9snN/Nrn1rNbx2Un3QuNnyxq9NU/U3Pv/meK5vzKD+TW47b850lZZVSJJRQ8OW+cbHbvh70fC6z5x+p3GNGr4GLb02ja9Nw2N7WuRKyyqMdZp7X9zsGK1VXX3lptc0PW2cis5fpPUPQLfh0wBYXlEZkGN8OlN62jidOp3v9QHt6QLe+9mXGpOcqENfHde0yemS1KqgYLdF6ru336KNW3Y2uX5i/FDdMynNWJ6akqxZGXcbQSG/oEhxsUNktVrkcDgVZrXIEhqiU7kFkuo/JMeMHK7Xf79Z5RWVmjY5XXMemOIVBGIG9df0qRO15q1tstv6albG3UqMH6rcvHNKjB8qh8OllVlrJdV/aE+5a4IKi30zFqpveB/dMylNa97aJklaOG+GRiXFG0GhYSBpzGq1aM4DU3TsxGnt3pdtBKLWaunat6TxtfcEzpstb/zaeAKYp/62un38GO397EuvLwt3TUz12ld62jidyi3Qyqy1mjY5XWmpo3X82zw5HE5Nuv0W41w9taSmJOtIzklt2rqrxS7g5l6bpq5N414BT3hcmbXW6F348vA3Rj3NvW9a4gmYG7fsVGzMIFVWVWvenOk3/B/m+dL30Z4DbT4GAPhLwM4Cvm/qRF2urulWXSp2W6T62SONYOXhad0sLL6ovn3D5XC69NY7O9r0oRQaEmJ82DU2IjFWx06cNvZ3/Ns8Xa6uUXzcEEnSl4e/kSU0RDGD61t54uOGqKy80lh/VFKCPvnikBFYGq8v1bdsfbDzU5VXVKqw+KIuV9cYrbO5eef02YHDxrqncgtkCQ1RmNXS6vPrCJfbbdRWXlGp4gulGtjf3qptPeM1PztwpF3HbunaN8czbqzhtb+xvuZfmwnjR+tydU276//swGGjdofDqfyCohvGChaev6j3d3wi6cbX9sPdnxu1tfXaN8dzbY6dOG3s/0jOSeWfPe/1PmhYW15+kVxut+y2vsby5t43LfGE2KjICFmtocbjxkYkxqqsvNJUE7sAdH8BOQt42uR0DR4YrXWbPuxWXSoTxo/2ClaNORzOdrWAlldU6oOdn2rurKlKTxt3QzdgdD+bRiTGenWVNd6+rLxSIxJjlZt3TqOSEnT82zOS6j9ow8PDvLropPrA11BpeX3w85zH2vXbjGWNuxGl+q5KM2jp2ndEa16b6H62ZrsmW9J44pWkG77A5BcUGfvPzTun367dYixr3MUqyegy7gwXLpa3e9uW3jet1dzkFbstUiOGx2nnx39ud50A4A8BFwCnTU5Xakqytnywp1t9o7ZaLYqLHaJDR77pkv03HCg/bXK6Fs6b4fVh1tLYpuPfnlFa6mgNGdRf4eFhN4xR7MiM64fuv0eS9MvXN8jhcCoxfqgyvvfddu2rO+rIuLLWaO61KS2raPfsXrstUrMy7taRnJNeY0Fbu7/E+KGaNjndq76munI7omFroicQtyVgtvS+6aj4uCFyutzGlyMA6C4Cqgu4YfjrbjNkG9/6pSs1bhU5/u0ZpaYkKzF+6E238QS+pOFxyi8oMj4APd1+90xKk90W2e6aPK1QVqtFU+6aoNCQkHbvqymeIJCaktyprW2XKqvUN7yP0aX60P33eLVkSvVjDMOsFmO8YER4mLGsNdf+ZhwOp6qrr2hUUoKk64Gq4fKWXptTuQWKGzZIqSnJbT6+h+f3KTF+aJv343JdNSY0paYk39Dd2vgcW8tz7mNGDjfOfVRSvPqG99GXh9v3JasjrYlN4dYvALozn7YANtVV+NxTC1R4/qI+/OhzjRk5XJbQUOO2C1LbZjT606ikBK+uss7UuJvNM9O04dgoSV7XrXF3l2cyyD9OGKctH+zx2r+n9eepH2Uaz7Xlumcf+lpzZ03VC8sWGfVYYusDYFOv+QvLFrX6psQOh1N7P/vS6MYrPH9RR3JOKqLBjN3mNJ6l6umu9bTa5ead07ETp41rdyTnpNcs3CM5JzUqKcG4Np9+8VeNG/Mdr+VS89e+OR/tOaCF82bohWWLdLmqRrv3ZeuWMSOM5S29Nrl557Tlgz2aO2uq8TvS8HYlzV378opKHTtx2uhivlxV8/cxfte7g5uTm3dOxRdKvW6T8reCG2e/NzxH6XqLaUuvTeNzb/x735KW3jcdFTO4vyyhIc3O+AeAQBVkH5xc19JKNptNTvc1X9TTYS8sW2TMRvUVT5fn//nPXd2q2xo36s43LoZveW6R05Xd/wC6B0tIsCoqOm/8sy8E3BjA7qjxwHgAPV9Pv6UVgJ4toMYAAgAAoOvRAgg00PgWNwAA9ES0AAIAAJgMARAAAMBkCIAAAAAmQwAEAAAwGQIgAACAyRAAAQAATIYACAAAYDIEQAAAAJMhAAIAAJgMARAAAMBkCIAAAAAm45e/BWy3RWrhvBm6XF2jjZt3yuFwSpLmzZmuEYmxxnrbd+3XkZyTPqlpxdLFSr/tVp2/UKpfZP1O+QWFPjkuAACAr/k8AKamJOueSWn629ki9bNHeS3btHWX8XNi/FDNyrhblyqrlJt3rsvreunlNyVJr65eoUczZxqPAQAAehqfdgHbbZEalZSgN/64VVVVNc2uW15xWS6320eVXZdz7KQGRPfz+XEBAAB8xactgOUVlV6tfM2Jjxsip8utwuKLXVwVAACAufhlDODNWK0Wzc/MUMyg/pLqxwB6xgcCAACgcwRUAHQ4nFq7fpuk62FwYH+7du/L9lkNJaXlstujdGvKKH2Vc9xnxwUAAPCVgAqADTkcTuUXFCm6n82nx93x0T5J0r8/+6QKzhbp6eUv+fT4AAAAXS1gA6DdFqkxI4frky8O+fS4Cx+drYm3j9czK1ZzKxgAANAj+TQANh7jJ0nPPbVAhecv6j//tFfff2CK1zJf3gewoaqqasIfAADosXwaABuO8WtKc8sAAADQOfhTcAAAACZDAGwkZUyySkrL/F0GAABAlwnYSSC+5vlbwNXVNVr/Dl3RAACg5yIA/h1/+xcAAJgFXcAAAAAmQwAEAAAwGQIgAACAyRAAAQAATCbIPji5rqWVbDabnO5rvqgHAACgW7GEBKuiosLfZbQJLYAAAAAmQwAEAAAwGQIgAACAybQqANbW1aqutsWhggAAAKZSW1ur2rpaf5fRZq0KgHW1dVIQARAAAKChoKD6ENjdtCoAut1u9QoK6upaAAAAupVeQUG66r7q7zLarFUB0OVyKTiY4YIAAAANBQf3ktPl8ncZbda6MYC1tcY/AAAAXM9Hdd0wH7W6Wa+mulrWkN6qq2MsIAAAMLfaujqFWYJVU13t71LapdUBsK6uTjWOGoWG9KYlEAAAmFZtba2svYNVXXOl2zaMtWlgn9vlltvlVFgoLYEAAMB86urqZA3pLafLKbfL7e9y2q3NMzuuXLmi6poaWUJ7K6iOcYEAAKDnq62tVZDqZAntrZorNXI4HP4uqUPaNbXX7Xar8tIlBalO4WEWBfcKUp3q6gdC0jIIAAC6ubq6v+ca1Sm4V5DCwywKUq0qL12S2919W/48guyDkzuc2CwWi0ItoQoO6qVewcEK4p6BAACgG6urq1PttWu6Vlsrl8slp9Pp75I6Ve/O2InT6exxFwYAAKCn4u7OAAAAJkMABAAAMBkCIAAAgMkQAAEAAEyGAAgAAGAyBEAAAACTIQACAACYDAEQAADAZAiAAAAAJkMABAAAMBkCIAAAgMkQAAEAAEyGAAgAAGAyBEAAAACTIQACAACYzP8P6+vsUfgKM5YAAAAASUVORK5CYII=&quot;&gt;" style="whiteSpace=wrap;html=1;" vertex="1" parent="1">
                    <mxGeometry x="2157.5" y="1467.5" width="250" height="195" as="geometry"/>
                </mxCell>
            </root>
        </mxGraphModel>
    </diagram>
</mxfile>